<?xml version="1.0" encoding="UTF-8" standalone="no"?>
<!DOCTYPE svg PUBLIC "-//W3C//DTD SVG 1.1//EN" "http://www.w3.org/Graphics/SVG/1.1/DTD/svg11.dtd">
<svg version="1.1" xmlns="http://www.w3.org/2000/svg" xmlns:xlink="http://www.w3.org/1999/xlink" preserveAspectRatio="xMidYMid meet" viewBox="0 0 32 32" width="32" height="32"><defs><path d="M9.43 16C9.43 12.37 12.37 9.43 16 9.43C19.63 9.43 22.57 12.37 22.57 16C22.57 19.63 19.63 22.57 16 22.57C12.37 22.57 9.43 19.63 9.43 16Z" id="a8eRPKP4W"></path><path d="M26.38 17.9L22.14 22.14L17.9 26.38L22.61 26.85L27.31 27.31L26.85 22.61L26.38 17.9Z" id="adsxl3lWH"></path><path d="M25.72 23.6L17.24 15.12L15.12 17.24L23.6 25.72L25.72 23.6Z" id="dIRQ61CrP"></path><path d="M25.72 23.6L17.24 15.12L15.12 17.24L23.6 25.72L25.72 23.6Z" id="deoh6xlA4"></path></defs><g><g><g><use xlink:href="#a8eRPKP4W" opacity="1" fill="#a70000" fill-opacity="1"></use><g><use xlink:href="#a8eRPKP4W" opacity="1" fill-opacity="0" stroke="#000000" stroke-width="1" stroke-opacity="0"></use></g></g><g><use xlink:href="#adsxl3lWH" opacity="1" fill="#000000" fill-opacity="1"></use><g><use xlink:href="#adsxl3lWH" opacity="1" fill-opacity="0" stroke="#000000" stroke-width="1" stroke-opacity="0"></use></g></g><g><use xlink:href="#dIRQ61CrP" opacity="1" fill="#000000" fill-opacity="1"></use><g><use xlink:href="#dIRQ61CrP" opacity="1" fill-opacity="0" stroke="#000000" stroke-width="1" stroke-opacity="0"></use></g></g><g><use xlink:href="#deoh6xlA4" opacity="1" fill="#000000" fill-opacity="0"></use><g><use xlink:href="#deoh6xlA4" opacity="1" fill-opacity="0" stroke="#000000" stroke-width="0.5" stroke-opacity="1"></use></g></g></g></g></svg>