<?xml version="1.0" encoding="UTF-8" standalone="no"?>
<!DOCTYPE svg PUBLIC "-//W3C//DTD SVG 1.1//EN" "http://www.w3.org/Graphics/SVG/1.1/DTD/svg11.dtd">
<svg version="1.1" xmlns="http://www.w3.org/2000/svg" xmlns:xlink="http://www.w3.org/1999/xlink" preserveAspectRatio="xMidYMid meet" viewBox="0 0 48 32" width="48" height="32"><defs><path d="M24 29.15C16.74 29.15 10.85 23.26 10.85 16C10.85 8.74 16.74 2.85 24 2.85C31.26 2.85 37.15 8.74 37.15 16C37.15 23.26 31.26 29.15 24 29.15Z" id="j78rWJhHr"></path><path d="M7.5 14L4.5 17.66L10.5 17.66L16.5 17.66L13.5 14L10.5 10.34L7.5 14Z" id="d3rZtCaKQe"></path><path d="M10 15.5C10 16.03 10 16.36 10 16.49C10 23.68 15.82 29.5 23.01 29.5C23.23 29.5 23.8 29.5 24.71 29.5" id="a4lDBEiHa"></path><path d="M38 15.5C38 16.03 38 16.36 38 16.49C38 23.68 32.18 29.5 24.99 29.5C24.77 29.5 24.2 29.5 23.29 29.5" id="g3z4yf7DV"></path><path d="M24 17.5L24 14.5L39.24 14.5C39.24 15.96 39.24 16.87 39.24 17.23C39.24 17.38 39.12 17.5 38.98 17.5C36.98 17.5 31.99 17.5 24 17.5Z" id="aAl4b4R5x"></path></defs><g><g><g><use xlink:href="#j78rWJhHr" opacity="1" fill="#a70000" fill-opacity="1"></use><g><use xlink:href="#j78rWJhHr" opacity="1" fill-opacity="0" stroke="#000000" stroke-width="1" stroke-opacity="0"></use></g></g><g><use xlink:href="#d3rZtCaKQe" opacity="1" fill="#000000" fill-opacity="1"></use></g><g><g><use xlink:href="#a4lDBEiHa" opacity="1" fill-opacity="0" stroke="#000000" stroke-width="3" stroke-opacity="1"></use></g></g><g><g><use xlink:href="#g3z4yf7DV" opacity="1" fill-opacity="0" stroke="#000000" stroke-width="3" stroke-opacity="1"></use></g></g><g><use xlink:href="#aAl4b4R5x" opacity="1" fill="#000000" fill-opacity="1"></use><g><use xlink:href="#aAl4b4R5x" opacity="1" fill-opacity="0" stroke="#000000" stroke-width="0.5" stroke-opacity="1"></use></g></g></g></g></svg>