<?xml version="1.0" encoding="UTF-8" standalone="no"?>
<!DOCTYPE svg PUBLIC "-//W3C//DTD SVG 1.1//EN" "http://www.w3.org/Graphics/SVG/1.1/DTD/svg11.dtd">
<svg version="1.1" xmlns="http://www.w3.org/2000/svg" xmlns:xlink="http://www.w3.org/1999/xlink" preserveAspectRatio="xMidYMid meet" viewBox="0 0 48 32" width="48" height="32"><defs><path d="M24 29.15C16.74 29.15 10.85 23.26 10.85 16C10.85 8.74 16.74 2.85 24 2.85C31.26 2.85 37.15 8.74 37.15 16C37.15 23.26 31.26 29.15 24 29.15Z" id="j78rWJhHr"></path><path d="M34.5 14L31.5 17.66L37.5 17.66L43.5 17.66L40.5 14L37.5 10.34L34.5 14Z" id="cM4W9rQj5"></path><path d="M46.16 -8.5L34 -8.5L34 -11.5L46.16 -11.5L46.16 -8.5Z" id="j4IeeNt6pu"></path><path d="M38 15.5C38 16.03 38 16.36 38 16.49C38 23.68 32.18 29.5 24.99 29.5C24.77 29.5 24.2 29.5 23.29 29.5" id="a1TH5G0tLI"></path><path d="M22.5 16L25.5 16L25.5 30.74L22.5 30.74L22.5 16Z" id="a6920YD0nu"></path></defs><g><g><g><use xlink:href="#j78rWJhHr" opacity="1" fill="#a70000" fill-opacity="1"></use><g><use xlink:href="#j78rWJhHr" opacity="1" fill-opacity="0" stroke="#000000" stroke-width="1" stroke-opacity="0"></use></g></g><g><use xlink:href="#cM4W9rQj5" opacity="1" fill="#000000" fill-opacity="1"></use></g><g><use xlink:href="#j4IeeNt6pu" opacity="1" fill="#000000" fill-opacity="1"></use></g><g><g><use xlink:href="#a1TH5G0tLI" opacity="1" fill-opacity="0" stroke="#000000" stroke-width="3" stroke-opacity="1"></use></g></g><g><use xlink:href="#a6920YD0nu" opacity="1" fill="#000000" fill-opacity="1"></use><g><use xlink:href="#a6920YD0nu" opacity="1" fill-opacity="0" stroke="#000000" stroke-width="0.5" stroke-opacity="1"></use></g></g></g></g></svg>