<?xml version="1.0" encoding="UTF-8" standalone="no"?>
<!DOCTYPE svg PUBLIC "-//W3C//DTD SVG 1.1//EN" "http://www.w3.org/Graphics/SVG/1.1/DTD/svg11.dtd">
<svg version="1.1" xmlns="http://www.w3.org/2000/svg" xmlns:xlink="http://www.w3.org/1999/xlink" preserveAspectRatio="xMidYMid meet" viewBox="0 0 32 32" width="32" height="32"><defs><path d="M9.43 16C9.43 12.37 12.37 9.43 16 9.43C19.63 9.43 22.57 12.37 22.57 16C22.57 19.63 19.63 22.57 16 22.57C12.37 22.57 9.43 19.63 9.43 16Z" id="a1Ga46eadb"></path><path d="M7.32 10L7.32 16L7.32 22L3.66 19L0 16L3.66 13L7.32 10Z" id="bv6hydXSn"></path><path d="M3.75 14.5L15.75 14.5L15.75 17.5L3.75 17.5L3.75 14.5Z" id="b1V4fAezZ3"></path><path d="M3.75 14.5L15.75 14.5L15.75 17.5L3.75 17.5L3.75 14.5Z" id="cJlNUZNrj"></path></defs><g><g><g><use xlink:href="#a1Ga46eadb" opacity="1" fill="#a70000" fill-opacity="1"></use><g><use xlink:href="#a1Ga46eadb" opacity="1" fill-opacity="0" stroke="#000000" stroke-width="1" stroke-opacity="0"></use></g></g><g><use xlink:href="#bv6hydXSn" opacity="1" fill="#000000" fill-opacity="1"></use><g><use xlink:href="#bv6hydXSn" opacity="1" fill-opacity="0" stroke="#000000" stroke-width="1" stroke-opacity="0"></use></g></g><g><use xlink:href="#b1V4fAezZ3" opacity="1" fill="#000000" fill-opacity="1"></use><g><use xlink:href="#b1V4fAezZ3" opacity="1" fill-opacity="0" stroke="#000000" stroke-width="1" stroke-opacity="0"></use></g></g><g><use xlink:href="#cJlNUZNrj" opacity="1" fill="#000000" fill-opacity="0"></use><g><use xlink:href="#cJlNUZNrj" opacity="1" fill-opacity="0" stroke="#000000" stroke-width="0.5" stroke-opacity="1"></use></g></g></g></g></svg>