<?xml version="1.0" encoding="UTF-8" standalone="no"?>
<!DOCTYPE svg PUBLIC "-//W3C//DTD SVG 1.1//EN" "http://www.w3.org/Graphics/SVG/1.1/DTD/svg11.dtd">
<svg version="1.1" xmlns="http://www.w3.org/2000/svg" xmlns:xlink="http://www.w3.org/1999/xlink" preserveAspectRatio="xMidYMid meet" viewBox="0 0 48 32" width="48" height="32"><defs><path d="M24 29.15C16.74 29.15 10.85 23.26 10.85 16C10.85 8.74 16.74 2.85 24 2.85C31.26 2.85 37.15 8.74 37.15 16C37.15 23.26 31.26 29.15 24 29.15Z" id="gabHH6tR"></path><path d="M38.7 7.52L39.47 2.85L34.28 5.85L29.08 8.85L33.51 10.52L37.93 12.19L38.7 7.52Z" id="biNMQKK3T"></path><path d="M10 15.5C10 16.03 10 16.36 10 16.49C10 23.68 15.82 29.5 23.01 29.5C23.23 29.5 23.8 29.5 24.71 29.5" id="auaO4z6HW"></path><path d="M38 15.5C38 16.03 38 16.36 38 16.49C38 23.68 32.18 29.5 24.99 29.5C24.77 29.5 24.2 29.5 23.29 29.5" id="d3h2a5tROj"></path><path d="M10 16.5C10 15.97 10 15.64 10 15.51C10 8.32 15.82 2.5 23.01 2.5C23.23 2.5 23.8 2.5 24.71 2.5" id="b1fEhDCQpz"></path><path d="M24 17.5L24 14.5L39.24 14.5C39.24 15.96 39.24 16.87 39.24 17.23C39.24 17.38 39.12 17.5 38.98 17.5C36.98 17.5 31.99 17.5 24 17.5Z" id="b4AZ6KyR9h"></path><path d="M34.87 7.04C32.48 4.26 28.94 2.5 24.99 2.5C24.77 2.5 24.2 2.5 23.29 2.5" id="d1nTqAXtVZ"></path></defs><g><g><g><use xlink:href="#gabHH6tR" opacity="1" fill="#a70000" fill-opacity="1"></use><g><use xlink:href="#gabHH6tR" opacity="1" fill-opacity="0" stroke="#000000" stroke-width="1" stroke-opacity="0"></use></g></g><g><use xlink:href="#biNMQKK3T" opacity="1" fill="#000000" fill-opacity="1"></use></g><g><g><use xlink:href="#auaO4z6HW" opacity="1" fill-opacity="0" stroke="#000000" stroke-width="3" stroke-opacity="1"></use></g></g><g><g><use xlink:href="#d3h2a5tROj" opacity="1" fill-opacity="0" stroke="#000000" stroke-width="3" stroke-opacity="1"></use></g></g><g><g><use xlink:href="#b1fEhDCQpz" opacity="1" fill-opacity="0" stroke="#000000" stroke-width="3" stroke-opacity="1"></use></g></g><g><use xlink:href="#b4AZ6KyR9h" opacity="1" fill="#000000" fill-opacity="1"></use><g><use xlink:href="#b4AZ6KyR9h" opacity="1" fill-opacity="0" stroke="#000000" stroke-width="0.5" stroke-opacity="1"></use></g></g><g><g><use xlink:href="#d1nTqAXtVZ" opacity="1" fill-opacity="0" stroke="#000000" stroke-width="3" stroke-opacity="1"></use></g></g></g></g></svg>