<?xml version="1.0" encoding="UTF-8" standalone="no"?>
<!DOCTYPE svg PUBLIC "-//W3C//DTD SVG 1.1//EN" "http://www.w3.org/Graphics/SVG/1.1/DTD/svg11.dtd">
<svg version="1.1" xmlns="http://www.w3.org/2000/svg" xmlns:xlink="http://www.w3.org/1999/xlink" preserveAspectRatio="xMidYMid meet" viewBox="0 0 32 32" width="32" height="32"><defs><path d="M9.43 16C9.43 12.37 12.37 9.43 16 9.43C19.63 9.43 22.57 12.37 22.57 16C22.57 19.63 19.63 22.57 16 22.57C12.37 22.57 9.43 19.63 9.43 16Z" id="a6PKRNbbXw"></path><path d="M26.38 14.1L22.14 9.86L17.9 5.62L22.61 5.15L27.31 4.69L26.85 9.39L26.38 14.1Z" id="anbLVPcdo"></path><path d="M25.72 8.4L17.24 16.88L15.12 14.76L23.6 6.28L25.72 8.4Z" id="a11urOo5cR"></path><path d="M25.72 8.4L17.24 16.88L15.12 14.76L23.6 6.28L25.72 8.4Z" id="dz0oJzrrb"></path></defs><g><g><g><use xlink:href="#a6PKRNbbXw" opacity="1" fill="#a70000" fill-opacity="1"></use><g><use xlink:href="#a6PKRNbbXw" opacity="1" fill-opacity="0" stroke="#000000" stroke-width="1" stroke-opacity="0"></use></g></g><g><use xlink:href="#anbLVPcdo" opacity="1" fill="#a2a2a2" fill-opacity="1"></use><g><use xlink:href="#anbLVPcdo" opacity="1" fill-opacity="0" stroke="#000000" stroke-width="1" stroke-opacity="0"></use></g></g><g><use xlink:href="#a11urOo5cR" opacity="1" fill="#a2a2a2" fill-opacity="1"></use><g><use xlink:href="#a11urOo5cR" opacity="1" fill-opacity="0" stroke="#000000" stroke-width="1" stroke-opacity="0"></use></g></g><g><use xlink:href="#dz0oJzrrb" opacity="1" fill="#000000" fill-opacity="0"></use><g><use xlink:href="#dz0oJzrrb" opacity="1" fill-opacity="0" stroke="#a2a2a2" stroke-width="0.5" stroke-opacity="1"></use></g></g></g></g></svg>