<?xml version="1.0" encoding="UTF-8" standalone="no"?>
<!DOCTYPE svg PUBLIC "-//W3C//DTD SVG 1.1//EN" "http://www.w3.org/Graphics/SVG/1.1/DTD/svg11.dtd">
<svg version="1.1" xmlns="http://www.w3.org/2000/svg" xmlns:xlink="http://www.w3.org/1999/xlink" preserveAspectRatio="xMidYMid meet" viewBox="0 0 32 32" width="32" height="32"><defs><path d="M29.7 16C29.7 19.63 26.76 22.57 23.13 22.57C19.5 22.57 16.56 19.63 16.56 16C16.56 12.37 19.5 9.43 23.13 9.43C26.76 9.43 29.7 12.37 29.7 16Z" id="edwc3uSck"></path><path d="M29.7 16C29.7 19.63 26.76 22.57 23.13 22.57C19.5 22.57 16.56 19.63 16.56 16C16.56 12.37 19.5 9.43 23.13 9.43C26.76 9.43 29.7 12.37 29.7 16Z" id="bQaYSm9a"></path><path d="M29.7 16C29.7 19.63 26.76 22.57 23.13 22.57C19.5 22.57 16.56 19.63 16.56 16C16.56 12.37 19.5 9.43 23.13 9.43C26.76 9.43 29.7 12.37 29.7 16Z" id="b1bJSdtvp"></path><path d="M29.7 16C29.7 19.63 26.76 22.57 23.13 22.57C19.5 22.57 16.56 19.63 16.56 16C16.56 12.37 19.5 9.43 23.13 9.43C26.76 9.43 29.7 12.37 29.7 16Z" id="bBQ95Ymln"></path><path d="M5.97 29L2.31 26L5.97 23L9.63 20L9.63 26L9.63 32L5.97 29Z" id="bS472ILZ"></path><path d="M5.97 29L2.31 26L5.97 23L9.63 20L9.63 26L9.63 32L5.97 29Z" id="i3nVWgmOs7"></path><path d="M5.97 29L2.31 26L5.97 23L9.63 20L9.63 26L9.63 32L5.97 29Z" id="b1IcZeiNvO"></path><path d="M5.97 29L2.31 26L5.97 23L9.63 20L9.63 26L9.63 32L5.97 29Z" id="d1MKXxZt5X"></path><path d="M5.97 29L2.31 26L5.97 23L9.63 20L9.63 26L9.63 32L5.97 29Z" id="b4W4mSmPqR"></path><path d="M5.97 29L2.31 26L5.97 23L9.63 20L9.63 26L9.63 32L5.97 29Z" id="bzcvbckuq"></path><path d="M5.97 29L2.31 26L5.97 23L9.63 20L9.63 26L9.63 32L5.97 29Z" id="atxTzpTB4"></path><path d="M5.97 29L2.31 26L5.97 23L9.63 20L9.63 26L9.63 32L5.97 29Z" id="a3D4HRMtVG"></path><path d="M9.63 26L21.63 26L9.63 16L24.63 16" id="a2G0DeNVjh"></path><path d="M9.63 26L21.63 26L9.63 16L24.63 16" id="b1J5VUuz19"></path><path d="M9.63 26L21.63 26L9.63 16L23.13 16" id="c8CrKAB6"></path><path d="M9.63 26L21.63 26L9.63 16L23.13 16" id="cjXwrseug"></path></defs><g><g><g><use xlink:href="#edwc3uSck" opacity="1" fill="#a70000" fill-opacity="1"></use><g><use xlink:href="#edwc3uSck" opacity="1" fill-opacity="0" stroke="#000000" stroke-width="1" stroke-opacity="0"></use></g></g><g><use xlink:href="#bQaYSm9a" opacity="1" fill="#000000" fill-opacity="0"></use><g><use xlink:href="#bQaYSm9a" opacity="1" fill-opacity="0" stroke="#000000" stroke-width="1" stroke-opacity="0"></use></g></g><g><use xlink:href="#b1bJSdtvp" opacity="1" fill="#000000" fill-opacity="0"></use><g><use xlink:href="#b1bJSdtvp" opacity="1" fill-opacity="0" stroke="#000000" stroke-width="1" stroke-opacity="0"></use></g></g><g><use xlink:href="#bBQ95Ymln" opacity="1" fill="#000000" fill-opacity="0"></use><g><use xlink:href="#bBQ95Ymln" opacity="1" fill-opacity="0" stroke="#000000" stroke-width="1" stroke-opacity="0"></use></g></g><g><use xlink:href="#bS472ILZ" opacity="1" fill="#000000" fill-opacity="1"></use><g><use xlink:href="#bS472ILZ" opacity="1" fill-opacity="0" stroke="#000000" stroke-width="1" stroke-opacity="0"></use></g></g><g><use xlink:href="#i3nVWgmOs7" opacity="1" fill="#000000" fill-opacity="0"></use><g><use xlink:href="#i3nVWgmOs7" opacity="1" fill-opacity="0" stroke="#000000" stroke-width="1" stroke-opacity="0"></use></g></g><g><use xlink:href="#b1IcZeiNvO" opacity="1" fill="#000000" fill-opacity="0"></use><g><use xlink:href="#b1IcZeiNvO" opacity="1" fill-opacity="0" stroke="#000000" stroke-width="1" stroke-opacity="0"></use></g></g><g><use xlink:href="#d1MKXxZt5X" opacity="1" fill="#000000" fill-opacity="0"></use><g><use xlink:href="#d1MKXxZt5X" opacity="1" fill-opacity="0" stroke="#000000" stroke-width="1" stroke-opacity="0"></use></g></g><g><use xlink:href="#b4W4mSmPqR" opacity="1" fill="#000000" fill-opacity="0"></use><g><use xlink:href="#b4W4mSmPqR" opacity="1" fill-opacity="0" stroke="#000000" stroke-width="1" stroke-opacity="0"></use></g></g><g><use xlink:href="#bzcvbckuq" opacity="1" fill="#000000" fill-opacity="0"></use><g><use xlink:href="#bzcvbckuq" opacity="1" fill-opacity="0" stroke="#000000" stroke-width="1" stroke-opacity="0"></use></g></g><g><use xlink:href="#atxTzpTB4" opacity="1" fill="#000000" fill-opacity="0"></use><g><use xlink:href="#atxTzpTB4" opacity="1" fill-opacity="0" stroke="#000000" stroke-width="1" stroke-opacity="0"></use></g></g><g><use xlink:href="#a3D4HRMtVG" opacity="1" fill="#000000" fill-opacity="0"></use><g><use xlink:href="#a3D4HRMtVG" opacity="1" fill-opacity="0" stroke="#000000" stroke-width="1" stroke-opacity="0"></use></g></g><g><use xlink:href="#a2G0DeNVjh" opacity="1" fill="#000000" fill-opacity="0"></use><g><use xlink:href="#a2G0DeNVjh" opacity="1" fill-opacity="0" stroke="#000000" stroke-width="1" stroke-opacity="0"></use></g></g><g><use xlink:href="#b1J5VUuz19" opacity="1" fill="#000000" fill-opacity="0"></use><g><use xlink:href="#b1J5VUuz19" opacity="1" fill-opacity="0" stroke="#000000" stroke-width="1" stroke-opacity="0"></use></g></g><g><use xlink:href="#c8CrKAB6" opacity="1" fill="#000000" fill-opacity="0"></use><g><use xlink:href="#c8CrKAB6" opacity="1" fill-opacity="0" stroke="#000000" stroke-width="1" stroke-opacity="0"></use></g></g><g><use xlink:href="#cjXwrseug" opacity="1" fill="#000000" fill-opacity="0"></use><g><use xlink:href="#cjXwrseug" opacity="1" fill-opacity="0" stroke="#000000" stroke-width="3.5" stroke-opacity="1"></use></g></g></g></g></svg>