<?xml version="1.0" encoding="UTF-8" standalone="no"?>
<!DOCTYPE svg PUBLIC "-//W3C//DTD SVG 1.1//EN" "http://www.w3.org/Graphics/SVG/1.1/DTD/svg11.dtd">
<svg version="1.1" xmlns="http://www.w3.org/2000/svg" xmlns:xlink="http://www.w3.org/1999/xlink" preserveAspectRatio="xMidYMid meet" viewBox="0 0 32 32" width="32" height="32"><defs><path d="M2.3 16C2.3 19.63 5.25 22.57 8.88 22.57C12.51 22.57 15.45 19.63 15.45 16C15.45 12.37 12.51 9.43 8.88 9.43C5.25 9.43 2.3 12.37 2.3 16Z" id="bDCbZ7n9"></path><path d="M2.3 16C2.3 19.63 5.25 22.57 8.88 22.57C12.51 22.57 15.45 19.63 15.45 16C15.45 12.37 12.51 9.43 8.88 9.43C5.25 9.43 2.3 12.37 2.3 16Z" id="c3nulthHZw"></path><path d="M2.3 16C2.3 19.63 5.25 22.57 8.88 22.57C12.51 22.57 15.45 19.63 15.45 16C15.45 12.37 12.51 9.43 8.88 9.43C5.25 9.43 2.3 12.37 2.3 16Z" id="ahPbcghR3"></path><path d="M2.3 16C2.3 19.63 5.25 22.57 8.88 22.57C12.51 22.57 15.45 19.63 15.45 16C15.45 12.37 12.51 9.43 8.88 9.43C5.25 9.43 2.3 12.37 2.3 16Z" id="c1344STxDf"></path><path d="M26.04 29L29.7 26L26.04 23L22.38 20L22.38 26L22.38 32L26.04 29Z" id="c2Y7B3s8Mv"></path><path d="M26.04 29L29.7 26L26.04 23L22.38 20L22.38 26L22.38 32L26.04 29Z" id="adhKuI3PF"></path><path d="M26.04 29L29.7 26L26.04 23L22.38 20L22.38 26L22.38 32L26.04 29Z" id="a6jwEK1cQ"></path><path d="M26.04 29L29.7 26L26.04 23L22.38 20L22.38 26L22.38 32L26.04 29Z" id="c4Rb3iJp4"></path><path d="M26.04 29L29.7 26L26.04 23L22.38 20L22.38 26L22.38 32L26.04 29Z" id="b2PAzhDM8K"></path><path d="M26.04 29L29.7 26L26.04 23L22.38 20L22.38 26L22.38 32L26.04 29Z" id="b4px9KbY4"></path><path d="M26.04 29L29.7 26L26.04 23L22.38 20L22.38 26L22.38 32L26.04 29Z" id="bNaAQTAFN"></path><path d="M26.04 29L29.7 26L26.04 23L22.38 20L22.38 26L22.38 32L26.04 29Z" id="c2XazjLGKS"></path><path d="M22.38 26L10.38 26L22.38 16L7.38 16" id="a25u38xoxJ"></path><path d="M22.38 26L10.38 26L22.38 16L7.38 16" id="a1WX6eKsb3"></path><path d="M22.38 26L10.38 26L22.38 16L8.88 16" id="b1mVrbNYvk"></path><path d="M22.38 26L10.38 26L22.38 16L8.88 16" id="c1ZE69HNdG"></path></defs><g><g><g><use xlink:href="#bDCbZ7n9" opacity="1" fill="#a70000" fill-opacity="1"></use><g><use xlink:href="#bDCbZ7n9" opacity="1" fill-opacity="0" stroke="#000000" stroke-width="1" stroke-opacity="0"></use></g></g><g><use xlink:href="#c3nulthHZw" opacity="1" fill="#000000" fill-opacity="0"></use><g><use xlink:href="#c3nulthHZw" opacity="1" fill-opacity="0" stroke="#000000" stroke-width="1" stroke-opacity="0"></use></g></g><g><use xlink:href="#ahPbcghR3" opacity="1" fill="#000000" fill-opacity="0"></use><g><use xlink:href="#ahPbcghR3" opacity="1" fill-opacity="0" stroke="#000000" stroke-width="1" stroke-opacity="0"></use></g></g><g><use xlink:href="#c1344STxDf" opacity="1" fill="#000000" fill-opacity="0"></use><g><use xlink:href="#c1344STxDf" opacity="1" fill-opacity="0" stroke="#000000" stroke-width="1" stroke-opacity="0"></use></g></g><g><use xlink:href="#c2Y7B3s8Mv" opacity="1" fill="#000000" fill-opacity="1"></use><g><use xlink:href="#c2Y7B3s8Mv" opacity="1" fill-opacity="0" stroke="#000000" stroke-width="1" stroke-opacity="0"></use></g></g><g><use xlink:href="#adhKuI3PF" opacity="1" fill="#000000" fill-opacity="0"></use><g><use xlink:href="#adhKuI3PF" opacity="1" fill-opacity="0" stroke="#000000" stroke-width="1" stroke-opacity="0"></use></g></g><g><use xlink:href="#a6jwEK1cQ" opacity="1" fill="#000000" fill-opacity="0"></use><g><use xlink:href="#a6jwEK1cQ" opacity="1" fill-opacity="0" stroke="#000000" stroke-width="1" stroke-opacity="0"></use></g></g><g><use xlink:href="#c4Rb3iJp4" opacity="1" fill="#000000" fill-opacity="0"></use><g><use xlink:href="#c4Rb3iJp4" opacity="1" fill-opacity="0" stroke="#000000" stroke-width="1" stroke-opacity="0"></use></g></g><g><use xlink:href="#b2PAzhDM8K" opacity="1" fill="#000000" fill-opacity="0"></use><g><use xlink:href="#b2PAzhDM8K" opacity="1" fill-opacity="0" stroke="#000000" stroke-width="1" stroke-opacity="0"></use></g></g><g><use xlink:href="#b4px9KbY4" opacity="1" fill="#000000" fill-opacity="0"></use><g><use xlink:href="#b4px9KbY4" opacity="1" fill-opacity="0" stroke="#000000" stroke-width="1" stroke-opacity="0"></use></g></g><g><use xlink:href="#bNaAQTAFN" opacity="1" fill="#000000" fill-opacity="0"></use><g><use xlink:href="#bNaAQTAFN" opacity="1" fill-opacity="0" stroke="#000000" stroke-width="1" stroke-opacity="0"></use></g></g><g><use xlink:href="#c2XazjLGKS" opacity="1" fill="#000000" fill-opacity="0"></use><g><use xlink:href="#c2XazjLGKS" opacity="1" fill-opacity="0" stroke="#000000" stroke-width="1" stroke-opacity="0"></use></g></g><g><use xlink:href="#a25u38xoxJ" opacity="1" fill="#000000" fill-opacity="0"></use><g><use xlink:href="#a25u38xoxJ" opacity="1" fill-opacity="0" stroke="#000000" stroke-width="1" stroke-opacity="0"></use></g></g><g><use xlink:href="#a1WX6eKsb3" opacity="1" fill="#000000" fill-opacity="0"></use><g><use xlink:href="#a1WX6eKsb3" opacity="1" fill-opacity="0" stroke="#000000" stroke-width="1" stroke-opacity="0"></use></g></g><g><use xlink:href="#b1mVrbNYvk" opacity="1" fill="#000000" fill-opacity="0"></use><g><use xlink:href="#b1mVrbNYvk" opacity="1" fill-opacity="0" stroke="#000000" stroke-width="1" stroke-opacity="0"></use></g></g><g><use xlink:href="#c1ZE69HNdG" opacity="1" fill="#000000" fill-opacity="0"></use><g><use xlink:href="#c1ZE69HNdG" opacity="1" fill-opacity="0" stroke="#000000" stroke-width="3.5" stroke-opacity="1"></use></g></g></g></g></svg>