<?xml version="1.0" encoding="UTF-8" standalone="no"?>
<!DOCTYPE svg PUBLIC "-//W3C//DTD SVG 1.1//EN" "http://www.w3.org/Graphics/SVG/1.1/DTD/svg11.dtd">
<svg version="1.1" xmlns="http://www.w3.org/2000/svg" xmlns:xlink="http://www.w3.org/1999/xlink" preserveAspectRatio="xMidYMid meet" viewBox="0 0 32 32" width="32" height="32"><defs><path d="M22.47 9.34C18.84 9.34 15.9 12.28 15.9 15.92C15.9 19.54 18.84 22.49 22.47 22.49C26.1 22.49 29.04 19.54 29.04 15.92C29.04 12.28 26.1 9.34 22.47 9.34Z" id="aF8Fa57bK"></path><path d="M14.97 17.58L8.97 17.58L2.97 17.58L5.97 13.92L8.97 10.26L11.97 13.92L14.97 17.58Z" id="b3kNRufG"></path><path d="M8.47 15.42C8.47 15.95 8.47 16.27 8.47 16.4C8.47 23.6 14.29 29.42 21.48 29.42C21.7 29.42 22.27 29.42 23.18 29.42" id="m3DooYKfH1"></path><path d="M20.97 15.92L20.97 30.65L23.97 30.65L23.97 15.92L20.97 15.92Z" id="g4eAodIul"></path><path d="M20.97 15.92L20.97 30.65L23.97 30.65L23.97 15.92L20.97 15.92Z" id="d56hm9AjWK"></path></defs><g><g><g><use xlink:href="#aF8Fa57bK" opacity="1" fill="#a70000" fill-opacity="1"></use><g><use xlink:href="#aF8Fa57bK" opacity="1" fill-opacity="0" stroke="#000000" stroke-width="1" stroke-opacity="0"></use></g></g><g><use xlink:href="#b3kNRufG" opacity="1" fill="#000000" fill-opacity="1"></use><g><use xlink:href="#b3kNRufG" opacity="1" fill-opacity="0" stroke="#000000" stroke-width="1" stroke-opacity="0"></use></g></g><g><use xlink:href="#m3DooYKfH1" opacity="1" fill="#000000" fill-opacity="0"></use><g><use xlink:href="#m3DooYKfH1" opacity="1" fill-opacity="0" stroke="#000000" stroke-width="3" stroke-opacity="1"></use></g></g><g><use xlink:href="#g4eAodIul" opacity="1" fill="#000000" fill-opacity="1"></use><g><use xlink:href="#g4eAodIul" opacity="1" fill-opacity="0" stroke="#000000" stroke-width="1" stroke-opacity="0"></use></g></g><g><use xlink:href="#d56hm9AjWK" opacity="1" fill="#000000" fill-opacity="0"></use><g><use xlink:href="#d56hm9AjWK" opacity="1" fill-opacity="0" stroke="#000000" stroke-width="0.5" stroke-opacity="1"></use></g></g></g></g></svg>