<?xml version="1.0" encoding="UTF-8" standalone="no"?>
<!DOCTYPE svg PUBLIC "-//W3C//DTD SVG 1.1//EN" "http://www.w3.org/Graphics/SVG/1.1/DTD/svg11.dtd">
<svg version="1.1" xmlns="http://www.w3.org/2000/svg" xmlns:xlink="http://www.w3.org/1999/xlink" preserveAspectRatio="xMidYMid meet" viewBox="0 0 48 32" width="48" height="32"><defs><path d="M17.43 16C17.43 12.37 20.37 9.43 24 9.43C27.63 9.43 30.57 12.37 30.57 16C30.57 19.63 27.63 22.57 24 22.57C20.37 22.57 17.43 19.63 17.43 16Z" id="a11QYU3Q6F"></path><path d="M4.5 17.66L10.5 17.66L16.5 17.66L13.5 14L10.5 10.34L7.5 14L4.5 17.66Z" id="b6D9hUVTD"></path><path d="M10 15.5C10 16.03 10 16.36 10 16.49C10 23.68 15.82 29.5 23.01 29.5C23.23 29.5 23.8 29.5 24.71 29.5" id="criYMmT2s"></path><path d="M38 15.5C38 16.03 38 16.36 38 16.49C38 23.68 32.18 29.5 24.99 29.5C24.77 29.5 24.2 29.5 23.29 29.5" id="f15XQmKQ7I"></path><path d="M24 14.5C33.14 14.5 38.22 14.5 39.24 14.5C39.24 15.96 39.24 16.87 39.24 17.23C39.24 17.38 39.12 17.5 38.98 17.5C36.98 17.5 31.99 17.5 24 17.5C24 17.1 24 16.1 24 14.5Z" id="bS2y6BZVr"></path><path d="M24 14.5C33.14 14.5 38.22 14.5 39.24 14.5C39.24 15.96 39.24 16.87 39.24 17.23C39.24 17.38 39.12 17.5 38.98 17.5C36.98 17.5 31.99 17.5 24 17.5C24 17.1 24 16.1 24 14.5Z" id="crAVmHTj7"></path></defs><g><g><g><use xlink:href="#a11QYU3Q6F" opacity="1" fill="#a70000" fill-opacity="1"></use><g><use xlink:href="#a11QYU3Q6F" opacity="1" fill-opacity="0" stroke="#000000" stroke-width="1" stroke-opacity="0"></use></g></g><g><use xlink:href="#b6D9hUVTD" opacity="1" fill="#000000" fill-opacity="1"></use><g><use xlink:href="#b6D9hUVTD" opacity="1" fill-opacity="0" stroke="#000000" stroke-width="1" stroke-opacity="0"></use></g></g><g><use xlink:href="#criYMmT2s" opacity="1" fill="#000000" fill-opacity="0"></use><g><use xlink:href="#criYMmT2s" opacity="1" fill-opacity="0" stroke="#000000" stroke-width="3" stroke-opacity="1"></use></g></g><g><use xlink:href="#f15XQmKQ7I" opacity="1" fill="#000000" fill-opacity="0"></use><g><use xlink:href="#f15XQmKQ7I" opacity="1" fill-opacity="0" stroke="#000000" stroke-width="3" stroke-opacity="1"></use></g></g><g><use xlink:href="#bS2y6BZVr" opacity="1" fill="#000000" fill-opacity="1"></use><g><use xlink:href="#bS2y6BZVr" opacity="1" fill-opacity="0" stroke="#000000" stroke-width="1" stroke-opacity="0"></use></g></g><g><use xlink:href="#crAVmHTj7" opacity="1" fill="#000000" fill-opacity="0"></use><g><use xlink:href="#crAVmHTj7" opacity="1" fill-opacity="0" stroke="#000000" stroke-width="0.5" stroke-opacity="1"></use></g></g></g></g></svg>