<?xml version="1.0" encoding="UTF-8" standalone="no"?>
<!DOCTYPE svg PUBLIC "-//W3C//DTD SVG 1.1//EN" "http://www.w3.org/Graphics/SVG/1.1/DTD/svg11.dtd">
<svg version="1.1" xmlns="http://www.w3.org/2000/svg" xmlns:xlink="http://www.w3.org/1999/xlink" preserveAspectRatio="xMidYMid meet" viewBox="0 0 32 32" width="32" height="32"><defs><path d="M9.43 16C9.43 12.37 12.37 9.43 16 9.43C19.63 9.43 22.57 12.37 22.57 16C22.57 19.63 19.63 22.57 16 22.57C12.37 22.57 9.43 19.63 9.43 16Z" id="iHGCeQ4D2"></path><path d="M14.1 5.62L9.86 9.86L5.62 14.1L5.15 9.39L4.69 4.69L9.39 5.15L14.1 5.62Z" id="bLnKlNgyU"></path><path d="M8.4 6.28L16.88 14.76L14.76 16.88L6.28 8.4L8.4 6.28Z" id="c37j1xKo1"></path><path d="M8.4 6.28L16.88 14.76L14.76 16.88L6.28 8.4L8.4 6.28Z" id="cnBJvHIV0"></path></defs><g><g><g><use xlink:href="#iHGCeQ4D2" opacity="1" fill="#a70000" fill-opacity="1"></use><g><use xlink:href="#iHGCeQ4D2" opacity="1" fill-opacity="0" stroke="#000000" stroke-width="1" stroke-opacity="0"></use></g></g><g><use xlink:href="#bLnKlNgyU" opacity="1" fill="#a2a2a2" fill-opacity="1"></use><g><use xlink:href="#bLnKlNgyU" opacity="1" fill-opacity="0" stroke="#000000" stroke-width="1" stroke-opacity="0"></use></g></g><g><use xlink:href="#c37j1xKo1" opacity="1" fill="#a2a2a2" fill-opacity="1"></use><g><use xlink:href="#c37j1xKo1" opacity="1" fill-opacity="0" stroke="#000000" stroke-width="1" stroke-opacity="0"></use></g></g><g><use xlink:href="#cnBJvHIV0" opacity="1" fill="#000000" fill-opacity="0"></use><g><use xlink:href="#cnBJvHIV0" opacity="1" fill-opacity="0" stroke="#a2a2a2" stroke-width="0.5" stroke-opacity="1"></use></g></g></g></g></svg>