<?xml version="1.0" encoding="UTF-8" standalone="no"?>
<!DOCTYPE svg PUBLIC "-//W3C//DTD SVG 1.1//EN" "http://www.w3.org/Graphics/SVG/1.1/DTD/svg11.dtd">
<svg version="1.1" xmlns="http://www.w3.org/2000/svg" xmlns:xlink="http://www.w3.org/1999/xlink" preserveAspectRatio="xMidYMid meet" viewBox="0 0 32 32" width="32" height="32"><defs><path d="M9.43 16C9.43 12.37 12.37 9.43 16 9.43C19.63 9.43 22.57 12.37 22.57 16C22.57 19.63 19.63 22.57 16 22.57C12.37 22.57 9.43 19.63 9.43 16Z" id="h1rfBL3Ffo"></path><path d="M22 24.68L16 24.68L10 24.68L13 28.34L16 32L19 28.34L22 24.68Z" id="bnInOeiAU"></path><path d="M17.5 28.25L17.5 16.25L14.5 16.25L14.5 28.25L17.5 28.25Z" id="aHNhdlowH"></path><path d="M17.5 28.25L17.5 16.25L14.5 16.25L14.5 28.25L17.5 28.25Z" id="a48px9wvQg"></path></defs><g><g><g><use xlink:href="#h1rfBL3Ffo" opacity="1" fill="#a70000" fill-opacity="1"></use><g><use xlink:href="#h1rfBL3Ffo" opacity="1" fill-opacity="0" stroke="#000000" stroke-width="1" stroke-opacity="0"></use></g></g><g><use xlink:href="#bnInOeiAU" opacity="1" fill="#a2a2a2" fill-opacity="1"></use><g><use xlink:href="#bnInOeiAU" opacity="1" fill-opacity="0" stroke="#000000" stroke-width="1" stroke-opacity="0"></use></g></g><g><use xlink:href="#aHNhdlowH" opacity="1" fill="#a2a2a2" fill-opacity="1"></use><g><use xlink:href="#aHNhdlowH" opacity="1" fill-opacity="0" stroke="#000000" stroke-width="1" stroke-opacity="0"></use></g></g><g><use xlink:href="#a48px9wvQg" opacity="1" fill="#000000" fill-opacity="0"></use><g><use xlink:href="#a48px9wvQg" opacity="1" fill-opacity="0" stroke="#a2a2a2" stroke-width="0.5" stroke-opacity="1"></use></g></g></g></g></svg>