<?xml version="1.0" encoding="UTF-8" standalone="no"?>
<!DOCTYPE svg PUBLIC "-//W3C//DTD SVG 1.1//EN" "http://www.w3.org/Graphics/SVG/1.1/DTD/svg11.dtd">
<svg version="1.1" xmlns="http://www.w3.org/2000/svg" xmlns:xlink="http://www.w3.org/1999/xlink" preserveAspectRatio="xMidYMid meet" viewBox="0 0 32 32" width="32" height="32"><defs><path d="M9.43 16C9.43 12.37 12.37 9.43 16 9.43C19.63 9.43 22.57 12.37 22.57 16C22.57 19.63 19.63 22.57 16 22.57C12.37 22.57 9.43 19.63 9.43 16Z" id="bsSUOkq7V"></path><path d="M24.68 10L24.68 16L24.68 22L28.34 19L32 16L28.34 13L24.68 10Z" id="egQ9yxbsd"></path><path d="M28.25 14.5L16.25 14.5L16.25 17.5L28.25 17.5L28.25 14.5Z" id="c2w1IgHM2t"></path><path d="M28.25 14.5L16.25 14.5L16.25 17.5L28.25 17.5L28.25 14.5Z" id="b3tOIP46d"></path></defs><g><g><g><use xlink:href="#bsSUOkq7V" opacity="1" fill="#a70000" fill-opacity="1"></use><g><use xlink:href="#bsSUOkq7V" opacity="1" fill-opacity="0" stroke="#000000" stroke-width="1" stroke-opacity="0"></use></g></g><g><use xlink:href="#egQ9yxbsd" opacity="1" fill="#000000" fill-opacity="1"></use><g><use xlink:href="#egQ9yxbsd" opacity="1" fill-opacity="0" stroke="#000000" stroke-width="1" stroke-opacity="0"></use></g></g><g><use xlink:href="#c2w1IgHM2t" opacity="1" fill="#000000" fill-opacity="1"></use><g><use xlink:href="#c2w1IgHM2t" opacity="1" fill-opacity="0" stroke="#000000" stroke-width="1" stroke-opacity="0"></use></g></g><g><use xlink:href="#b3tOIP46d" opacity="1" fill="#000000" fill-opacity="0"></use><g><use xlink:href="#b3tOIP46d" opacity="1" fill-opacity="0" stroke="#000000" stroke-width="0.5" stroke-opacity="1"></use></g></g></g></g></svg>