<?xml version="1.0" encoding="UTF-8" standalone="no"?>
<!DOCTYPE svg PUBLIC "-//W3C//DTD SVG 1.1//EN" "http://www.w3.org/Graphics/SVG/1.1/DTD/svg11.dtd">
<svg version="1.1" xmlns="http://www.w3.org/2000/svg" xmlns:xlink="http://www.w3.org/1999/xlink" preserveAspectRatio="xMidYMid meet" viewBox="0 0 48 32" width="48" height="32"><defs><path d="M17.43 16C17.43 12.37 20.37 9.43 24 9.43C27.63 9.43 30.57 12.37 30.57 16C30.57 19.63 27.63 22.57 24 22.57C20.37 22.57 17.43 19.63 17.43 16Z" id="e5TGp4gRFn"></path><path d="M31.5 18L37.5 18L43.5 18L40.5 14.34L37.5 10.68L34.5 14.34L31.5 18Z" id="g1aUlAHWyl"></path><path d="M10 15.5C10 16.03 10 16.36 10 16.49C10 23.68 15.82 29.5 23.01 29.5C23.23 29.5 23.8 29.5 24.71 29.5" id="a1S0gwLQW2"></path><path d="M38 15.5C38 16.03 38 16.36 38 16.49C38 23.68 32.18 29.5 24.99 29.5C24.77 29.5 24.2 29.5 23.29 29.5" id="a51UffKOM5"></path><path d="M24 14.5C24 16.3 24 17.3 24 17.5C16.11 17.5 11.17 17.5 9.2 17.5C8.96 17.5 8.76 17.3 8.76 17.06C8.76 16.72 8.76 15.86 8.76 14.5C10.79 14.5 15.87 14.5 24 14.5Z" id="aET55qnXM"></path><path d="M24 14.5C24 16.3 24 17.3 24 17.5C16.11 17.5 11.17 17.5 9.2 17.5C8.96 17.5 8.76 17.3 8.76 17.06C8.76 16.72 8.76 15.86 8.76 14.5C10.79 14.5 15.87 14.5 24 14.5Z" id="g18Y7Q0wuZ"></path></defs><g><g><g><use xlink:href="#e5TGp4gRFn" opacity="1" fill="#a70000" fill-opacity="1"></use><g><use xlink:href="#e5TGp4gRFn" opacity="1" fill-opacity="0" stroke="#000000" stroke-width="1" stroke-opacity="0"></use></g></g><g><use xlink:href="#g1aUlAHWyl" opacity="1" fill="#000000" fill-opacity="1"></use><g><use xlink:href="#g1aUlAHWyl" opacity="1" fill-opacity="0" stroke="#000000" stroke-width="1" stroke-opacity="0"></use></g></g><g><use xlink:href="#a1S0gwLQW2" opacity="1" fill="#000000" fill-opacity="0"></use><g><use xlink:href="#a1S0gwLQW2" opacity="1" fill-opacity="0" stroke="#000000" stroke-width="3" stroke-opacity="1"></use></g></g><g><use xlink:href="#a51UffKOM5" opacity="1" fill="#000000" fill-opacity="0"></use><g><use xlink:href="#a51UffKOM5" opacity="1" fill-opacity="0" stroke="#000000" stroke-width="3" stroke-opacity="1"></use></g></g><g><use xlink:href="#aET55qnXM" opacity="1" fill="#000000" fill-opacity="1"></use><g><use xlink:href="#aET55qnXM" opacity="1" fill-opacity="0" stroke="#000000" stroke-width="1" stroke-opacity="0"></use></g></g><g><use xlink:href="#g18Y7Q0wuZ" opacity="1" fill="#000000" fill-opacity="0"></use><g><use xlink:href="#g18Y7Q0wuZ" opacity="1" fill-opacity="0" stroke="#000000" stroke-width="0.5" stroke-opacity="1"></use></g></g></g></g></svg>