<?xml version="1.0" encoding="UTF-8" standalone="no"?>
<!DOCTYPE svg PUBLIC "-//W3C//DTD SVG 1.1//EN" "http://www.w3.org/Graphics/SVG/1.1/DTD/svg11.dtd">
<svg version="1.1" xmlns="http://www.w3.org/2000/svg" xmlns:xlink="http://www.w3.org/1999/xlink" preserveAspectRatio="xMidYMid meet" viewBox="0 0 32 32" width="32" height="32"><defs><path d="M24.83 16C24.83 20.87 20.87 24.83 16 24.83C11.13 24.83 7.17 20.87 7.17 16C7.17 11.13 11.13 7.17 16 7.17C20.87 7.17 24.83 11.13 24.83 16Z" id="a54iOgf2CB"></path><path d="M3.15 12.3L2.17 10L5.09 10.71L8 11.42L6.07 13.01L4.14 14.6L3.15 12.3Z" id="b3RlIBY6Tb"></path><path d="" id="d197X4Msvg"></path><path d="" id="eJxodsHja"></path><path d="" id="f1bYLt2yfW"></path><path d="M28 16C28.01 25.15 19.57 28.08 16 28" id="dCprnSdt4"></path><path d="" id="cDvjIzvUH"></path><path d="M16 28C6.85 28 3.92 19.57 4 16" id="c1U0UAKmT1"></path><path d="M3 16L16 16" id="a14yGTY9f0"></path><path d="M4.99 11.03C7.32 5.75 13.18 3.94 16 4" id="hLD2KbcFE"></path><path d="M16 4C25.15 3.99 28.08 12.43 28 16" id="c5DfVeMUf"></path></defs><g><g><g><use xlink:href="#a54iOgf2CB" opacity="1" fill="#a70000" fill-opacity="1"></use></g><g><use xlink:href="#b3RlIBY6Tb" opacity="1" fill="#000000" fill-opacity="1"></use></g><g><g><use xlink:href="#d197X4Msvg" opacity="1" fill-opacity="0" stroke="#000000" stroke-width="3" stroke-opacity="1"></use></g></g><g><g><use xlink:href="#eJxodsHja" opacity="1" fill-opacity="0" stroke="#000000" stroke-width="2" stroke-opacity="1"></use></g></g><g><g><use xlink:href="#f1bYLt2yfW" opacity="1" fill-opacity="0" stroke="#1a0303" stroke-width="2" stroke-opacity="1"></use></g></g><g><g><use xlink:href="#dCprnSdt4" opacity="1" fill-opacity="0" stroke="#000000" stroke-width="2" stroke-opacity="1"></use></g></g><g><g><use xlink:href="#cDvjIzvUH" opacity="1" fill-opacity="0" stroke="#c918c2" stroke-width="2" stroke-opacity="1"></use></g></g><g><g><use xlink:href="#c1U0UAKmT1" opacity="1" fill-opacity="0" stroke="#000000" stroke-width="2" stroke-opacity="1"></use></g></g><g><g><use xlink:href="#a14yGTY9f0" opacity="1" fill-opacity="0" stroke="#000000" stroke-width="2" stroke-opacity="1"></use></g></g><g><g><use xlink:href="#hLD2KbcFE" opacity="1" fill-opacity="0" stroke="#000000" stroke-width="2" stroke-opacity="1"></use></g></g><g><g><use xlink:href="#c5DfVeMUf" opacity="1" fill-opacity="0" stroke="#000000" stroke-width="2" stroke-opacity="1"></use></g></g></g></g></svg>