<?xml version="1.0" encoding="UTF-8" standalone="no"?>
<!DOCTYPE svg PUBLIC "-//W3C//DTD SVG 1.1//EN" "http://www.w3.org/Graphics/SVG/1.1/DTD/svg11.dtd">
<svg version="1.1" xmlns="http://www.w3.org/2000/svg" xmlns:xlink="http://www.w3.org/1999/xlink" preserveAspectRatio="xMidYMid meet" viewBox="0 0 32 32" width="32" height="32"><defs><path d="M16.53 9.93C20.16 9.93 23.1 12.87 23.1 16.5C23.1 20.13 20.16 23.07 16.53 23.07C12.9 23.07 9.96 20.13 9.96 16.5C9.96 12.87 12.9 9.93 16.53 9.93Z" id="b34ymTTRSn"></path><path d="M26.81 6.35L21.61 9.35L26.04 11.02L30.46 12.69L31.23 8.02L32 3.35L26.81 6.35Z" id="ahh2Ytpb3"></path><path d="M26.81 6.35L21.61 9.35L26.04 11.02L30.46 12.69L31.23 8.02L32 3.35L26.81 6.35Z" id="bvXEUF20M"></path><path d="M2.53 16C2.53 16.53 2.53 16.86 2.53 16.99C2.53 24.18 8.35 30 15.54 30C15.76 30 16.33 30 17.24 30" id="a2hWxBNsZ1"></path><path d="M2.53 16C2.53 16.53 2.53 16.86 2.53 16.99C2.53 24.18 8.35 30 15.54 30C15.76 30 16.33 30 17.24 30" id="b2gde5vKPB"></path><path d="M30.53 16C30.53 16.53 30.53 16.86 30.53 16.99C30.53 24.18 24.71 30 17.52 30C17.3 30 16.73 30 15.82 30" id="b13RPR7FDy"></path><path d="M30.53 16C30.53 16.53 30.53 16.86 30.53 16.99C30.53 24.18 24.71 30 17.52 30C17.3 30 16.73 30 15.82 30" id="d1JvO5WyH"></path><path d="M2.53 17C2.53 16.47 2.53 16.14 2.53 16.01C2.53 8.82 8.35 3 15.54 3C15.76 3 16.33 3 17.24 3" id="aa4ZzKg4hV"></path><path d="M2.53 17C2.53 16.47 2.53 16.14 2.53 16.01C2.53 8.82 8.35 3 15.54 3C15.76 3 16.33 3 17.24 3" id="f26yabgk9n"></path><path d="M31.77 15C31.77 16.46 31.77 17.37 31.77 17.73C31.77 17.88 31.65 18 31.51 18C29.51 18 24.52 18 16.53 18C16.53 17.6 16.53 16.6 16.53 15C25.67 15 30.75 15 31.77 15Z" id="aQJhw7aE"></path><path d="M31.77 15C31.77 16.46 31.77 17.37 31.77 17.73C31.77 17.88 31.65 18 31.51 18C29.51 18 24.52 18 16.53 18C16.53 17.6 16.53 16.6 16.53 15C25.67 15 30.75 15 31.77 15Z" id="a8vgGTF16"></path><path d="M31.77 15C31.77 16.46 31.77 17.37 31.77 17.73C31.77 17.88 31.65 18 31.51 18C29.51 18 24.52 18 16.53 18C16.53 17.6 16.53 16.6 16.53 15C25.67 15 30.75 15 31.77 15Z" id="o4yOzETTGA"></path><path d="M31.77 15C31.77 16.46 31.77 17.37 31.77 17.73C31.77 17.88 31.65 18 31.51 18C29.51 18 24.52 18 16.53 18C16.53 17.6 16.53 16.6 16.53 15C25.67 15 30.75 15 31.77 15Z" id="a1jPtGsTw0"></path><path d="M27.4 7.54C25.01 4.76 21.47 3 17.52 3C17.3 3 16.73 3 15.82 3" id="h1eC9poy0T"></path><path d="M27.4 7.54C25.01 4.76 21.47 3 17.52 3C17.3 3 16.73 3 15.82 3" id="b1tVSdZvVK"></path></defs><g><g><g><use xlink:href="#b34ymTTRSn" opacity="1" fill="#a70000" fill-opacity="1"></use><g><use xlink:href="#b34ymTTRSn" opacity="1" fill-opacity="0" stroke="#000000" stroke-width="1" stroke-opacity="0"></use></g></g><g><use xlink:href="#ahh2Ytpb3" opacity="1" fill="#000000" fill-opacity="1"></use><g><use xlink:href="#ahh2Ytpb3" opacity="1" fill-opacity="0" stroke="#000000" stroke-width="1" stroke-opacity="0"></use></g></g><g><use xlink:href="#bvXEUF20M" opacity="1" fill="#000000" fill-opacity="0"></use><g><use xlink:href="#bvXEUF20M" opacity="1" fill-opacity="0" stroke="#000000" stroke-width="1" stroke-opacity="0"></use></g></g><g><use xlink:href="#a2hWxBNsZ1" opacity="1" fill="#000000" fill-opacity="0"></use><g><use xlink:href="#a2hWxBNsZ1" opacity="1" fill-opacity="0" stroke="#000000" stroke-width="1" stroke-opacity="0"></use></g></g><g><use xlink:href="#b2gde5vKPB" opacity="1" fill="#000000" fill-opacity="0"></use><g><use xlink:href="#b2gde5vKPB" opacity="1" fill-opacity="0" stroke="#000000" stroke-width="3" stroke-opacity="1"></use></g></g><g><use xlink:href="#b13RPR7FDy" opacity="1" fill="#000000" fill-opacity="0"></use><g><use xlink:href="#b13RPR7FDy" opacity="1" fill-opacity="0" stroke="#000000" stroke-width="1" stroke-opacity="0"></use></g></g><g><use xlink:href="#d1JvO5WyH" opacity="1" fill="#000000" fill-opacity="0"></use><g><use xlink:href="#d1JvO5WyH" opacity="1" fill-opacity="0" stroke="#000000" stroke-width="3" stroke-opacity="1"></use></g></g><g><use xlink:href="#aa4ZzKg4hV" opacity="1" fill="#000000" fill-opacity="0"></use><g><use xlink:href="#aa4ZzKg4hV" opacity="1" fill-opacity="0" stroke="#000000" stroke-width="1" stroke-opacity="0"></use></g></g><g><use xlink:href="#f26yabgk9n" opacity="1" fill="#000000" fill-opacity="0"></use><g><use xlink:href="#f26yabgk9n" opacity="1" fill-opacity="0" stroke="#000000" stroke-width="3" stroke-opacity="1"></use></g></g><g><use xlink:href="#aQJhw7aE" opacity="1" fill="#000000" fill-opacity="1"></use><g><use xlink:href="#aQJhw7aE" opacity="1" fill-opacity="0" stroke="#000000" stroke-width="1" stroke-opacity="0"></use></g></g><g><use xlink:href="#a8vgGTF16" opacity="1" fill="#000000" fill-opacity="0"></use><g><use xlink:href="#a8vgGTF16" opacity="1" fill-opacity="0" stroke="#000000" stroke-width="1" stroke-opacity="0"></use></g></g><g><use xlink:href="#o4yOzETTGA" opacity="1" fill="#000000" fill-opacity="0"></use><g><use xlink:href="#o4yOzETTGA" opacity="1" fill-opacity="0" stroke="#000000" stroke-width="1" stroke-opacity="0"></use></g></g><g><use xlink:href="#a1jPtGsTw0" opacity="1" fill="#000000" fill-opacity="0"></use><g><use xlink:href="#a1jPtGsTw0" opacity="1" fill-opacity="0" stroke="#000000" stroke-width="0.5" stroke-opacity="1"></use></g></g><g><use xlink:href="#h1eC9poy0T" opacity="1" fill="#000000" fill-opacity="0"></use><g><use xlink:href="#h1eC9poy0T" opacity="1" fill-opacity="0" stroke="#000000" stroke-width="1" stroke-opacity="0"></use></g></g><g><use xlink:href="#b1tVSdZvVK" opacity="1" fill="#000000" fill-opacity="0"></use><g><use xlink:href="#b1tVSdZvVK" opacity="1" fill-opacity="0" stroke="#000000" stroke-width="3" stroke-opacity="1"></use></g></g></g></g></svg>