<?xml version="1.0" encoding="UTF-8" standalone="no"?>
<!DOCTYPE svg PUBLIC "-//W3C//DTD SVG 1.1//EN" "http://www.w3.org/Graphics/SVG/1.1/DTD/svg11.dtd">
<svg version="1.1" xmlns="http://www.w3.org/2000/svg" xmlns:xlink="http://www.w3.org/1999/xlink" preserveAspectRatio="xMidYMid meet" viewBox="0 0 48 32" width="48" height="32"><defs><path d="M24 29.15C16.74 29.15 10.85 23.26 10.85 16C10.85 8.74 16.74 2.85 24 2.85C31.26 2.85 37.15 8.74 37.15 16C37.15 23.26 31.26 29.15 24 29.15Z" id="bqCdLXDaz"></path><path d="M9.53 7.51L8.76 2.85L13.95 5.85L19.15 8.85L14.72 10.51L10.3 12.18L9.53 7.51Z" id="d6Gn3uRnU"></path><path d="M10 15.5C10 16.03 10 16.36 10 16.49C10 23.68 15.82 29.5 23.01 29.5C23.23 29.5 23.8 29.5 24.71 29.5" id="cF9L1wkrC"></path><path d="M38 15.5C38 16.03 38 16.36 38 16.49C38 23.68 32.18 29.5 24.99 29.5C24.77 29.5 24.2 29.5 23.29 29.5" id="d1ZZynVMF6"></path><path d="M38 16.5C38 15.97 38 15.64 38 15.51C38 8.32 32.18 2.5 24.99 2.5C24.77 2.5 24.2 2.5 23.29 2.5" id="a8VffqK2E"></path><path d="M8.76 14.5L24 14.5L24 17.5C16.11 17.5 11.17 17.5 9.2 17.5C8.96 17.5 8.76 17.3 8.76 17.06C8.76 16.72 8.76 15.86 8.76 14.5Z" id="a1XbJnAfPn"></path><path d="M12.91 7C15.29 4.22 18.83 2.46 22.79 2.46C23.01 2.46 23.58 2.46 24.49 2.46" id="c1p5vsSSdi"></path></defs><g><g><g><use xlink:href="#bqCdLXDaz" opacity="1" fill="#a70000" fill-opacity="1"></use><g><use xlink:href="#bqCdLXDaz" opacity="1" fill-opacity="0" stroke="#000000" stroke-width="1" stroke-opacity="0"></use></g></g><g><use xlink:href="#d6Gn3uRnU" opacity="1" fill="#000000" fill-opacity="1"></use></g><g><g><use xlink:href="#cF9L1wkrC" opacity="1" fill-opacity="0" stroke="#000000" stroke-width="3" stroke-opacity="1"></use></g></g><g><g><use xlink:href="#d1ZZynVMF6" opacity="1" fill-opacity="0" stroke="#000000" stroke-width="3" stroke-opacity="1"></use></g></g><g><g><use xlink:href="#a8VffqK2E" opacity="1" fill-opacity="0" stroke="#000000" stroke-width="3" stroke-opacity="1"></use></g></g><g><use xlink:href="#a1XbJnAfPn" opacity="1" fill="#000000" fill-opacity="1"></use><g><use xlink:href="#a1XbJnAfPn" opacity="1" fill-opacity="0" stroke="#000000" stroke-width="0.5" stroke-opacity="1"></use></g></g><g><g><use xlink:href="#c1p5vsSSdi" opacity="1" fill-opacity="0" stroke="#000000" stroke-width="3" stroke-opacity="1"></use></g></g></g></g></svg>