<?xml version="1.0" encoding="UTF-8" standalone="no"?>
<!DOCTYPE svg PUBLIC "-//W3C//DTD SVG 1.1//EN" "http://www.w3.org/Graphics/SVG/1.1/DTD/svg11.dtd">
<svg version="1.1" xmlns="http://www.w3.org/2000/svg" xmlns:xlink="http://www.w3.org/1999/xlink" preserveAspectRatio="xMidYMid meet" viewBox="0 0 32 32" width="32" height="32"><defs><path d="M0.31 16C0.31 24.66 7.34 31.69 16 31.69C24.66 31.69 31.69 24.66 31.69 16C31.69 7.34 24.66 0.31 16 0.31C7.34 0.31 0.31 7.34 0.31 16Z" id="l6q5rwUxh2"></path><path d="M10.22 21.75C11.11 22.51 11.62 23.62 11.62 24.8C11.62 25.36 11.62 25.55 11.62 26.2C11.62 27.12 11.95 28.02 12.55 28.72C13.03 29.28 13.68 30.04 14.19 30.65C14.59 31.11 15.31 31.11 15.7 30.64C16.45 29.76 18.33 27.54 21.33 24C25.93 19.08 28.8 16 29.95 14.77C30.78 13.88 31.06 12.61 30.67 11.46C30.52 11.04 30.73 11.66 30.59 11.24C30.17 9.98 29.51 8.81 28.65 7.8C28.4 7.5 28.6 7.74 28.26 7.34C27.82 6.81 27.01 6.83 26.59 7.37C25.86 8.29 24.79 9.66 24.13 10.5C23.35 11.49 22.42 12.36 21.37 13.07C20.3 13.79 20.81 13.44 20.28 13.81C17.63 15.6 14.22 15.86 11.33 14.5C10.85 14.28 11.92 14.78 10.9 14.3C9.65 13.71 8.7 12.65 8.26 11.35C8.06 10.75 7.95 10.44 7.7 9.7C7.4 8.82 6.85 8.05 6.13 7.47C5.79 7.2 5.58 7.03 5.17 6.7C4.71 6.34 4.12 6.19 3.55 6.29C3.18 6.35 3.93 6.22 3.8 6.24C2.52 6.46 1.46 7.37 1.06 8.61C0.97 8.88 1.31 7.84 1.21 8.15C0.83 9.29 0.97 10.54 1.59 11.57C2.26 12.7 2.66 13.38 3.17 14.24C4.35 16.21 5.84 17.98 7.58 19.47C8.39 20.17 9.17 20.84 10.22 21.75Z" id="c2ZTYlGxDr"></path><path d="M16.42 30C15.9 28.03 15.57 26.8 15.44 26.31C15.15 25.21 14.67 24.18 14.03 23.24C13.54 22.53 13.24 22.09 12.8 21.44C12 20.27 11.02 19.23 9.9 18.37C9.4 17.98 9.99 18.44 9.59 18.13C8.13 16.99 6.8 15.69 5.64 14.24C5.34 13.88 5.99 14.68 5.64 14.24C4.66 13.04 3.93 11.66 3.48 10.18C3.33 9.72 2.98 8.58 2.42 6.75" id="aQkpTGA5"></path></defs><g><g><g><use xlink:href="#l6q5rwUxh2" opacity="1" fill="#000000" fill-opacity="1"></use></g><g><use xlink:href="#c2ZTYlGxDr" opacity="1" fill="#ffffff" fill-opacity="1"></use><g><use xlink:href="#c2ZTYlGxDr" opacity="1" fill-opacity="0" stroke="#000000" stroke-width="0.5" stroke-opacity="1"></use></g></g><g><g><use xlink:href="#aQkpTGA5" opacity="1" fill-opacity="0" stroke="#000000" stroke-width="0.5" stroke-opacity="1.00"></use></g></g></g></g></svg>