<?xml version="1.0" encoding="UTF-8" standalone="no"?>
<!DOCTYPE svg PUBLIC "-//W3C//DTD SVG 1.1//EN" "http://www.w3.org/Graphics/SVG/1.1/DTD/svg11.dtd">
<svg version="1.1" xmlns="http://www.w3.org/2000/svg" xmlns:xlink="http://www.w3.org/1999/xlink" preserveAspectRatio="xMidYMid meet" viewBox="0 0 32 32" width="32" height="32"><defs><path d="M16 30.85C7.81 30.85 1.15 24.19 1.15 16C1.15 7.81 7.81 1.16 16 1.16C24.19 1.16 30.85 7.81 30.85 16C30.85 24.19 24.19 30.85 16 30.85Z" id="eVLrAOuRr"></path><mask id="maskbmVYfyyAZ" x="-0.85" y="-0.84" width="33.69" height="33.69" maskUnits="userSpaceOnUse"><rect x="-0.85" y="-0.84" width="33.69" height="33.69" fill="white"></rect><use xlink:href="#eVLrAOuRr" opacity="1" fill="black"></use></mask><path d="M16 30.05C8.25 30.05 1.95 23.75 1.95 16C1.95 8.25 8.25 1.95 16 1.95C23.75 1.95 30.05 8.25 30.05 16C30.05 23.75 23.75 30.05 16 30.05Z" id="b1K86S3H9X"></path><path d="M16 14.17L18.87 9.07L26.53 9.07L26.2 13.44L24.61 14.17L16.96 26.93L15.04 26.93" id="a4NAqVo9b6"></path><path d="M16 14.17L13.13 9.07L5.47 9.07L5.8 13.44L7.39 14.17L15.04 26.93L16.96 26.93" id="b5dG0rUS02"></path><path d="M16 16.72L12.37 10.34L7.39 10.34L7.39 12.32L9.3 13.85L16 25.44" id="a2dHeoXey4"></path><path d="M16 16.83L19.63 10.45L24.61 10.45L24.61 12.43L22.7 13.96L16 25.55" id="m1hkyAnpDm"></path></defs><g><g><g><use xlink:href="#eVLrAOuRr" opacity="1" fill="#ffffff" fill-opacity="1"></use><g mask="url(#maskbmVYfyyAZ)"><use xlink:href="#eVLrAOuRr" opacity="1" fill-opacity="0" stroke="#000000" stroke-width="2" stroke-opacity="1"></use></g></g><g><use xlink:href="#b1K86S3H9X" opacity="1" fill="#3f3f3f" fill-opacity="1"></use></g><g><use xlink:href="#a4NAqVo9b6" opacity="1" fill="#696969" fill-opacity="1"></use><g><use xlink:href="#a4NAqVo9b6" opacity="1" fill-opacity="0" stroke="#696969" stroke-width="1" stroke-opacity="1"></use></g></g><g><use xlink:href="#b5dG0rUS02" opacity="1" fill="#696969" fill-opacity="1"></use><g><use xlink:href="#b5dG0rUS02" opacity="1" fill-opacity="0" stroke="#696969" stroke-width="1" stroke-opacity="1"></use></g></g><g><use xlink:href="#a2dHeoXey4" opacity="1" fill="#4b4b4b" fill-opacity="1"></use><g><use xlink:href="#a2dHeoXey4" opacity="1" fill-opacity="0" stroke="#4b4b4b" stroke-width="1" stroke-opacity="1"></use></g></g><g><use xlink:href="#m1hkyAnpDm" opacity="1" fill="#4b4b4b" fill-opacity="1"></use><g><use xlink:href="#m1hkyAnpDm" opacity="1" fill-opacity="0" stroke="#4b4b4b" stroke-width="1" stroke-opacity="1"></use></g></g></g></g></svg>