<?xml version="1.0" encoding="UTF-8" standalone="no"?>
<!DOCTYPE svg PUBLIC "-//W3C//DTD SVG 1.1//EN" "http://www.w3.org/Graphics/SVG/1.1/DTD/svg11.dtd">
<svg version="1.1" xmlns="http://www.w3.org/2000/svg" xmlns:xlink="http://www.w3.org/1999/xlink" preserveAspectRatio="xMidYMid meet" viewBox="0 0 32 32" width="32" height="32"><defs><path d="M1 19.31L31 19.31L31 23.88L1 23.88L1 19.31Z" id="aKVOtUGjd"></path><path d="M31 23.88C31 28.01 24.28 31.38 16 31.38C7.72 31.38 1 28.01 1 23.88C1 19.74 7.72 16.38 16 16.38C24.28 16.38 31 19.74 31 23.88Z" id="d33dcw9UEF"></path><path d="" id="d6utyUNLe"></path><path d="M16 0L13.06 7.46L5.91 1.15L6.61 9.56L1 7.46L3.67 11.81" id="b39MxbrQb"></path><path d="M16 0L18.94 7.46L26.09 1.15L25.39 9.56L31 7.46L28.33 11.81" id="b1kTp4YFUQ"></path><path d="M16 25.82C8 25.82 1.5 22.46 1.5 18.32C1.5 14.18 8 10.82 16 10.82C24.01 10.82 30.5 14.18 30.5 18.32C30.5 22.46 24.01 25.82 16 25.82Z" id="jbHRKt3pQ"></path><mask id="maska26gD0IgHd" x="-0.5" y="8.82" width="33" height="19" maskUnits="userSpaceOnUse"><rect x="-0.5" y="8.82" width="33" height="19" fill="white"></rect><use xlink:href="#jbHRKt3pQ" opacity="1" fill="black"></use></mask><path d="M16 25.42C8.43 25.42 2.28 22.24 2.28 18.32C2.28 14.4 8.43 11.22 16 11.22C23.58 11.22 29.72 14.4 29.72 18.32C29.72 22.24 23.58 25.42 16 25.42Z" id="a3hAJzEVpq"></path><path d="M12.27 21.04C12.71 21.24 12.99 21.67 12.99 22.14C12.99 22.39 12.99 22.47 12.99 22.74C12.99 23.12 13.19 23.47 13.51 23.66C13.95 23.93 14.83 24.46 15.29 24.74C15.55 24.9 15.88 24.9 16.14 24.74C16.78 24.35 18.38 23.37 20.95 21.81C24.91 19.61 27.39 18.24 28.38 17.69C28.78 17.47 28.9 16.96 28.66 16.58C28.53 16.39 28.6 16.5 28.48 16.3C28.17 15.83 27.76 15.44 27.28 15.14C27.01 14.98 26.73 14.8 26.41 14.61C26.11 14.43 25.74 14.43 25.46 14.62C24.82 15.04 23.54 15.88 22.95 16.28C22.5 16.57 22.02 16.81 21.51 16.99C20.52 17.33 19.37 17.74 18.64 17.99C17.29 18.46 15.84 18.53 14.45 18.19C13.72 18.02 12.66 17.76 11.68 17.52C11.11 17.38 10.62 17.03 10.3 16.54C10.12 16.27 9.94 16 9.73 15.68C9.51 15.35 9.2 15.09 8.84 14.94C8.49 14.8 7.85 14.54 7.47 14.38C7.23 14.28 6.98 14.24 6.72 14.27C6.35 14.3 6.03 14.33 5.76 14.35C5.2 14.4 4.69 14.71 4.39 15.19C4.31 15.32 4.49 15.03 4.4 15.17C4.15 15.56 4.23 16.07 4.57 16.38C5.16 16.89 5.92 17.54 6.41 17.97C7.15 18.61 7.97 19.13 8.86 19.53C9.69 19.89 11.32 20.62 12.27 21.04Z" id="a1L0j6jKhY"></path><path d="M16.92 24.35C16.48 23.49 16.2 22.95 16.09 22.73C15.87 22.31 15.56 21.93 15.18 21.65C14.73 21.31 14.1 20.83 13.69 20.52C13.21 20.16 12.68 19.86 12.12 19.64C11.6 19.43 11.09 19.22 10.62 19.03C9.89 18.74 9.18 18.38 8.52 17.95C8.19 17.74 8.07 17.67 7.71 17.43C7.16 17.08 6.7 16.61 6.37 16.04C6.25 15.84 5.94 15.32 5.44 14.49" id="aBku9DJgT"></path></defs><g><g><g><use xlink:href="#aKVOtUGjd" opacity="1" fill="#000000" fill-opacity="1"></use><g><use xlink:href="#aKVOtUGjd" opacity="1" fill-opacity="0" stroke="#000000" stroke-width="1" stroke-opacity="1"></use></g></g><g><use xlink:href="#d33dcw9UEF" opacity="1" fill="#000000" fill-opacity="1"></use><g><use xlink:href="#d33dcw9UEF" opacity="1" fill-opacity="0" stroke="#000000" stroke-width="1" stroke-opacity="1"></use></g></g><g><g><use xlink:href="#d6utyUNLe" opacity="1" fill-opacity="0" stroke="#696969" stroke-width="1" stroke-opacity="1"></use></g></g><g><g><use xlink:href="#b39MxbrQb" opacity="1" fill-opacity="0" stroke="#000000" stroke-width="1" stroke-opacity="1"></use></g></g><g><g><use xlink:href="#b1kTp4YFUQ" opacity="1" fill-opacity="0" stroke="#000000" stroke-width="1" stroke-opacity="1"></use></g></g><g><g><use xlink:href="#jbHRKt3pQ" opacity="1" fill="#ffffff" fill-opacity="1"></use><g mask="url(#maska26gD0IgHd)"><use xlink:href="#jbHRKt3pQ" opacity="1" fill-opacity="0" stroke="#000000" stroke-width="2" stroke-opacity="1"></use></g></g><g><use xlink:href="#a3hAJzEVpq" opacity="1" fill="#3f3f3f" fill-opacity="1"></use></g><g><g><use xlink:href="#a1L0j6jKhY" opacity="1" fill="#ffffff" fill-opacity="1"></use><g><use xlink:href="#a1L0j6jKhY" opacity="1" fill-opacity="0" stroke="#3f3f3f" stroke-width="0.5" stroke-opacity="1"></use></g></g><g><use xlink:href="#aBku9DJgT" opacity="1" fill="#ffffff" fill-opacity="1"></use><g><use xlink:href="#aBku9DJgT" opacity="1" fill-opacity="0" stroke="#3f3f3f" stroke-width="0.5" stroke-opacity="1"></use></g></g></g></g></g></g></svg>