<?xml version="1.0" encoding="UTF-8" standalone="no"?>
<!DOCTYPE svg PUBLIC "-//W3C//DTD SVG 1.1//EN" "http://www.w3.org/Graphics/SVG/1.1/DTD/svg11.dtd">
<svg version="1.1" xmlns="http://www.w3.org/2000/svg" xmlns:xlink="http://www.w3.org/1999/xlink" preserveAspectRatio="xMidYMid meet" viewBox="0 0 32 32" width="32" height="32"><defs><path d="M16 30.85C7.81 30.85 1.16 24.19 1.16 16C1.16 7.81 7.81 1.16 16 1.16C24.19 1.16 30.85 7.81 30.85 16C30.85 24.19 24.19 30.85 16 30.85Z" id="b2MmfMfqA2"></path><mask id="maskawwxWwpCo" x="-0.84" y="-0.84" width="33.69" height="33.69" maskUnits="userSpaceOnUse"><rect x="-0.84" y="-0.84" width="33.69" height="33.69" fill="white"></rect><use xlink:href="#b2MmfMfqA2" opacity="1" fill="black"></use></mask><path d="M16 30.05C8.25 30.05 1.95 23.75 1.95 16C1.95 8.25 8.25 1.95 16 1.95C23.75 1.95 30.05 8.25 30.05 16C30.05 23.75 23.75 30.05 16 30.05Z" id="c318VXuqi"></path><path d="M11.74 21.01C12.48 21.65 12.91 22.59 12.91 23.57C12.91 24.05 12.91 24.21 12.91 24.75C12.91 25.52 13.19 26.27 13.69 26.86C14.09 27.33 14.64 27.97 15.07 28.48C15.4 28.87 16.01 28.87 16.34 28.48C16.97 27.73 18.54 25.88 21.06 22.9C24.92 18.77 27.33 16.19 28.29 15.16C28.99 14.41 29.22 13.35 28.89 12.38C28.77 12.02 28.95 12.55 28.83 12.2C28.48 11.14 27.92 10.16 27.2 9.31C26.99 9.06 27.16 9.26 26.88 8.92C26.51 8.48 25.83 8.49 25.47 8.95C24.86 9.72 23.96 10.87 23.41 11.57C22.75 12.41 21.97 13.14 21.09 13.73C20.19 14.34 20.63 14.05 20.18 14.35C17.95 15.85 15.1 16.07 12.66 14.93C12.27 14.74 13.16 15.16 12.3 14.76C11.26 14.27 10.46 13.38 10.09 12.28C9.92 11.78 9.83 11.52 9.62 10.91C9.37 10.17 8.91 9.51 8.3 9.03C8.02 8.8 7.84 8.66 7.5 8.39C7.11 8.08 6.62 7.96 6.14 8.04C5.83 8.09 6.46 7.98 6.35 8C5.27 8.19 4.39 8.95 4.05 9.99C3.97 10.21 4.26 9.35 4.17 9.61C3.86 10.56 3.98 11.61 4.49 12.47C5.06 13.42 5.4 13.99 5.82 14.71C6.81 16.36 8.06 17.85 9.52 19.11C10.2 19.69 10.85 20.25 11.74 21.01Z" id="b2buT3Jxq"></path><path d="M16.94 27.94C16.5 26.29 16.23 25.25 16.12 24.84C15.87 23.92 15.47 23.05 14.93 22.26C14.53 21.67 14.27 21.3 13.9 20.76C13.23 19.77 12.41 18.9 11.47 18.17C11.05 17.85 11.55 18.23 11.21 17.97C9.98 17.02 8.87 15.93 7.89 14.71C7.64 14.41 8.18 15.08 7.89 14.71C7.08 13.7 6.46 12.55 6.08 11.31C5.96 10.92 5.66 9.96 5.19 8.43" id="c29LHtIfml"></path></defs><g><g><g><use xlink:href="#b2MmfMfqA2" opacity="1" fill="#ffffff" fill-opacity="1"></use><g mask="url(#maskawwxWwpCo)"><use xlink:href="#b2MmfMfqA2" opacity="1" fill-opacity="0" stroke="#000000" stroke-width="2" stroke-opacity="1"></use></g></g><g><use xlink:href="#c318VXuqi" opacity="1" fill="#3f3f3f" fill-opacity="1"></use></g><g><g><use xlink:href="#b2buT3Jxq" opacity="1" fill="#ffffff" fill-opacity="1"></use><g><use xlink:href="#b2buT3Jxq" opacity="1" fill-opacity="0" stroke="#3f3f3f" stroke-width="0.5" stroke-opacity="1"></use></g></g><g><use xlink:href="#c29LHtIfml" opacity="1" fill="#ffffff" fill-opacity="1"></use><g><use xlink:href="#c29LHtIfml" opacity="1" fill-opacity="0" stroke="#3f3f3f" stroke-width="0.5" stroke-opacity="1"></use></g></g></g></g></g></svg>