<?xml version="1.0" encoding="UTF-8" standalone="no"?>
<!DOCTYPE svg PUBLIC "-//W3C//DTD SVG 1.1//EN" "http://www.w3.org/Graphics/SVG/1.1/DTD/svg11.dtd">
<svg version="1.1" xmlns="http://www.w3.org/2000/svg" xmlns:xlink="http://www.w3.org/1999/xlink" preserveAspectRatio="xMidYMid meet" viewBox="0 0 32 32" width="32" height="32"><defs><path d="M31 16C31 24.28 24.28 31 16 31C7.72 31 1 24.28 1 16C1 7.72 7.72 1 16 1C24.28 1 31 7.72 31 16Z" id="c1TanORQp2"></path><path d="M29.93 16C29.93 23.69 23.69 29.93 16 29.93C8.31 29.93 2.07 23.69 2.07 16C2.07 8.31 8.31 2.07 16 2.07C23.69 2.07 29.93 8.31 29.93 16Z" id="b3y4ST47ys"></path><path d="M7.46 24.54L11.73 24.54L13.12 20.27L18.88 20.27L20.27 24.54L24.54 24.54L18.13 7.46L13.87 7.46L7.46 24.54Z" id="bbkHOf7kb"></path><path d="M16 11.73L17.8 16L14.2 16L16 11.73Z" id="n2R6g5qIyo"></path></defs><g><g><g><use xlink:href="#c1TanORQp2" opacity="1" fill="#ffffff" fill-opacity="1"></use><g><use xlink:href="#c1TanORQp2" opacity="1" fill-opacity="0" stroke="#000000" stroke-width="0.5" stroke-opacity="1"></use></g></g><g><use xlink:href="#b3y4ST47ys" opacity="1" fill="#c533de" fill-opacity="1"></use><g><use xlink:href="#b3y4ST47ys" opacity="1" fill-opacity="0" stroke="#000000" stroke-width="0.5" stroke-opacity="1"></use></g><g><filter id="shadow1534414" x="-4.33" y="-4.33" width="40.67" height="40.67" filterUnits="userSpaceOnUse" primitiveUnits="userSpaceOnUse"><feFlood></feFlood><feComposite in2="SourceAlpha" operator="out"></feComposite><feGaussianBlur stdDeviation="0.45"></feGaussianBlur><feOffset dx="0" dy="0" result="afterOffset"></feOffset><feFlood flood-color="#ffffff" flood-opacity="0.5"></feFlood><feComposite in2="afterOffset" operator="in"></feComposite><feMorphology operator="dilate" radius="1"></feMorphology><feComposite in2="SourceAlpha" operator="in"></feComposite></filter><path d="M29.93 16C29.93 23.69 23.69 29.93 16 29.93C8.31 29.93 2.07 23.69 2.07 16C2.07 8.31 8.31 2.07 16 2.07C23.69 2.07 29.93 8.31 29.93 16Z" id="f23wwrlVn" fill="white" fill-opacity="1" filter="url(#shadow1534414)"></path></g></g><g><g><filter id="shadow15833918" x="0.96" y="0.96" width="30.57" height="30.57" filterUnits="userSpaceOnUse" primitiveUnits="userSpaceOnUse"><feFlood></feFlood><feComposite in2="SourceAlpha" operator="in"></feComposite><feGaussianBlur stdDeviation="0"></feGaussianBlur><feOffset dx="0.5" dy="0.5" result="afterOffset"></feOffset><feFlood flood-color="#000000" flood-opacity="1"></feFlood><feComposite in2="afterOffset" operator="in"></feComposite><feMorphology operator="dilate" radius="1"></feMorphology><feComposite in2="SourceAlpha" operator="out"></feComposite></filter><path d="M7.46 24.54L11.73 24.54L13.12 20.27L18.88 20.27L20.27 24.54L24.54 24.54L18.13 7.46L13.87 7.46L7.46 24.54Z" id="a2Mtle0KSh" fill="white" fill-opacity="1" filter="url(#shadow15833918)"></path></g><use xlink:href="#bbkHOf7kb" opacity="1" fill="#ffffff" fill-opacity="1"></use><g><use xlink:href="#bbkHOf7kb" opacity="1" fill-opacity="0" stroke="#000000" stroke-width="1" stroke-opacity="1"></use></g></g><g><use xlink:href="#n2R6g5qIyo" opacity="1" fill="#c533de" fill-opacity="1"></use><g><use xlink:href="#n2R6g5qIyo" opacity="1" fill-opacity="0" stroke="#000000" stroke-width="1" stroke-opacity="1"></use></g><g><filter id="shadow10664586" x="7.7" y="5.23" width="17.6" height="18.27" filterUnits="userSpaceOnUse" primitiveUnits="userSpaceOnUse"><feFlood></feFlood><feComposite in2="SourceAlpha" operator="out"></feComposite><feGaussianBlur stdDeviation="0"></feGaussianBlur><feOffset dx="1" dy="1" result="afterOffset"></feOffset><feFlood flood-color="#000000" flood-opacity="1"></feFlood><feComposite in2="afterOffset" operator="in"></feComposite><feMorphology operator="dilate" radius="0.5"></feMorphology><feComposite in2="SourceAlpha" operator="in"></feComposite></filter><path d="M16 11.73L17.8 16L14.2 16L16 11.73Z" id="e14DMA3xr9" fill="white" fill-opacity="1" filter="url(#shadow10664586)"></path></g></g></g></g></svg>