<?xml version="1.0" encoding="UTF-8" standalone="no"?>
<!DOCTYPE svg PUBLIC "-//W3C//DTD SVG 1.1//EN" "http://www.w3.org/Graphics/SVG/1.1/DTD/svg11.dtd">
<svg version="1.1" xmlns="http://www.w3.org/2000/svg" xmlns:xlink="http://www.w3.org/1999/xlink" preserveAspectRatio="xMidYMid meet" viewBox="0 0 32 32" width="32" height="32"><defs><path d="M31 16C31 24.28 24.28 31 16 31C7.72 31 1 24.28 1 16C1 7.72 7.72 1 16 1C24.28 1 31 7.72 31 16Z" id="b4lFdetWaa"></path><path d="M29.93 16C29.93 23.69 23.69 29.93 16 29.93C8.31 29.93 2.07 23.69 2.07 16C2.07 8.31 8.31 2.07 16 2.07C23.69 2.07 29.93 8.31 29.93 16Z" id="b1PGGDvrC5"></path><path d="M9.5 7.5C14.97 7.5 18.4 7.5 19.76 7.5C21.28 7.5 22.5 8.72 22.5 10.24C22.5 13.09 22.5 18.91 22.5 21.76C22.5 23.28 21.28 24.5 19.76 24.5C18.4 24.5 14.97 24.5 9.5 24.5L9.5 7.5Z" id="dyod3uqRD"></path><path d="M12.75 11.22C15.17 11.22 16.68 11.22 17.29 11.22C18.37 11.22 19.25 12.1 19.25 13.18C19.25 14.7 19.25 17.3 19.25 18.82C19.25 19.9 18.37 20.78 17.29 20.78C16.68 20.78 15.17 20.78 12.75 20.78L12.75 11.22Z" id="d1b5P7dFm3"></path></defs><g><g><g><use xlink:href="#b4lFdetWaa" opacity="1" fill="#ffffff" fill-opacity="1"></use><g><use xlink:href="#b4lFdetWaa" opacity="1" fill-opacity="0" stroke="#000000" stroke-width="0.5" stroke-opacity="1"></use></g></g><g><use xlink:href="#b1PGGDvrC5" opacity="1" fill="#0071ff" fill-opacity="1"></use><g><use xlink:href="#b1PGGDvrC5" opacity="1" fill-opacity="0" stroke="#000000" stroke-width="0.5" stroke-opacity="1"></use></g><g><filter id="shadow7177085" x="-4.33" y="-4.33" width="40.67" height="40.67" filterUnits="userSpaceOnUse" primitiveUnits="userSpaceOnUse"><feFlood></feFlood><feComposite in2="SourceAlpha" operator="out"></feComposite><feGaussianBlur stdDeviation="0.45"></feGaussianBlur><feOffset dx="0" dy="0" result="afterOffset"></feOffset><feFlood flood-color="#ffffff" flood-opacity="0.5"></feFlood><feComposite in2="afterOffset" operator="in"></feComposite><feMorphology operator="dilate" radius="1"></feMorphology><feComposite in2="SourceAlpha" operator="in"></feComposite></filter><path d="M29.93 16C29.93 23.69 23.69 29.93 16 29.93C8.31 29.93 2.07 23.69 2.07 16C2.07 8.31 8.31 2.07 16 2.07C23.69 2.07 29.93 8.31 29.93 16Z" id="dm7zIO9al" fill="white" fill-opacity="1" filter="url(#shadow7177085)"></path></g></g><g><g><filter id="shadow4511298" x="3" y="1" width="26.5" height="30.5" filterUnits="userSpaceOnUse" primitiveUnits="userSpaceOnUse"><feFlood></feFlood><feComposite in2="SourceAlpha" operator="in"></feComposite><feGaussianBlur stdDeviation="0"></feGaussianBlur><feOffset dx="0.5" dy="0.5" result="afterOffset"></feOffset><feFlood flood-color="#000000" flood-opacity="1"></feFlood><feComposite in2="afterOffset" operator="in"></feComposite><feMorphology operator="dilate" radius="1"></feMorphology><feComposite in2="SourceAlpha" operator="out"></feComposite></filter><path d="M9.5 7.5C14.97 7.5 18.4 7.5 19.76 7.5C21.28 7.5 22.5 8.72 22.5 10.24C22.5 13.09 22.5 18.91 22.5 21.76C22.5 23.28 21.28 24.5 19.76 24.5C18.4 24.5 14.97 24.5 9.5 24.5L9.5 7.5Z" id="d4oZZQIFIu" fill="white" fill-opacity="1" filter="url(#shadow4511298)"></path></g><use xlink:href="#dyod3uqRD" opacity="1" fill="#ffffff" fill-opacity="1"></use><g><use xlink:href="#dyod3uqRD" opacity="1" fill-opacity="0" stroke="#000000" stroke-width="1" stroke-opacity="1"></use></g></g><g><use xlink:href="#d1b5P7dFm3" opacity="1" fill="#0071ff" fill-opacity="1"></use><g><use xlink:href="#d1b5P7dFm3" opacity="1" fill-opacity="0" stroke="#000000" stroke-width="1" stroke-opacity="1"></use></g><g><filter id="shadow6326185" x="6.25" y="4.72" width="20.5" height="23.56" filterUnits="userSpaceOnUse" primitiveUnits="userSpaceOnUse"><feFlood></feFlood><feComposite in2="SourceAlpha" operator="out"></feComposite><feGaussianBlur stdDeviation="0"></feGaussianBlur><feOffset dx="1" dy="1" result="afterOffset"></feOffset><feFlood flood-color="#000000" flood-opacity="1"></feFlood><feComposite in2="afterOffset" operator="in"></feComposite><feMorphology operator="dilate" radius="0.5"></feMorphology><feComposite in2="SourceAlpha" operator="in"></feComposite></filter><path d="M12.75 11.22C15.17 11.22 16.68 11.22 17.29 11.22C18.37 11.22 19.25 12.1 19.25 13.18C19.25 14.7 19.25 17.3 19.25 18.82C19.25 19.9 18.37 20.78 17.29 20.78C16.68 20.78 15.17 20.78 12.75 20.78L12.75 11.22Z" id="c27wYB2oOo" fill="white" fill-opacity="1" filter="url(#shadow6326185)"></path></g></g></g></g></svg>