<?xml version="1.0" encoding="UTF-8" standalone="no"?>
<!DOCTYPE svg PUBLIC "-//W3C//DTD SVG 1.1//EN" "http://www.w3.org/Graphics/SVG/1.1/DTD/svg11.dtd">
<svg version="1.1" xmlns="http://www.w3.org/2000/svg" xmlns:xlink="http://www.w3.org/1999/xlink" preserveAspectRatio="xMidYMid meet" viewBox="0 0 32 32" width="32" height="32"><defs><path d="M31 16C31 24.28 24.28 31 16 31C7.72 31 1 24.28 1 16C1 7.72 7.72 1 16 1C24.28 1 31 7.72 31 16Z" id="fCWZdsBv6"></path><path d="M29.74 16C29.74 23.58 23.58 29.74 16 29.74C8.42 29.74 2.26 23.58 2.26 16C2.26 8.42 8.42 2.26 16 2.26C23.58 2.26 29.74 8.42 29.74 16Z" id="bCFzP2153"></path><path d="M13 7L13 21L23 21L23 25L9 25L9 7L13 7Z" id="a8fANgrXVH"></path></defs><g><g><g><use xlink:href="#fCWZdsBv6" opacity="1" fill="#ffffff" fill-opacity="1"></use><g><use xlink:href="#fCWZdsBv6" opacity="1" fill-opacity="0" stroke="#000000" stroke-width="0.5" stroke-opacity="1"></use></g></g><g><use xlink:href="#bCFzP2153" opacity="1" fill="#2acae1" fill-opacity="1"></use><g><use xlink:href="#bCFzP2153" opacity="1" fill-opacity="0" stroke="#000000" stroke-width="0.5" stroke-opacity="1"></use></g></g><g><use xlink:href="#a8fANgrXVH" opacity="1" fill="#ffffff" fill-opacity="1"></use><g><use xlink:href="#a8fANgrXVH" opacity="1" fill-opacity="0" stroke="#000000" stroke-width="0.5" stroke-opacity="1"></use></g></g></g></g></svg>