<?xml version="1.0" encoding="UTF-8" standalone="no"?>
<!DOCTYPE svg PUBLIC "-//W3C//DTD SVG 1.1//EN" "http://www.w3.org/Graphics/SVG/1.1/DTD/svg11.dtd">
<svg version="1.1" xmlns="http://www.w3.org/2000/svg" xmlns:xlink="http://www.w3.org/1999/xlink" preserveAspectRatio="xMidYMid meet" viewBox="0 0 48 32" width="48" height="32"><defs><path d="M45.99 16C45.99 24.28 39.27 31 30.99 31C22.71 31 15.99 24.28 15.99 16C15.99 7.72 22.71 1 30.99 1C39.27 1 45.99 7.72 45.99 16Z" id="b2XRgz7CKz"></path><path d="M44.92 16C44.92 23.69 38.68 29.93 30.99 29.93C23.3 29.93 17.05 23.69 17.05 16C17.05 8.31 23.3 2.07 30.99 2.07C38.68 2.07 44.92 8.31 44.92 16Z" id="a4OMEz0Xr1"></path><path d="M24.3 7.26C29.93 7.26 33.45 7.26 34.86 7.26C36.41 7.26 37.67 8.52 37.67 10.07C37.67 13.01 37.67 18.99 37.67 21.93C37.67 23.48 36.41 24.74 34.86 24.74C33.45 24.74 29.93 24.74 24.3 24.74L24.3 7.26Z" id="c31H4xs2OH"></path><path d="M27.64 11.08C30.13 11.08 31.69 11.08 32.31 11.08C33.43 11.08 34.33 11.99 34.33 13.1C34.33 14.66 34.33 17.34 34.33 18.9C34.33 20.01 33.43 20.92 32.31 20.92C31.69 20.92 30.13 20.92 27.64 20.92L27.64 11.08Z" id="aoeRjx8Pu"></path><path d="M30.99 16C30.99 24.28 24.27 31 15.99 31C7.71 31 0.99 24.28 0.99 16C0.99 7.72 7.71 1 15.99 1C24.27 1 30.99 7.72 30.99 16Z" id="a1dFFEs5a"></path><path d="M29.92 16C29.92 23.69 23.68 29.93 15.99 29.93C8.3 29.93 2.05 23.69 2.05 16C2.05 8.31 8.3 2.07 15.99 2.07C23.68 2.07 29.92 8.31 29.92 16Z" id="a1brV9BAlZ"></path><path d="M7.45 24.54L11.72 24.54L13.11 20.27L18.87 20.27L20.25 24.54L24.52 24.54L18.12 7.46L13.85 7.46L7.45 24.54Z" id="a17OnlPop"></path><path d="M15.99 11.73L17.78 16L14.19 16L15.99 11.73Z" id="dbFSe1Jrx"></path></defs><g><g><g><g><use xlink:href="#b2XRgz7CKz" opacity="1" fill="#ffffff" fill-opacity="1"></use><g><use xlink:href="#b2XRgz7CKz" opacity="1" fill-opacity="0" stroke="#000000" stroke-width="0.5" stroke-opacity="1"></use></g></g><g><use xlink:href="#a4OMEz0Xr1" opacity="1" fill="#0071ff" fill-opacity="1"></use><g><use xlink:href="#a4OMEz0Xr1" opacity="1" fill-opacity="0" stroke="#000000" stroke-width="0.5" stroke-opacity="1"></use></g><g><filter id="shadow2924967" x="10.65" y="-4.33" width="40.67" height="40.67" filterUnits="userSpaceOnUse" primitiveUnits="userSpaceOnUse"><feFlood></feFlood><feComposite in2="SourceAlpha" operator="out"></feComposite><feGaussianBlur stdDeviation="0.45"></feGaussianBlur><feOffset dx="0" dy="0" result="afterOffset"></feOffset><feFlood flood-color="#ffffff" flood-opacity="0.5"></feFlood><feComposite in2="afterOffset" operator="in"></feComposite><feMorphology operator="dilate" radius="1"></feMorphology><feComposite in2="SourceAlpha" operator="in"></feComposite></filter><path d="M44.92 16C44.92 23.69 38.68 29.93 30.99 29.93C23.3 29.93 17.05 23.69 17.05 16C17.05 8.31 23.3 2.07 30.99 2.07C38.68 2.07 44.92 8.31 44.92 16Z" id="c2BlT0vCoQ" fill="white" fill-opacity="1" filter="url(#shadow2924967)"></path></g></g><g><g><filter id="shadow2963429" x="17.8" y="0.76" width="26.87" height="30.98" filterUnits="userSpaceOnUse" primitiveUnits="userSpaceOnUse"><feFlood></feFlood><feComposite in2="SourceAlpha" operator="in"></feComposite><feGaussianBlur stdDeviation="0"></feGaussianBlur><feOffset dx="0.5" dy="0.5" result="afterOffset"></feOffset><feFlood flood-color="#000000" flood-opacity="1"></feFlood><feComposite in2="afterOffset" operator="in"></feComposite><feMorphology operator="dilate" radius="1"></feMorphology><feComposite in2="SourceAlpha" operator="out"></feComposite></filter><path d="M24.3 7.26C29.93 7.26 33.45 7.26 34.86 7.26C36.41 7.26 37.67 8.52 37.67 10.07C37.67 13.01 37.67 18.99 37.67 21.93C37.67 23.48 36.41 24.74 34.86 24.74C33.45 24.74 29.93 24.74 24.3 24.74L24.3 7.26Z" id="a7B1AnZjPp" fill="white" fill-opacity="1" filter="url(#shadow2963429)"></path></g><use xlink:href="#c31H4xs2OH" opacity="1" fill="#ffffff" fill-opacity="1"></use><g><use xlink:href="#c31H4xs2OH" opacity="1" fill-opacity="0" stroke="#000000" stroke-width="1" stroke-opacity="1"></use></g></g><g><use xlink:href="#aoeRjx8Pu" opacity="1" fill="#0071ff" fill-opacity="1"></use><g><use xlink:href="#aoeRjx8Pu" opacity="1" fill-opacity="0" stroke="#000000" stroke-width="1" stroke-opacity="1"></use></g><g><filter id="shadow8469695" x="21.14" y="4.58" width="20.68" height="23.83" filterUnits="userSpaceOnUse" primitiveUnits="userSpaceOnUse"><feFlood></feFlood><feComposite in2="SourceAlpha" operator="out"></feComposite><feGaussianBlur stdDeviation="0"></feGaussianBlur><feOffset dx="1" dy="1" result="afterOffset"></feOffset><feFlood flood-color="#000000" flood-opacity="1"></feFlood><feComposite in2="afterOffset" operator="in"></feComposite><feMorphology operator="dilate" radius="0.5"></feMorphology><feComposite in2="SourceAlpha" operator="in"></feComposite></filter><path d="M27.64 11.08C30.13 11.08 31.69 11.08 32.31 11.08C33.43 11.08 34.33 11.99 34.33 13.1C34.33 14.66 34.33 17.34 34.33 18.9C34.33 20.01 33.43 20.92 32.31 20.92C31.69 20.92 30.13 20.92 27.64 20.92L27.64 11.08Z" id="d1I2EQrDN" fill="white" fill-opacity="1" filter="url(#shadow8469695)"></path></g></g></g><g><g><use xlink:href="#a1dFFEs5a" opacity="1" fill="#ffffff" fill-opacity="1"></use><g><use xlink:href="#a1dFFEs5a" opacity="1" fill-opacity="0" stroke="#000000" stroke-width="0.5" stroke-opacity="1"></use></g></g><g><use xlink:href="#a1brV9BAlZ" opacity="1" fill="#c533de" fill-opacity="1"></use><g><use xlink:href="#a1brV9BAlZ" opacity="1" fill-opacity="0" stroke="#000000" stroke-width="0.5" stroke-opacity="1"></use></g><g><filter id="shadow8829743" x="-4.35" y="-4.33" width="40.67" height="40.67" filterUnits="userSpaceOnUse" primitiveUnits="userSpaceOnUse"><feFlood></feFlood><feComposite in2="SourceAlpha" operator="out"></feComposite><feGaussianBlur stdDeviation="0.45"></feGaussianBlur><feOffset dx="0" dy="0" result="afterOffset"></feOffset><feFlood flood-color="#ffffff" flood-opacity="0.5"></feFlood><feComposite in2="afterOffset" operator="in"></feComposite><feMorphology operator="dilate" radius="1"></feMorphology><feComposite in2="SourceAlpha" operator="in"></feComposite></filter><path d="M29.92 16C29.92 23.69 23.68 29.93 15.99 29.93C8.3 29.93 2.05 23.69 2.05 16C2.05 8.31 8.3 2.07 15.99 2.07C23.68 2.07 29.92 8.31 29.92 16Z" id="a1tWOW2ArT" fill="white" fill-opacity="1" filter="url(#shadow8829743)"></path></g></g><g><g><filter id="shadow1270930" x="0.95" y="0.96" width="30.57" height="30.57" filterUnits="userSpaceOnUse" primitiveUnits="userSpaceOnUse"><feFlood></feFlood><feComposite in2="SourceAlpha" operator="in"></feComposite><feGaussianBlur stdDeviation="0"></feGaussianBlur><feOffset dx="0.5" dy="0.5" result="afterOffset"></feOffset><feFlood flood-color="#000000" flood-opacity="1"></feFlood><feComposite in2="afterOffset" operator="in"></feComposite><feMorphology operator="dilate" radius="1"></feMorphology><feComposite in2="SourceAlpha" operator="out"></feComposite></filter><path d="M7.45 24.54L11.72 24.54L13.11 20.27L18.87 20.27L20.25 24.54L24.52 24.54L18.12 7.46L13.85 7.46L7.45 24.54Z" id="b19zM49ZES" fill="white" fill-opacity="1" filter="url(#shadow1270930)"></path></g><use xlink:href="#a17OnlPop" opacity="1" fill="#ffffff" fill-opacity="1"></use><g><use xlink:href="#a17OnlPop" opacity="1" fill-opacity="0" stroke="#000000" stroke-width="1" stroke-opacity="1"></use></g></g><g><use xlink:href="#dbFSe1Jrx" opacity="1" fill="#c533de" fill-opacity="1"></use><g><use xlink:href="#dbFSe1Jrx" opacity="1" fill-opacity="0" stroke="#000000" stroke-width="1" stroke-opacity="1"></use></g><g><filter id="shadow10702337" x="7.69" y="5.23" width="17.6" height="18.27" filterUnits="userSpaceOnUse" primitiveUnits="userSpaceOnUse"><feFlood></feFlood><feComposite in2="SourceAlpha" operator="out"></feComposite><feGaussianBlur stdDeviation="0"></feGaussianBlur><feOffset dx="1" dy="1" result="afterOffset"></feOffset><feFlood flood-color="#000000" flood-opacity="1"></feFlood><feComposite in2="afterOffset" operator="in"></feComposite><feMorphology operator="dilate" radius="0.5"></feMorphology><feComposite in2="SourceAlpha" operator="in"></feComposite></filter><path d="M15.99 11.73L17.78 16L14.19 16L15.99 11.73Z" id="a1kluSkSD" fill="white" fill-opacity="1" filter="url(#shadow10702337)"></path></g></g></g></g></g></svg>