<?xml version="1.0" encoding="UTF-8" standalone="no"?>
<!DOCTYPE svg PUBLIC "-//W3C//DTD SVG 1.1//EN" "http://www.w3.org/Graphics/SVG/1.1/DTD/svg11.dtd">
<svg version="1.1" xmlns="http://www.w3.org/2000/svg" xmlns:xlink="http://www.w3.org/1999/xlink" preserveAspectRatio="xMidYMid meet" viewBox="0 0 48 32" width="48" height="32"><defs><path d="M45.99 15.84C46.07 24.12 39.42 30.91 31.14 31C22.86 31.08 16.07 24.43 15.99 16.16C15.9 7.88 22.55 1.09 30.83 1C39.11 0.92 45.9 7.57 45.99 15.84Z" id="aiZ6X7MMG"></path><path d="M44.92 15.86C45 23.55 38.82 29.85 31.13 29.93C23.44 30.01 17.13 23.83 17.05 16.14C16.97 8.45 23.15 2.15 30.84 2.07C38.53 1.99 44.84 8.17 44.92 15.86Z" id="a5oogk8K9"></path><path d="M34.86 10.91L28.13 10.98L28.23 21.08C31.19 21.05 33.04 21.03 33.78 21.02C34.43 21.01 34.96 20.48 34.95 19.82C34.95 19.68 34.95 19.33 34.94 18.76L38.31 18.73C38.32 20.45 38.34 21.53 38.34 21.96C38.35 23.27 37.3 24.35 35.99 24.36C34.36 24.38 30.29 24.42 23.78 24.49L23.61 7.66L38.19 7.51L38.25 13.12L34.88 13.16L34.86 10.91Z" id="aPCnMSpT9"></path><path d="M30.99 16C30.99 24.28 24.27 31 15.99 31C7.71 31 0.99 24.28 0.99 16C0.99 7.72 7.71 1 15.99 1C24.27 1 30.99 7.72 30.99 16Z" id="d22zV2vRBq"></path><path d="M29.92 16C29.92 23.69 23.68 29.93 15.99 29.93C8.3 29.93 2.05 23.69 2.05 16C2.05 8.31 8.3 2.07 15.99 2.07C23.68 2.07 29.92 8.31 29.92 16Z" id="bjzvPFuo1"></path><path d="M21.46 24.66C22.16 24.66 22.73 24.09 22.71 23.39C22.63 19.31 22.59 16.85 22.59 16C22.59 15.4 22.14 16.6 22.14 16C22.14 15.49 22.14 14.35 22.14 13.83C22.14 11.17 22.14 9.66 22.14 8.61C22.14 7.91 21.57 7.34 20.86 7.34C18.54 7.34 12.86 7.34 10.54 7.34C9.83 7.34 9.26 7.91 9.26 8.61C9.26 11.82 9.26 20.18 9.26 23.39C9.26 24.09 9.83 24.66 10.54 24.66C12.98 24.66 19.02 24.66 21.46 24.66Z" id="bBID5d4hP"></path><path d="M12.79 14.44C15.81 14.44 17.7 14.44 18.46 14.44C18.86 14.44 19.18 14.12 19.18 13.71C19.18 12.99 19.18 11.56 19.18 10.84C19.18 10.43 18.86 10.11 18.46 10.11C17.7 10.11 15.81 10.11 12.79 10.11L12.79 14.44Z" id="b2TsqRqjzk"></path><path d="M12.79 21.74C15.94 21.74 17.91 21.74 18.69 21.74C18.96 21.74 19.18 21.52 19.18 21.25C19.18 20.48 19.18 18.67 19.18 17.9C19.18 17.63 18.96 17.41 18.69 17.41C17.91 17.41 15.94 17.41 12.79 17.41L12.79 21.74Z" id="b5R1IsCWDn"></path></defs><g><g><g><g><use xlink:href="#aiZ6X7MMG" opacity="1" fill="#ffffff" fill-opacity="1"></use><g><use xlink:href="#aiZ6X7MMG" opacity="1" fill-opacity="0" stroke="#000000" stroke-width="0.5" stroke-opacity="1"></use></g></g><g><use xlink:href="#a5oogk8K9" opacity="1" fill="#ef0808" fill-opacity="1"></use><g><use xlink:href="#a5oogk8K9" opacity="1" fill-opacity="0" stroke="#000000" stroke-width="0.5" stroke-opacity="1"></use></g><g><filter id="shadow11398231" x="10.65" y="-4.33" width="40.67" height="40.67" filterUnits="userSpaceOnUse" primitiveUnits="userSpaceOnUse"><feFlood></feFlood><feComposite in2="SourceAlpha" operator="out"></feComposite><feGaussianBlur stdDeviation="0.45"></feGaussianBlur><feOffset dx="0" dy="0" result="afterOffset"></feOffset><feFlood flood-color="#ffffff" flood-opacity="0.5"></feFlood><feComposite in2="afterOffset" operator="in"></feComposite><feMorphology operator="dilate" radius="1"></feMorphology><feComposite in2="SourceAlpha" operator="in"></feComposite></filter><path d="M44.92 15.86C45 23.55 38.82 29.85 31.13 29.93C23.44 30.01 17.13 23.83 17.05 16.14C16.97 8.45 23.15 2.15 30.84 2.07C38.53 1.99 44.84 8.17 44.92 15.86Z" id="j7Z0KOMCBu" fill="white" fill-opacity="1" filter="url(#shadow11398231)"></path></g></g><g><g><filter id="shadow9872354" x="17.11" y="1.01" width="28.23" height="30.48" filterUnits="userSpaceOnUse" primitiveUnits="userSpaceOnUse"><feFlood></feFlood><feComposite in2="SourceAlpha" operator="in"></feComposite><feGaussianBlur stdDeviation="0"></feGaussianBlur><feOffset dx="0.5" dy="0.5" result="afterOffset"></feOffset><feFlood flood-color="#000000" flood-opacity="1"></feFlood><feComposite in2="afterOffset" operator="in"></feComposite><feMorphology operator="dilate" radius="1"></feMorphology><feComposite in2="SourceAlpha" operator="out"></feComposite></filter><path d="M34.86 10.91L28.13 10.98L28.23 21.08C31.19 21.05 33.04 21.03 33.78 21.02C34.43 21.01 34.96 20.48 34.95 19.82C34.95 19.68 34.95 19.33 34.94 18.76L38.31 18.73C38.32 20.45 38.34 21.53 38.34 21.96C38.35 23.27 37.3 24.35 35.99 24.36C34.36 24.38 30.29 24.42 23.78 24.49L23.61 7.66L38.19 7.51L38.25 13.12L34.88 13.16L34.86 10.91Z" id="bz9DIWisb" fill="white" fill-opacity="1" filter="url(#shadow9872354)"></path></g><use xlink:href="#aPCnMSpT9" opacity="1" fill="#ffffff" fill-opacity="1"></use><g><use xlink:href="#aPCnMSpT9" opacity="1" fill-opacity="0" stroke="#000000" stroke-width="1" stroke-opacity="1"></use></g></g></g><g><g><use xlink:href="#d22zV2vRBq" opacity="1" fill="#ffffff" fill-opacity="1"></use><g><use xlink:href="#d22zV2vRBq" opacity="1" fill-opacity="0" stroke="#000000" stroke-width="0.5" stroke-opacity="1"></use></g></g><g><use xlink:href="#bjzvPFuo1" opacity="1" fill="#39da16" fill-opacity="1"></use><g><use xlink:href="#bjzvPFuo1" opacity="1" fill-opacity="0" stroke="#000000" stroke-width="0.5" stroke-opacity="1"></use></g><g><filter id="shadow10597146" x="-4.35" y="-4.33" width="40.67" height="40.67" filterUnits="userSpaceOnUse" primitiveUnits="userSpaceOnUse"><feFlood></feFlood><feComposite in2="SourceAlpha" operator="out"></feComposite><feGaussianBlur stdDeviation="0.45"></feGaussianBlur><feOffset dx="0" dy="0" result="afterOffset"></feOffset><feFlood flood-color="#ffffff" flood-opacity="0.5"></feFlood><feComposite in2="afterOffset" operator="in"></feComposite><feMorphology operator="dilate" radius="1"></feMorphology><feComposite in2="SourceAlpha" operator="in"></feComposite></filter><path d="M29.92 16C29.92 23.69 23.68 29.93 15.99 29.93C8.3 29.93 2.05 23.69 2.05 16C2.05 8.31 8.3 2.07 15.99 2.07C23.68 2.07 29.92 8.31 29.92 16Z" id="b1GE0yFZV" fill="white" fill-opacity="1" filter="url(#shadow10597146)"></path></g></g><g><g><filter id="shadow6223174" x="2.76" y="0.84" width="26.95" height="30.83" filterUnits="userSpaceOnUse" primitiveUnits="userSpaceOnUse"><feFlood></feFlood><feComposite in2="SourceAlpha" operator="in"></feComposite><feGaussianBlur stdDeviation="0"></feGaussianBlur><feOffset dx="0.5" dy="0.5" result="afterOffset"></feOffset><feFlood flood-color="#000000" flood-opacity="1"></feFlood><feComposite in2="afterOffset" operator="in"></feComposite><feMorphology operator="dilate" radius="1"></feMorphology><feComposite in2="SourceAlpha" operator="out"></feComposite></filter><path d="M21.46 24.66C22.16 24.66 22.73 24.09 22.71 23.39C22.63 19.31 22.59 16.85 22.59 16C22.59 15.4 22.14 16.6 22.14 16C22.14 15.49 22.14 14.35 22.14 13.83C22.14 11.17 22.14 9.66 22.14 8.61C22.14 7.91 21.57 7.34 20.86 7.34C18.54 7.34 12.86 7.34 10.54 7.34C9.83 7.34 9.26 7.91 9.26 8.61C9.26 11.82 9.26 20.18 9.26 23.39C9.26 24.09 9.83 24.66 10.54 24.66C12.98 24.66 19.02 24.66 21.46 24.66Z" id="b2bYvzrQn0" fill="white" fill-opacity="1" filter="url(#shadow6223174)"></path></g><use xlink:href="#bBID5d4hP" opacity="1" fill="#ffffff" fill-opacity="1"></use><g><use xlink:href="#bBID5d4hP" opacity="1" fill-opacity="0" stroke="#000000" stroke-width="1" stroke-opacity="1"></use></g></g><g><use xlink:href="#b2TsqRqjzk" opacity="1" fill="#39da16" fill-opacity="1"></use><g><use xlink:href="#b2TsqRqjzk" opacity="1" fill-opacity="0" stroke="#000000" stroke-width="1" stroke-opacity="1"></use></g><g><filter id="shadow15220579" x="6.29" y="3.61" width="20.39" height="18.33" filterUnits="userSpaceOnUse" primitiveUnits="userSpaceOnUse"><feFlood></feFlood><feComposite in2="SourceAlpha" operator="out"></feComposite><feGaussianBlur stdDeviation="0"></feGaussianBlur><feOffset dx="1" dy="1" result="afterOffset"></feOffset><feFlood flood-color="#000000" flood-opacity="1"></feFlood><feComposite in2="afterOffset" operator="in"></feComposite><feMorphology operator="dilate" radius="0.5"></feMorphology><feComposite in2="SourceAlpha" operator="in"></feComposite></filter><path d="M12.79 14.44C15.81 14.44 17.7 14.44 18.46 14.44C18.86 14.44 19.18 14.12 19.18 13.71C19.18 12.99 19.18 11.56 19.18 10.84C19.18 10.43 18.86 10.11 18.46 10.11C17.7 10.11 15.81 10.11 12.79 10.11L12.79 14.44Z" id="a5bmKRKzYD" fill="white" fill-opacity="1" filter="url(#shadow15220579)"></path></g></g><g><use xlink:href="#b5R1IsCWDn" opacity="1" fill="#39da16" fill-opacity="1"></use><g><use xlink:href="#b5R1IsCWDn" opacity="1" fill-opacity="0" stroke="#000000" stroke-width="1" stroke-opacity="1"></use></g><g><filter id="shadow3598023" x="6.29" y="10.91" width="20.39" height="18.33" filterUnits="userSpaceOnUse" primitiveUnits="userSpaceOnUse"><feFlood></feFlood><feComposite in2="SourceAlpha" operator="out"></feComposite><feGaussianBlur stdDeviation="0"></feGaussianBlur><feOffset dx="1" dy="1" result="afterOffset"></feOffset><feFlood flood-color="#000000" flood-opacity="1"></feFlood><feComposite in2="afterOffset" operator="in"></feComposite><feMorphology operator="dilate" radius="0.5"></feMorphology><feComposite in2="SourceAlpha" operator="in"></feComposite></filter><path d="M12.79 21.74C15.94 21.74 17.91 21.74 18.69 21.74C18.96 21.74 19.18 21.52 19.18 21.25C19.18 20.48 19.18 18.67 19.18 17.9C19.18 17.63 18.96 17.41 18.69 17.41C17.91 17.41 15.94 17.41 12.79 17.41L12.79 21.74Z" id="c2uui50dmJ" fill="white" fill-opacity="1" filter="url(#shadow3598023)"></path></g></g></g></g></g></svg>