<?xml version="1.0" encoding="UTF-8" standalone="no"?>
<!DOCTYPE svg PUBLIC "-//W3C//DTD SVG 1.1//EN" "http://www.w3.org/Graphics/SVG/1.1/DTD/svg11.dtd">
<svg version="1.1" xmlns="http://www.w3.org/2000/svg" xmlns:xlink="http://www.w3.org/1999/xlink" preserveAspectRatio="xMidYMid meet" viewBox="0 0 32 32" width="32" height="32"><defs><path d="M31 16C31 24.28 24.28 31 16 31C7.72 31 1 24.28 1 16C1 7.72 7.72 1 16 1C24.28 1 31 7.72 31 16Z" id="c16khVgNT9"></path><path d="M29.93 16C29.93 23.69 23.69 29.93 16 29.93C8.31 29.93 2.07 23.69 2.07 16C2.07 8.31 8.31 2.07 16 2.07C23.69 2.07 29.93 8.31 29.93 16Z" id="apEAIFa1m"></path><path d="M21.48 24.66C22.18 24.66 22.74 24.09 22.72 23.39C22.64 19.31 22.6 16.85 22.6 16C22.6 15.4 22.15 16.6 22.15 16C22.15 15.49 22.15 14.35 22.15 13.83C22.15 11.17 22.15 9.66 22.15 8.61C22.15 7.91 21.58 7.34 20.87 7.34C18.55 7.34 12.87 7.34 10.55 7.34C9.85 7.34 9.27 7.91 9.27 8.61C9.27 11.82 9.27 20.18 9.27 23.39C9.27 24.09 9.85 24.66 10.55 24.66C12.99 24.66 19.04 24.66 21.48 24.66Z" id="cjhHHD89g"></path><path d="M12.8 14.44C15.83 14.44 17.71 14.44 18.47 14.44C18.87 14.44 19.2 14.12 19.2 13.71C19.2 12.99 19.2 11.56 19.2 10.84C19.2 10.43 18.87 10.11 18.47 10.11C17.71 10.11 15.83 10.11 12.8 10.11L12.8 14.44Z" id="c4AZslUX5Q"></path><path d="M12.8 21.74C15.95 21.74 17.92 21.74 18.71 21.74C18.98 21.74 19.2 21.52 19.2 21.25C19.2 20.48 19.2 18.67 19.2 17.9C19.2 17.63 18.98 17.41 18.71 17.41C17.92 17.41 15.95 17.41 12.8 17.41L12.8 21.74Z" id="d7IqUA4RO"></path></defs><g><g><g><use xlink:href="#c16khVgNT9" opacity="1" fill="#ffffff" fill-opacity="1"></use><g><use xlink:href="#c16khVgNT9" opacity="1" fill-opacity="0" stroke="#000000" stroke-width="0.5" stroke-opacity="1"></use></g></g><g><use xlink:href="#apEAIFa1m" opacity="1" fill="#39da16" fill-opacity="1"></use><g><use xlink:href="#apEAIFa1m" opacity="1" fill-opacity="0" stroke="#000000" stroke-width="0.5" stroke-opacity="1"></use></g><g><filter id="shadow12137989" x="-4.33" y="-4.33" width="40.67" height="40.67" filterUnits="userSpaceOnUse" primitiveUnits="userSpaceOnUse"><feFlood></feFlood><feComposite in2="SourceAlpha" operator="out"></feComposite><feGaussianBlur stdDeviation="0.45"></feGaussianBlur><feOffset dx="0" dy="0" result="afterOffset"></feOffset><feFlood flood-color="#ffffff" flood-opacity="0.5"></feFlood><feComposite in2="afterOffset" operator="in"></feComposite><feMorphology operator="dilate" radius="1"></feMorphology><feComposite in2="SourceAlpha" operator="in"></feComposite></filter><path d="M29.93 16C29.93 23.69 23.69 29.93 16 29.93C8.31 29.93 2.07 23.69 2.07 16C2.07 8.31 8.31 2.07 16 2.07C23.69 2.07 29.93 8.31 29.93 16Z" id="c3qoILnLqA" fill="white" fill-opacity="1" filter="url(#shadow12137989)"></path></g></g><g><g><filter id="shadow4187478" x="2.77" y="0.84" width="26.95" height="30.83" filterUnits="userSpaceOnUse" primitiveUnits="userSpaceOnUse"><feFlood></feFlood><feComposite in2="SourceAlpha" operator="in"></feComposite><feGaussianBlur stdDeviation="0"></feGaussianBlur><feOffset dx="0.5" dy="0.5" result="afterOffset"></feOffset><feFlood flood-color="#000000" flood-opacity="1"></feFlood><feComposite in2="afterOffset" operator="in"></feComposite><feMorphology operator="dilate" radius="1"></feMorphology><feComposite in2="SourceAlpha" operator="out"></feComposite></filter><path d="M21.48 24.66C22.18 24.66 22.74 24.09 22.72 23.39C22.64 19.31 22.6 16.85 22.6 16C22.6 15.4 22.15 16.6 22.15 16C22.15 15.49 22.15 14.35 22.15 13.83C22.15 11.17 22.15 9.66 22.15 8.61C22.15 7.91 21.58 7.34 20.87 7.34C18.55 7.34 12.87 7.34 10.55 7.34C9.85 7.34 9.27 7.91 9.27 8.61C9.27 11.82 9.27 20.18 9.27 23.39C9.27 24.09 9.85 24.66 10.55 24.66C12.99 24.66 19.04 24.66 21.48 24.66Z" id="gobLGf0XF" fill="white" fill-opacity="1" filter="url(#shadow4187478)"></path></g><use xlink:href="#cjhHHD89g" opacity="1" fill="#ffffff" fill-opacity="1"></use><g><use xlink:href="#cjhHHD89g" opacity="1" fill-opacity="0" stroke="#000000" stroke-width="1" stroke-opacity="1"></use></g></g><g><use xlink:href="#c4AZslUX5Q" opacity="1" fill="#39da16" fill-opacity="1"></use><g><use xlink:href="#c4AZslUX5Q" opacity="1" fill-opacity="0" stroke="#000000" stroke-width="1" stroke-opacity="1"></use></g><g><filter id="shadow4382467" x="6.3" y="3.61" width="20.39" height="18.33" filterUnits="userSpaceOnUse" primitiveUnits="userSpaceOnUse"><feFlood></feFlood><feComposite in2="SourceAlpha" operator="out"></feComposite><feGaussianBlur stdDeviation="0"></feGaussianBlur><feOffset dx="1" dy="1" result="afterOffset"></feOffset><feFlood flood-color="#000000" flood-opacity="1"></feFlood><feComposite in2="afterOffset" operator="in"></feComposite><feMorphology operator="dilate" radius="0.5"></feMorphology><feComposite in2="SourceAlpha" operator="in"></feComposite></filter><path d="M12.8 14.44C15.83 14.44 17.71 14.44 18.47 14.44C18.87 14.44 19.2 14.12 19.2 13.71C19.2 12.99 19.2 11.56 19.2 10.84C19.2 10.43 18.87 10.11 18.47 10.11C17.71 10.11 15.83 10.11 12.8 10.11L12.8 14.44Z" id="ckkEjUvf5" fill="white" fill-opacity="1" filter="url(#shadow4382467)"></path></g></g><g><use xlink:href="#d7IqUA4RO" opacity="1" fill="#39da16" fill-opacity="1"></use><g><use xlink:href="#d7IqUA4RO" opacity="1" fill-opacity="0" stroke="#000000" stroke-width="1" stroke-opacity="1"></use></g><g><filter id="shadow6787209" x="6.3" y="10.91" width="20.39" height="18.33" filterUnits="userSpaceOnUse" primitiveUnits="userSpaceOnUse"><feFlood></feFlood><feComposite in2="SourceAlpha" operator="out"></feComposite><feGaussianBlur stdDeviation="0"></feGaussianBlur><feOffset dx="1" dy="1" result="afterOffset"></feOffset><feFlood flood-color="#000000" flood-opacity="1"></feFlood><feComposite in2="afterOffset" operator="in"></feComposite><feMorphology operator="dilate" radius="0.5"></feMorphology><feComposite in2="SourceAlpha" operator="in"></feComposite></filter><path d="M12.8 21.74C15.95 21.74 17.92 21.74 18.71 21.74C18.98 21.74 19.2 21.52 19.2 21.25C19.2 20.48 19.2 18.67 19.2 17.9C19.2 17.63 18.98 17.41 18.71 17.41C17.92 17.41 15.95 17.41 12.8 17.41L12.8 21.74Z" id="a83gI5N2nO" fill="white" fill-opacity="1" filter="url(#shadow6787209)"></path></g></g></g></g></svg>