<?xml version="1.0" encoding="UTF-8" standalone="no"?>
<!DOCTYPE svg PUBLIC "-//W3C//DTD SVG 1.1//EN" "http://www.w3.org/Graphics/SVG/1.1/DTD/svg11.dtd">
<svg version="1.1" xmlns="http://www.w3.org/2000/svg" xmlns:xlink="http://www.w3.org/1999/xlink" preserveAspectRatio="xMidYMid meet" viewBox="0 0 32 32" width="32" height="32"><defs><path d="M29.77 29.42C30.86 28.7 31.51 27.49 31.51 26.19C31.51 21.05 31.51 7.71 31.51 2.57C31.51 1.43 30.57 0.49 29.43 0.49C24.29 0.49 10.95 0.49 5.81 0.49C4.51 0.49 3.3 1.14 2.58 2.23C2.02 3.07 1.48 3.87 0.92 4.71C0.25 5.72 0.38 7.06 1.24 7.92C6.1 12.78 19.22 25.9 24.08 30.76C24.94 31.62 26.28 31.75 27.29 31.08C28.13 30.52 28.93 29.98 29.77 29.42Z" id="a2Au1Um3Kc"></path><path d="M29.01 28.61C29.94 27.92 30.49 26.82 30.49 25.66C30.49 20.83 30.49 8.2 30.49 3.38C30.49 2.34 29.66 1.51 28.62 1.51C23.8 1.51 11.13 1.51 6.29 1.51C5.16 1.51 4.11 2.06 3.47 2.98C3.01 3.66 2.62 4.23 2.15 4.91C1.57 5.75 1.67 6.89 2.4 7.62C7.09 12.29 19.89 25.03 24.58 29.7C25.31 30.43 26.46 30.51 27.29 29.89C27.93 29.42 28.38 29.08 29.01 28.61Z" id="d4VUELcYRo"></path><path d="M14.54 18.66L17.94 18.66L17.94 13.89C21.66 13.89 23.98 13.89 24.91 13.89C25.76 13.89 26.44 13.2 26.44 12.35C26.44 10.75 26.44 7.49 26.44 5.89C26.44 5.04 25.76 4.35 24.91 4.35C23.52 4.35 20.07 4.35 14.54 4.35L14.54 18.66Z" id="a3KYGb1AMI"></path><path d="M18.09 10.94C20.49 10.94 21.99 10.94 22.59 10.94C23.41 10.94 24.08 10.27 24.08 9.44C24.08 9.06 24.08 9.42 24.08 9.04C24.08 8.21 23.41 7.54 22.59 7.54C21.99 7.54 20.49 7.54 18.09 7.54L18.09 10.94Z" id="a153Lwx1gO"></path></defs><g><g><g><use xlink:href="#a2Au1Um3Kc" opacity="1" fill="#ffffff" fill-opacity="1"></use><g><use xlink:href="#a2Au1Um3Kc" opacity="1" fill-opacity="0" stroke="#000000" stroke-width="1" stroke-opacity="1"></use></g></g><g><use xlink:href="#d4VUELcYRo" opacity="1" fill="#e3bd13" fill-opacity="1"></use><g><use xlink:href="#d4VUELcYRo" opacity="1" fill-opacity="0" stroke="#000000" stroke-width="0.5" stroke-opacity="1"></use></g><g><filter id="shadow3991651" x="-4.23" y="-4.49" width="40.72" height="40.8" filterUnits="userSpaceOnUse" primitiveUnits="userSpaceOnUse"><feFlood></feFlood><feComposite in2="SourceAlpha" operator="out"></feComposite><feGaussianBlur stdDeviation="0"></feGaussianBlur><feOffset dx="0" dy="0" result="afterOffset"></feOffset><feFlood flood-color="#ffffff" flood-opacity="0.8"></feFlood><feComposite in2="afterOffset" operator="in"></feComposite><feMorphology operator="dilate" radius="1"></feMorphology><feComposite in2="SourceAlpha" operator="in"></feComposite></filter><path d="M29.01 28.61C29.94 27.92 30.49 26.82 30.49 25.66C30.49 20.83 30.49 8.2 30.49 3.38C30.49 2.34 29.66 1.51 28.62 1.51C23.8 1.51 11.13 1.51 6.29 1.51C5.16 1.51 4.11 2.06 3.47 2.98C3.01 3.66 2.62 4.23 2.15 4.91C1.57 5.75 1.67 6.89 2.4 7.62C7.09 12.29 19.89 25.03 24.58 29.7C25.31 30.43 26.46 30.51 27.29 29.89C27.93 29.42 28.38 29.08 29.01 28.61Z" id="a1txqNmwqY" fill="white" fill-opacity="1" filter="url(#shadow3991651)"></path></g></g><g><g><filter id="shadow5169330" x="8.04" y="-2.15" width="25.4" height="27.81" filterUnits="userSpaceOnUse" primitiveUnits="userSpaceOnUse"><feFlood></feFlood><feComposite in2="SourceAlpha" operator="in"></feComposite><feGaussianBlur stdDeviation="0"></feGaussianBlur><feOffset dx="0.5" dy="0.5" result="afterOffset"></feOffset><feFlood flood-color="#000000" flood-opacity="1"></feFlood><feComposite in2="afterOffset" operator="in"></feComposite><feMorphology operator="dilate" radius="1"></feMorphology><feComposite in2="SourceAlpha" operator="out"></feComposite></filter><path d="M14.54 18.66L17.94 18.66L17.94 13.89C21.66 13.89 23.98 13.89 24.91 13.89C25.76 13.89 26.44 13.2 26.44 12.35C26.44 10.75 26.44 7.49 26.44 5.89C26.44 5.04 25.76 4.35 24.91 4.35C23.52 4.35 20.07 4.35 14.54 4.35L14.54 18.66Z" id="b1gk9EbaWq" fill="white" fill-opacity="1" filter="url(#shadow5169330)"></path></g><use xlink:href="#a3KYGb1AMI" opacity="1" fill="#ffffff" fill-opacity="1"></use><g><use xlink:href="#a3KYGb1AMI" opacity="1" fill-opacity="0" stroke="#000000" stroke-width="1" stroke-opacity="1"></use></g></g><g><use xlink:href="#a153Lwx1gO" opacity="1" fill="#e3bd13" fill-opacity="1"></use><g><use xlink:href="#a153Lwx1gO" opacity="1" fill-opacity="0" stroke="#000000" stroke-width="1" stroke-opacity="1"></use></g><g><filter id="shadow16565907" x="11.59" y="1.04" width="19.49" height="16.9" filterUnits="userSpaceOnUse" primitiveUnits="userSpaceOnUse"><feFlood></feFlood><feComposite in2="SourceAlpha" operator="out"></feComposite><feGaussianBlur stdDeviation="0"></feGaussianBlur><feOffset dx="0.5" dy="0.5" result="afterOffset"></feOffset><feFlood flood-color="#000000" flood-opacity="1"></feFlood><feComposite in2="afterOffset" operator="in"></feComposite><feMorphology operator="dilate" radius="1"></feMorphology><feComposite in2="SourceAlpha" operator="in"></feComposite></filter><path d="M18.09 10.94C20.49 10.94 21.99 10.94 22.59 10.94C23.41 10.94 24.08 10.27 24.08 9.44C24.08 9.06 24.08 9.42 24.08 9.04C24.08 8.21 23.41 7.54 22.59 7.54C21.99 7.54 20.49 7.54 18.09 7.54L18.09 10.94Z" id="a61NS0fbE" fill="white" fill-opacity="1" filter="url(#shadow16565907)"></path></g></g></g></g></svg>