<?xml version="1.0" encoding="UTF-8" standalone="no"?>
<!DOCTYPE svg PUBLIC "-//W3C//DTD SVG 1.1//EN" "http://www.w3.org/Graphics/SVG/1.1/DTD/svg11.dtd">
<svg version="1.1" xmlns="http://www.w3.org/2000/svg" xmlns:xlink="http://www.w3.org/1999/xlink" preserveAspectRatio="xMidYMid meet" viewBox="0 0 32 32" width="32" height="32"><defs><path d="M8.5 16.41C4.36 16.41 1 13.33 1 9.53C1 5.74 4.36 2.66 8.5 2.66C12.64 2.66 16 5.74 16 9.53C16 13.33 12.64 16.41 8.5 16.41Z" id="a1Yoiw7wdq"></path><path d="M8.5 15.31C5.02 15.31 2.19 12.72 2.19 9.53C2.19 6.34 5.02 3.75 8.5 3.75C11.98 3.75 14.81 6.34 14.81 9.53C14.81 12.72 11.98 15.31 8.5 15.31Z" id="cxjjA1190"></path><path d="M23.5 15.03C19.36 15.03 16 11.95 16 8.16C16 4.36 19.36 1.28 23.5 1.28C27.64 1.28 31 4.36 31 8.16C31 11.95 27.64 15.03 23.5 15.03Z" id="a9nD95wn"></path><path d="M23.5 13.94C20.02 13.94 17.19 11.35 17.19 8.16C17.19 4.97 20.02 2.38 23.5 2.38C26.98 2.38 29.81 4.97 29.81 8.16C29.81 11.35 26.98 13.94 23.5 13.94Z" id="b2HbEi674W"></path><path d="M8.5 30.72C4.36 30.72 1 27.64 1 23.84C1 20.05 4.36 16.97 8.5 16.97C12.64 16.97 16 20.05 16 23.84C16 27.64 12.64 30.72 8.5 30.72Z" id="by7U72rVl"></path><path d="M8.5 29.62C5.02 29.62 2.19 27.03 2.19 23.84C2.19 20.65 5.02 18.06 8.5 18.06C11.98 18.06 14.81 20.65 14.81 23.84C14.81 27.03 11.98 29.62 8.5 29.62Z" id="c1la0ENz2l"></path><path d="M23.5 29.34C19.36 29.34 16 26.26 16 22.47C16 18.67 19.36 15.59 23.5 15.59C27.64 15.59 31 18.67 31 22.47C31 26.26 27.64 29.34 23.5 29.34Z" id="btWDDOCF9"></path><path d="M23.5 28.25C20.02 28.25 17.19 25.66 17.19 22.47C17.19 19.28 20.02 16.69 23.5 16.69C26.98 16.69 29.81 19.28 29.81 22.47C29.81 25.66 26.98 28.25 23.5 28.25Z" id="aocZHFv4F"></path></defs><g><g><g><use xlink:href="#a1Yoiw7wdq" opacity="1" fill="#3f5554" fill-opacity="1"></use><g><use xlink:href="#a1Yoiw7wdq" opacity="1" fill-opacity="0" stroke="#000000" stroke-width="1" stroke-opacity="1"></use></g></g><g><use xlink:href="#cxjjA1190" opacity="1" fill="#000000" fill-opacity="0"></use><g><use xlink:href="#cxjjA1190" opacity="1" fill-opacity="0" stroke="#000000" stroke-width="0.5" stroke-opacity="1"></use></g></g><g><use xlink:href="#a9nD95wn" opacity="1" fill="#ecdb33" fill-opacity="1"></use><g><use xlink:href="#a9nD95wn" opacity="1" fill-opacity="0" stroke="#000000" stroke-width="1" stroke-opacity="1"></use></g></g><g><use xlink:href="#b2HbEi674W" opacity="1" fill="#000000" fill-opacity="0"></use><g><use xlink:href="#b2HbEi674W" opacity="1" fill-opacity="0" stroke="#000000" stroke-width="0.5" stroke-opacity="1"></use></g></g><g><use xlink:href="#by7U72rVl" opacity="1" fill="#3cff4e" fill-opacity="1"></use><g><use xlink:href="#by7U72rVl" opacity="1" fill-opacity="0" stroke="#000000" stroke-width="1" stroke-opacity="1"></use></g></g><g><use xlink:href="#c1la0ENz2l" opacity="1" fill="#000000" fill-opacity="0"></use><g><use xlink:href="#c1la0ENz2l" opacity="1" fill-opacity="0" stroke="#000000" stroke-width="0.5" stroke-opacity="1"></use></g></g><g><use xlink:href="#btWDDOCF9" opacity="1" fill="#3f5554" fill-opacity="1"></use><g><use xlink:href="#btWDDOCF9" opacity="1" fill-opacity="0" stroke="#000000" stroke-width="1" stroke-opacity="1"></use></g></g><g><use xlink:href="#aocZHFv4F" opacity="1" fill="#000000" fill-opacity="0"></use><g><use xlink:href="#aocZHFv4F" opacity="1" fill-opacity="0" stroke="#000000" stroke-width="0.5" stroke-opacity="1"></use></g></g></g></g></svg>