<?xml version="1.0" encoding="UTF-8"?>
<svg width="29px" height="30px" viewBox="0 0 29 30" version="1.1" xmlns="http://www.w3.org/2000/svg" xmlns:xlink="http://www.w3.org/1999/xlink">
    <!-- Generator: Sketch 57.1 (83088) - https://sketch.com -->
    <title>ggst_button_hs</title>
    <desc>Created with Sketch.</desc>
    <defs>
        <linearGradient x1="50%" y1="0.0765413851%" x2="50%" y2="100%" id="linearGradient-1">
            <stop stop-color="#727272" offset="0.0765413851%"></stop>
            <stop stop-color="#202020" offset="100%"></stop>
        </linearGradient>
        <path d="M14.05,28.1 C6.3,28.1 -4.61852778e-14,21.8 -4.61852778e-14,14.05 C-4.61852778e-14,6.3 6.3,1.0658141e-14 14.05,1.0658141e-14 C21.8,1.0658141e-14 28.1,6.3 28.1,14.05 C28.1,21.8 21.8,28.1 14.05,28.1 Z" id="path-2"></path>
        <filter x="-2.2%" y="-2.2%" width="108.0%" height="108.9%" filterUnits="objectBoundingBox" id="filter-3">
            <feMorphology radius="0.125" operator="dilate" in="SourceAlpha" result="shadowSpreadOuter1"></feMorphology>
            <feOffset dx="0.75" dy="1" in="shadowSpreadOuter1" result="shadowOffsetOuter1"></feOffset>
            <feColorMatrix values="0 0 0 0 0   0 0 0 0 0   0 0 0 0 0  0 0 0 1 0" type="matrix" in="shadowOffsetOuter1"></feColorMatrix>
        </filter>
    </defs>
    <g id="Page-1" stroke="none" stroke-width="1" fill="none" fill-rule="evenodd">
        <g id="ggst_button_hs">
            <g id="bg" fill-rule="nonzero">
                <g id="circle">
                    <use fill="black" fill-opacity="1" filter="url(#filter-3)" xlink:href="#path-2"></use>
                    <use fill="#444444" xlink:href="#path-2"></use>
                    <use fill="url(#linearGradient-1)" xlink:href="#path-2"></use>
                </g>
            </g>
            <g id="HS" transform="translate(6.000000, 6.000000)" stroke-linecap="round">
                <g id="Border" stroke="#323232" stroke-width="3">
                    <g id="S" transform="translate(9.842105, 0.000000)">
                        <path d="M7.15789474,3.11553229 C6.46826728,0.279044848 1.629059,-1.89636486 0.346365269,2.50367623 C-0.936328465,6.90371732 1.629059,9.17898344 3.38530692,9.17898344 C5.14155483,9.17898344 7.15789474,9.9717115 6.46826728,13.8810157 C5.77863981,17.7903198 1.59574538,18.0690308 0.346365269,14.4664278" id="Path-3-Copy-2" transform="translate(3.578947, 8.500000) rotate(-180.000000) translate(-3.578947, -8.500000) "></path>
                    </g>
                    <g id="H">
                        <path d="M0.447368421,0 L0.447368421,17" id="Path-3"></path>
                        <path d="M7.60526316,0 L7.60526316,17" id="Path-3-Copy"></path>
                        <path d="M0.894736842,8.97222222 L7.15789474,8.97222222" id="Path-4"></path>
                    </g>
                </g>
                <g id="S" transform="translate(10.000000, 0.000000)" stroke="#FB3234" stroke-width="1.5">
                    <path d="M7,3.11553229 C6.32558491,0.279044848 1.59312388,-1.89636486 0.338724859,2.50367623 C-0.915674161,6.90371732 1.59312388,9.17898344 3.31063103,9.17898344 C5.02813818,9.17898344 7,9.9717115 6.32558491,13.8810157 C5.65116982,17.7903198 1.56054512,18.0690308 0.338724859,14.4664278" id="Path-3-Copy-2" transform="translate(3.500000, 8.500000) rotate(-180.000000) translate(-3.500000, -8.500000) "></path>
                </g>
                <g id="H" stroke="#FB3234" stroke-width="1.5">
                    <path d="M0.444444444,0 L0.444444444,17" id="Path-3"></path>
                    <path d="M7.55555556,0 L7.55555556,17" id="Path-3-Copy"></path>
                    <path d="M0.888888889,8.97222222 L7.11111111,8.97222222" id="Path-4"></path>
                </g>
            </g>
        </g>
    </g>
</svg>