<?xml version="1.0" encoding="UTF-8" standalone="no"?>
<!DOCTYPE svg PUBLIC "-//W3C//DTD SVG 1.1//EN" "http://www.w3.org/Graphics/SVG/1.1/DTD/svg11.dtd">
<svg version="1.1" xmlns="http://www.w3.org/2000/svg" xmlns:xlink="http://www.w3.org/1999/xlink" preserveAspectRatio="xMidYMid meet" viewBox="0 0 48 32" width="48" height="32"><defs><path d="M15.8 28.87C8.49 28.87 2.55 22.93 2.55 15.62C2.55 8.31 8.49 2.37 15.8 2.37C23.11 2.37 29.05 8.31 29.05 15.62C29.05 22.93 23.11 28.87 15.8 28.87Z" id="h2MlkS7xxI"></path><path d="M15.8 28.87C8.49 28.87 2.55 22.93 2.55 15.62C2.55 8.31 8.49 2.37 15.8 2.37C23.11 2.37 29.05 8.31 29.05 15.62C29.05 22.93 23.11 28.87 15.8 28.87Z" id="f6n8IcCtg"></path><path d="M14.97 21.95C14.89 22.58 14.84 22.98 14.82 23.14C14.81 23.23 14.85 23.32 14.93 23.37C15.62 23.82 16.78 24.57 17.27 24.9C17.92 25.32 18.77 25.21 19.3 24.66C21.53 22.3 27.04 16.48 29.21 14.2C29.89 13.48 29.81 12.34 29.04 11.72C27.59 10.55 24.13 7.75 22.54 6.47C22.15 6.16 21.58 6.27 21.33 6.7C20.71 7.8 19.39 10.14 18.78 11.2C18.43 11.83 17.79 12.24 17.07 12.29C16.22 12.36 14.68 12.48 13.79 12.54C13.14 12.59 12.47 12.54 11.83 12.38C11.62 12.33 11.1 12.2 10.27 11.99C8.31 11.5 7.08 11.19 6.59 11.07C6.09 10.94 5.57 11.06 5.17 11.38C4.3 12.1 2.82 13.3 2.08 13.91C1.45 14.42 1.52 15.39 2.21 15.81C4.13 16.97 9.37 20.15 11.52 21.45C11.69 21.55 11.91 21.56 12.09 21.46C12.23 21.38 12.58 21.18 13.13 20.87C13.5 21.09 14.79 21.84 14.97 21.95Z" id="c1cSBsqxlt"></path><path d="M14.97 21.95C14.89 22.58 14.84 22.98 14.82 23.14C14.81 23.23 14.85 23.32 14.93 23.37C15.62 23.82 16.78 24.57 17.27 24.9C17.92 25.32 18.77 25.21 19.3 24.66C21.53 22.3 27.04 16.48 29.21 14.2C29.89 13.48 29.81 12.34 29.04 11.72C27.59 10.55 24.13 7.75 22.54 6.47C22.15 6.16 21.58 6.27 21.33 6.7C20.71 7.8 19.39 10.14 18.78 11.2C18.43 11.83 17.79 12.24 17.07 12.29C16.22 12.36 14.68 12.48 13.79 12.54C13.14 12.59 12.47 12.54 11.83 12.38C11.62 12.33 11.1 12.2 10.27 11.99C8.31 11.5 7.08 11.19 6.59 11.07C6.09 10.94 5.57 11.06 5.17 11.38C4.3 12.1 2.82 13.3 2.08 13.91C1.45 14.42 1.52 15.39 2.21 15.81C4.13 16.97 9.37 20.15 11.52 21.45C11.69 21.55 11.91 21.56 12.09 21.46C12.23 21.38 12.58 21.18 13.13 20.87C13.5 21.09 14.79 21.84 14.97 21.95Z" id="a63cx1Zfh"></path><path d="M20.8 22.95C19.51 22.1 18.7 21.57 18.37 21.36C18.22 21.26 18.13 21.1 18.11 20.92C18.1 20.81 18.08 20.55 18.05 20.12C17.64 19.87 14.38 17.87 13.97 17.62C13.37 17.9 13 18.07 12.85 18.14C12.66 18.23 12.44 18.22 12.26 18.12C11.09 17.43 8.16 15.71 3.47 12.95" id="e6w4L6acKB"></path><path d="M8.66 30.47L8.66 27.53L3.61 27.53L3.61 18.98L0.95 18.98L0.95 30.47L8.66 30.47Z" id="d8DUoRZGOl"></path><path d="M8.66 30.47L8.66 27.53L3.61 27.53L3.61 18.98L0.95 18.98L0.95 30.47L8.66 30.47Z" id="a3i2O23kgf"></path><path d="M47.05 15.62C47.05 22.93 41.11 28.87 33.8 28.87C26.49 28.87 20.55 22.93 20.55 15.62C20.55 8.31 26.49 2.37 33.8 2.37C41.11 2.37 47.05 8.31 47.05 15.62Z" id="bhfyIByn"></path><path d="M31.13 20.87L32.97 21.95C32.89 22.59 32.84 22.98 32.82 23.14C32.81 23.23 32.85 23.32 32.93 23.37C33.62 23.82 34.78 24.57 35.27 24.9C35.92 25.32 36.77 25.22 37.3 24.66C39.53 22.3 45.04 16.48 47.21 14.2C47.89 13.48 47.81 12.34 47.04 11.72C45.6 10.55 42.13 7.75 40.54 6.47C40.15 6.16 39.58 6.27 39.33 6.7C38.71 7.8 37.39 10.14 36.78 11.2C36.43 11.83 35.79 12.24 35.07 12.29C34.22 12.36 32.68 12.48 31.79 12.54C31.14 12.6 30.47 12.54 29.83 12.38C29.63 12.33 29.1 12.2 28.27 11.99C26.31 11.5 25.08 11.19 24.59 11.07C24.09 10.94 23.57 11.06 23.17 11.38C22.3 12.1 20.82 13.3 20.08 13.91C19.45 14.42 19.52 15.39 20.21 15.81C22.13 16.97 27.37 20.15 29.52 21.45C29.69 21.55 29.91 21.56 30.09 21.46C30.23 21.38 30.58 21.18 31.13 20.87Z" id="aBVpjA52e"></path><path d="M38.8 22.95C37.51 22.1 36.7 21.57 36.37 21.36C36.22 21.26 36.13 21.1 36.11 20.92C36.1 20.81 36.08 20.55 36.05 20.12L31.97 17.62C31.37 17.9 31 18.08 30.85 18.15C30.66 18.23 30.44 18.22 30.26 18.12C29.09 17.43 26.16 15.71 21.47 12.95" id="bzq1Hl8Da"></path><path d="M23.42 23.45L21.76 23.45L21.76 18.98L18.95 18.98L18.95 30.47L21.76 30.47L21.76 26.13L23.42 26.13" id="olOliCfex"></path><path d="M22.83 23.45L24.49 23.45L24.49 18.98L27.3 18.98L27.3 30.47L24.49 30.47L24.49 26.13L22.83 26.13" id="dgnx4PdQX"></path></defs><g><g><g><g><use xlink:href="#h2MlkS7xxI" opacity="1" fill="#000000" fill-opacity="1"></use><g><use xlink:href="#h2MlkS7xxI" opacity="1" fill-opacity="0" stroke="#000000" stroke-width="1" stroke-opacity="0"></use></g></g><g><use xlink:href="#f6n8IcCtg" opacity="1" fill="#000000" fill-opacity="0"></use><g><use xlink:href="#f6n8IcCtg" opacity="1" fill-opacity="0" stroke="#5da9c0" stroke-width="1" stroke-opacity="1"></use></g></g><g><use xlink:href="#c1cSBsqxlt" opacity="1" fill="#5da9c0" fill-opacity="1"></use><g><use xlink:href="#c1cSBsqxlt" opacity="1" fill-opacity="0" stroke="#000000" stroke-width="1" stroke-opacity="0"></use></g></g><g><use xlink:href="#a63cx1Zfh" opacity="1" fill="#000000" fill-opacity="0"></use><g><use xlink:href="#a63cx1Zfh" opacity="1" fill-opacity="0" stroke="#d4ffff" stroke-width="1" stroke-opacity="1"></use></g></g><g><use xlink:href="#e6w4L6acKB" opacity="1" fill="#000000" fill-opacity="0"></use><g><use xlink:href="#e6w4L6acKB" opacity="1" fill-opacity="0" stroke="#d4ffff" stroke-width="1" stroke-opacity="1"></use></g></g><g><use xlink:href="#d8DUoRZGOl" opacity="1" fill="#ffffff" fill-opacity="1"></use><g><use xlink:href="#d8DUoRZGOl" opacity="1" fill-opacity="0" stroke="#000000" stroke-width="1" stroke-opacity="0"></use></g></g><g><use xlink:href="#a3i2O23kgf" opacity="1" fill="#000000" fill-opacity="0"></use><g><use xlink:href="#a3i2O23kgf" opacity="1" fill-opacity="0" stroke="#1b3a68" stroke-width="1" stroke-opacity="1"></use></g></g></g><g><g><use xlink:href="#bhfyIByn" opacity="1" fill="#000000" fill-opacity="1"></use><g><use xlink:href="#bhfyIByn" opacity="1" fill-opacity="0" stroke="#2081b4" stroke-width="1" stroke-opacity="1"></use></g></g><g><use xlink:href="#aBVpjA52e" opacity="1" fill="#2081b4" fill-opacity="1"></use><g><use xlink:href="#aBVpjA52e" opacity="1" fill-opacity="0" stroke="#48fbf9" stroke-width="1" stroke-opacity="1"></use></g></g><g><g><use xlink:href="#bzq1Hl8Da" opacity="1" fill-opacity="0" stroke="#48fbf9" stroke-width="1" stroke-opacity="1"></use></g></g><g><g><use xlink:href="#olOliCfex" opacity="1" fill="#ffffff" fill-opacity="1"></use><g><use xlink:href="#olOliCfex" opacity="1" fill-opacity="0" stroke="#1b3a68" stroke-width="1" stroke-opacity="1"></use></g></g><g><use xlink:href="#dgnx4PdQX" opacity="1" fill="#ffffff" fill-opacity="1"></use><g><use xlink:href="#dgnx4PdQX" opacity="1" fill-opacity="0" stroke="#1b3a68" stroke-width="1" stroke-opacity="1"></use></g></g></g></g></g></g></svg>