<?xml version="1.0" encoding="UTF-8" standalone="no"?>
<!DOCTYPE svg PUBLIC "-//W3C//DTD SVG 1.1//EN" "http://www.w3.org/Graphics/SVG/1.1/DTD/svg11.dtd">
<svg version="1.1" xmlns="http://www.w3.org/2000/svg" xmlns:xlink="http://www.w3.org/1999/xlink" preserveAspectRatio="xMidYMid meet" viewBox="0 0 150 150" width="32" height="32"><defs><path d="M75 48.63C75 66.42 59.25 80.86 39.84 80.86C20.44 80.86 4.69 66.42 4.69 48.63C4.69 30.85 20.44 16.41 39.84 16.41C59.25 16.41 75 30.85 75 48.63Z" id="b1qr1iQaQ3"></path><path d="M145.31 36.91C145.31 54.7 129.56 69.14 110.16 69.14C90.75 69.14 75 54.7 75 36.91C75 19.13 90.75 4.69 110.16 4.69C129.56 4.69 145.31 19.13 145.31 36.91Z" id="a1fuRTbCwD"></path><path d="M75 113.09C75 130.87 59.25 145.31 39.84 145.31C20.44 145.31 4.69 130.87 4.69 113.09C4.69 95.3 20.44 80.86 39.84 80.86C59.25 80.86 75 95.3 75 113.09Z" id="e4KImp6ah"></path><path d="M145.31 101.37C145.31 119.15 129.56 133.59 110.16 133.59C90.75 133.59 75 119.15 75 101.37C75 83.58 90.75 69.14 110.16 69.14C129.56 69.14 145.31 83.58 145.31 101.37Z" id="a1E8aKkNP3"></path></defs><g><g><g><use xlink:href="#b1qr1iQaQ3" opacity="1" fill="#40ccd0" fill-opacity="1"></use><g><use xlink:href="#b1qr1iQaQ3" opacity="1" fill-opacity="0" stroke="#111005" stroke-width="5" stroke-opacity="1"></use></g></g><g><use xlink:href="#a1fuRTbCwD" opacity="1" fill="#3f5554" fill-opacity="1"></use><g><use xlink:href="#a1fuRTbCwD" opacity="1" fill-opacity="0" stroke="#000000" stroke-width="5" stroke-opacity="1"></use></g></g><g><use xlink:href="#e4KImp6ah" opacity="1" fill="#3cff4e" fill-opacity="1"></use><g><use xlink:href="#e4KImp6ah" opacity="1" fill-opacity="0" stroke="#000000" stroke-width="5" stroke-opacity="1"></use></g></g><g><g><filter id="shadow13740532" x="66" y="60.14" width="89.31" height="83.45" filterUnits="userSpaceOnUse" primitiveUnits="userSpaceOnUse"><feFlood></feFlood><feComposite in2="SourceAlpha" operator="in"></feComposite><feGaussianBlur stdDeviation="1"></feGaussianBlur><feOffset dx="1" dy="1" result="afterOffset"></feOffset><feFlood flood-color="#000000" flood-opacity="0.5"></feFlood><feComposite in2="afterOffset" operator="in"></feComposite><feMorphology operator="dilate" radius="1"></feMorphology><feComposite in2="SourceAlpha" operator="out"></feComposite></filter><path d="M145.31 101.37C145.31 119.15 129.56 133.59 110.16 133.59C90.75 133.59 75 119.15 75 101.37C75 83.58 90.75 69.14 110.16 69.14C129.56 69.14 145.31 83.58 145.31 101.37Z" id="c7cqswpxHD" fill="white" fill-opacity="1" filter="url(#shadow13740532)"></path></g><use xlink:href="#a1E8aKkNP3" opacity="1" fill="#3f5554" fill-opacity="1"></use><g><use xlink:href="#a1E8aKkNP3" opacity="1" fill-opacity="0" stroke="#000000" stroke-width="5" stroke-opacity="1"></use></g></g></g></g></svg>