<?xml version="1.0" encoding="UTF-8"?>
<svg width="30px" height="30px" viewBox="0 0 30 30" version="1.1" xmlns="http://www.w3.org/2000/svg" xmlns:xlink="http://www.w3.org/1999/xlink">
    <!-- Generator: Sketch 55.1 (78136) - https://sketchapp.com -->
    <title>unib_button_b</title>
    <desc>Created with Sketch.</desc>
    <g id="Page-1" stroke="none" stroke-width="1" fill="none" fill-rule="evenodd">
        <g id="unib_button_b">
            <g id="Circle">
                <circle id="Oval" fill="#FFFFFF" cx="15" cy="15" r="15"></circle>
                <circle id="Oval" fill="#E5630B" cx="15" cy="15" r="13.2"></circle>
            </g>
            <g id="Letter" transform="translate(5.000000, 5.000000)">
                <path d="M2.71309171,0 L0,20 L15.0206062,20 C17.6750335,18.4248955 19.1567899,16.8740953 19.4658755,15.3475993 C19.7749611,13.8211033 18.994459,12.0385702 17.1243693,10 C17.6176893,9.42151782 17.9678644,8.99410461 18.1748946,8.71776037 C19.3916315,7.0936574 20,5.66753725 20,4.43939992 C20,2.89780771 19.0414564,1.41800773 17.1243693,0 L2.71309171,0 Z" id="Path-3" fill="#FFFFFF"></path>
                <path d="M5.93536852,3.15789474 L14.6706072,3.15789474 C15.4165182,3.85964912 15.7894737,4.56140351 15.7894737,5.26315789 C15.7894737,5.96491228 15.4165182,6.66666667 14.6706072,7.36842105 L5.26315789,7.36842105 L5.93536852,3.15789474 Z" id="Path-4" fill="#E5630B"></path>
                <path d="M4.9826073,11.5789474 L13.6293153,11.5789474 C14.3676665,12.2807018 14.7368421,12.9824561 14.7368421,13.6842105 C14.7368421,14.3859649 14.3676665,15.0877193 13.6293153,15.7894737 L4.21052632,15.7894737 L4.9826073,11.5789474 Z" id="Path-4" fill="#E5630B"></path>
            </g>
        </g>
    </g>
</svg>