<?xml version="1.0" encoding="UTF-8" standalone="no"?>
<!DOCTYPE svg PUBLIC "-//W3C//DTD SVG 1.1//EN" "http://www.w3.org/Graphics/SVG/1.1/DTD/svg11.dtd">
<svg version="1.1" xmlns="http://www.w3.org/2000/svg" xmlns:xlink="http://www.w3.org/1999/xlink" preserveAspectRatio="xMidYMid meet" viewBox="0 0 32 32" width="32" height="32"><defs><path d="M31 16C31 24.28 24.28 31 16 31C7.72 31 1 24.28 1 16C1 7.72 7.72 1 16 1C24.28 1 31 7.72 31 16Z" id="fCWZdsBv6"></path><path d="M29.74 16C29.74 23.58 23.58 29.74 16 29.74C8.42 29.74 2.26 23.58 2.26 16C2.26 8.42 8.42 2.26 16 2.26C23.58 2.26 29.74 8.42 29.74 16Z" id="dCMLWPBLN"></path><path d="M16.36 16L12.5 16L12.5 8L8.5 8L8.5 26L12.5 26L12.5 18L16.5 18" id="b4eH3e8syZ"></path><path d="M15.64 16L19.5 16L19.5 8L23.5 8L23.5 26L19.5 26L19.5 18L15.5 18" id="e5Vr1EO96T"></path></defs><g><g><g><use xlink:href="#fCWZdsBv6" opacity="1" fill="#ffffff" fill-opacity="1"></use><g><use xlink:href="#fCWZdsBv6" opacity="1" fill-opacity="0" stroke="#000000" stroke-width="0.5" stroke-opacity="1"></use></g></g><g><use xlink:href="#dCMLWPBLN" opacity="1" fill="#dfe12a" fill-opacity="1"></use><g><use xlink:href="#dCMLWPBLN" opacity="1" fill-opacity="0" stroke="#000000" stroke-width="0.5" stroke-opacity="1"></use></g></g><g><g><use xlink:href="#b4eH3e8syZ" opacity="1" fill="#ffffff" fill-opacity="1"></use><g><use xlink:href="#b4eH3e8syZ" opacity="1" fill-opacity="0" stroke="#000000" stroke-width="0.5" stroke-opacity="1"></use></g></g></g><g><use xlink:href="#e5Vr1EO96T" opacity="1" fill="#ffffff" fill-opacity="1"></use><g><use xlink:href="#e5Vr1EO96T" opacity="1" fill-opacity="0" stroke="#000000" stroke-width="0.5" stroke-opacity="1"></use></g></g></g></g></svg>