<?xml version="1.0" encoding="UTF-8" standalone="no"?>
<!DOCTYPE svg PUBLIC "-//W3C//DTD SVG 1.1//EN" "http://www.w3.org/Graphics/SVG/1.1/DTD/svg11.dtd">
<svg version="1.1" xmlns="http://www.w3.org/2000/svg" xmlns:xlink="http://www.w3.org/1999/xlink" preserveAspectRatio="xMidYMid meet" viewBox="0 0 32 32" width="32" height="32"><defs><path d="M24.83 16C24.83 20.87 20.87 24.83 16 24.83C11.13 24.83 7.17 20.87 7.17 16C7.17 11.13 11.13 7.17 16 7.17C20.87 7.17 24.83 11.13 24.83 16Z" id="bfk6jybUw"></path><path d="M28.94 12.3L29.92 10L27.01 10.71L24.1 11.42L26.03 13.01L27.96 14.6L28.94 12.3Z" id="d9oZsQZa"></path><path d="" id="a3ecHYeN3T"></path><path d="" id="a6BhOPqlS"></path><path d="" id="b2ZLqovkI"></path><path d="M28 16C28.01 25.15 19.57 28.08 16 28" id="b1bIjhettt"></path><path d="" id="aL9TAAqNu"></path><path d="M16 28C6.85 28 3.92 19.57 4 16" id="f19EF1k2FN"></path><path d="M16 16L29 16" id="asa7SUcQ"></path><path d="M27.01 11.03C24.68 5.75 18.82 3.94 16 4" id="aDHiR45U"></path><path d="M16 4C6.85 3.99 3.92 12.43 4 16" id="a23iwRm5T"></path></defs><g><g><g><use xlink:href="#bfk6jybUw" opacity="1" fill="#a70000" fill-opacity="1"></use></g><g><use xlink:href="#d9oZsQZa" opacity="1" fill="#000000" fill-opacity="1"></use></g><g><g><use xlink:href="#a3ecHYeN3T" opacity="1" fill-opacity="0" stroke="#000000" stroke-width="3" stroke-opacity="1"></use></g></g><g><g><use xlink:href="#a6BhOPqlS" opacity="1" fill-opacity="0" stroke="#000000" stroke-width="2" stroke-opacity="1"></use></g></g><g><g><use xlink:href="#b2ZLqovkI" opacity="1" fill-opacity="0" stroke="#1a0303" stroke-width="2" stroke-opacity="1"></use></g></g><g><g><use xlink:href="#b1bIjhettt" opacity="1" fill-opacity="0" stroke="#000000" stroke-width="2" stroke-opacity="1"></use></g></g><g><g><use xlink:href="#aL9TAAqNu" opacity="1" fill-opacity="0" stroke="#c918c2" stroke-width="2" stroke-opacity="1"></use></g></g><g><g><use xlink:href="#f19EF1k2FN" opacity="1" fill-opacity="0" stroke="#000000" stroke-width="2" stroke-opacity="1"></use></g></g><g><g><use xlink:href="#asa7SUcQ" opacity="1" fill-opacity="0" stroke="#000000" stroke-width="2" stroke-opacity="1"></use></g></g><g><g><use xlink:href="#aDHiR45U" opacity="1" fill-opacity="0" stroke="#000000" stroke-width="2" stroke-opacity="1"></use></g></g><g><g><use xlink:href="#a23iwRm5T" opacity="1" fill-opacity="0" stroke="#000000" stroke-width="2" stroke-opacity="1"></use></g></g></g></g></svg>