<?xml version="1.0" encoding="UTF-8" standalone="no"?>
<!DOCTYPE svg PUBLIC "-//W3C//DTD SVG 1.1//EN" "http://www.w3.org/Graphics/SVG/1.1/DTD/svg11.dtd">
<svg version="1.1" xmlns="http://www.w3.org/2000/svg" xmlns:xlink="http://www.w3.org/1999/xlink" preserveAspectRatio="xMidYMid meet" viewBox="0 0 32 32" width="32" height="32"><defs><path d="M24.83 16C24.83 20.87 20.87 24.83 16 24.83C11.13 24.83 7.17 20.87 7.17 16C7.17 11.13 11.13 7.17 16 7.17C20.87 7.17 24.83 11.13 24.83 16Z" id="b933VCEaIh"></path><path d="M2.19 14L0.38 16.21L4 16.21L7.62 16.21L5.81 14L4 11.79L2.19 14Z" id="a2PLqHlcWa"></path><path d="" id="b6DnAYElk"></path><path d="" id="c3yAmtZq7m"></path><path d="" id="aFdTweme1"></path><path d="M4 16C3.99 25.15 12.43 28.08 16 28" id="d2bGdq9Q1x"></path><path d="" id="e2GRMcgV93"></path><path d="M16 28C25.15 28.01 28.08 19.57 28 16" id="k41BPnZ2fI"></path><path d="M29 16L16 16" id="btX0ECdFN"></path></defs><g><g><g><use xlink:href="#b933VCEaIh" opacity="1" fill="#a70000" fill-opacity="1"></use></g><g><use xlink:href="#a2PLqHlcWa" opacity="1" fill="#000000" fill-opacity="1"></use></g><g><g><use xlink:href="#b6DnAYElk" opacity="1" fill-opacity="0" stroke="#000000" stroke-width="3" stroke-opacity="1"></use></g></g><g><g><use xlink:href="#c3yAmtZq7m" opacity="1" fill-opacity="0" stroke="#000000" stroke-width="2" stroke-opacity="1"></use></g></g><g><g><use xlink:href="#aFdTweme1" opacity="1" fill-opacity="0" stroke="#1a0303" stroke-width="2" stroke-opacity="1"></use></g></g><g><g><use xlink:href="#d2bGdq9Q1x" opacity="1" fill-opacity="0" stroke="#000000" stroke-width="2" stroke-opacity="1"></use></g></g><g><g><use xlink:href="#e2GRMcgV93" opacity="1" fill-opacity="0" stroke="#c918c2" stroke-width="2" stroke-opacity="1"></use></g></g><g><g><use xlink:href="#k41BPnZ2fI" opacity="1" fill-opacity="0" stroke="#000000" stroke-width="2" stroke-opacity="1"></use></g></g><g><g><use xlink:href="#btX0ECdFN" opacity="1" fill-opacity="0" stroke="#000000" stroke-width="2" stroke-opacity="1"></use></g></g></g></g></svg>