<?xml version="1.0" encoding="UTF-8" standalone="no"?>
<!DOCTYPE svg PUBLIC "-//W3C//DTD SVG 1.1//EN" "http://www.w3.org/Graphics/SVG/1.1/DTD/svg11.dtd">
<svg version="1.1" xmlns="http://www.w3.org/2000/svg" xmlns:xlink="http://www.w3.org/1999/xlink" preserveAspectRatio="xMidYMid meet" viewBox="0 0 32 32" width="32" height="32"><defs><path d="M16.62 9.45C20.25 9.45 23.19 12.39 23.19 16.02C23.19 19.65 20.25 22.59 16.62 22.59C12.99 22.59 10.05 19.65 10.05 16.02C10.05 12.39 12.99 9.45 16.62 9.45Z" id="bii3s6LDL"></path><path d="M16.62 9.45C20.25 9.45 23.19 12.39 23.19 16.02C23.19 19.65 20.25 22.59 16.62 22.59C12.99 22.59 10.05 19.65 10.05 16.02C10.05 12.39 12.99 9.45 16.62 9.45Z" id="b1lZ7ijsqY"></path><path d="M6.57 5.87L11.77 8.87L7.34 10.53L2.92 12.2L2.15 7.53L1.38 2.87L6.57 5.87Z" id="atFeV0aAz"></path><path d="M6.57 5.87L11.77 8.87L7.34 10.53L2.92 12.2L2.15 7.53L1.38 2.87L6.57 5.87Z" id="c8OhiTOdt"></path><path d="M2.62 15.52C2.62 16.05 2.62 16.38 2.62 16.51C2.62 23.7 8.44 29.52 15.63 29.52C15.85 29.52 16.42 29.52 17.33 29.52" id="c2ZD7uYFP9"></path><path d="M2.62 15.52C2.62 16.05 2.62 16.38 2.62 16.51C2.62 23.7 8.44 29.52 15.63 29.52C15.85 29.52 16.42 29.52 17.33 29.52" id="b1nI5TjqQ0"></path><path d="M30.62 15.52C30.62 16.05 30.62 16.38 30.62 16.51C30.62 23.7 24.8 29.52 17.61 29.52C17.39 29.52 16.82 29.52 15.91 29.52" id="bfSGZJMIP"></path><path d="M30.62 15.52C30.62 16.05 30.62 16.38 30.62 16.51C30.62 23.7 24.8 29.52 17.61 29.52C17.39 29.52 16.82 29.52 15.91 29.52" id="b1hFc6TMc"></path><path d="M30.62 16.52C30.62 15.99 30.62 15.66 30.62 15.53C30.62 8.34 24.8 2.52 17.61 2.52C17.39 2.52 16.82 2.52 15.91 2.52" id="d4XVD6WKBg"></path><path d="M30.62 16.52C30.62 15.99 30.62 15.66 30.62 15.53C30.62 8.34 24.8 2.52 17.61 2.52C17.39 2.52 16.82 2.52 15.91 2.52" id="i1i5XczBfc"></path><path d="M16.62 17.52C8.73 17.52 3.79 17.52 1.82 17.52C1.58 17.52 1.38 17.32 1.38 17.08C1.38 16.74 1.38 15.88 1.38 14.52C3.41 14.52 8.49 14.52 16.62 14.52C16.62 16.32 16.62 17.32 16.62 17.52Z" id="b18vp4qRCh"></path><path d="M16.62 17.52C8.73 17.52 3.79 17.52 1.82 17.52C1.58 17.52 1.38 17.32 1.38 17.08C1.38 16.74 1.38 15.88 1.38 14.52C3.41 14.52 8.49 14.52 16.62 14.52C16.62 16.32 16.62 17.32 16.62 17.52Z" id="c3s5YhBvhQ"></path><path d="M16.62 17.52C8.73 17.52 3.79 17.52 1.82 17.52C1.58 17.52 1.38 17.32 1.38 17.08C1.38 16.74 1.38 15.88 1.38 14.52C3.41 14.52 8.49 14.52 16.62 14.52C16.62 16.32 16.62 17.32 16.62 17.52Z" id="enyi1rMxT"></path><path d="M16.62 17.52C8.73 17.52 3.79 17.52 1.82 17.52C1.58 17.52 1.38 17.32 1.38 17.08C1.38 16.74 1.38 15.88 1.38 14.52C3.41 14.52 8.49 14.52 16.62 14.52C16.62 16.32 16.62 17.32 16.62 17.52Z" id="b2cbCIFatC"></path><path d="M5.53 7.02C7.91 4.24 11.45 2.48 15.41 2.48C15.63 2.48 16.2 2.48 17.11 2.48" id="ak7uNi3UP"></path><path d="M5.53 7.02C7.91 4.24 11.45 2.48 15.41 2.48C15.63 2.48 16.2 2.48 17.11 2.48" id="b25WotMI6I"></path></defs><g><g><g><use xlink:href="#bii3s6LDL" opacity="1" fill="#a70000" fill-opacity="1"></use><g><use xlink:href="#bii3s6LDL" opacity="1" fill-opacity="0" stroke="#000000" stroke-width="1" stroke-opacity="0"></use></g></g><g><use xlink:href="#b1lZ7ijsqY" opacity="1" fill="#000000" fill-opacity="0"></use><g><use xlink:href="#b1lZ7ijsqY" opacity="1" fill-opacity="0" stroke="#000000" stroke-width="1" stroke-opacity="0"></use></g></g><g><use xlink:href="#atFeV0aAz" opacity="1" fill="#000000" fill-opacity="1"></use><g><use xlink:href="#atFeV0aAz" opacity="1" fill-opacity="0" stroke="#000000" stroke-width="1" stroke-opacity="0"></use></g></g><g><use xlink:href="#c8OhiTOdt" opacity="1" fill="#000000" fill-opacity="0"></use><g><use xlink:href="#c8OhiTOdt" opacity="1" fill-opacity="0" stroke="#000000" stroke-width="1" stroke-opacity="0"></use></g></g><g><use xlink:href="#c2ZD7uYFP9" opacity="1" fill="#000000" fill-opacity="0"></use><g><use xlink:href="#c2ZD7uYFP9" opacity="1" fill-opacity="0" stroke="#000000" stroke-width="1" stroke-opacity="0"></use></g></g><g><use xlink:href="#b1nI5TjqQ0" opacity="1" fill="#000000" fill-opacity="0"></use><g><use xlink:href="#b1nI5TjqQ0" opacity="1" fill-opacity="0" stroke="#000000" stroke-width="3" stroke-opacity="1"></use></g></g><g><use xlink:href="#bfSGZJMIP" opacity="1" fill="#000000" fill-opacity="0"></use><g><use xlink:href="#bfSGZJMIP" opacity="1" fill-opacity="0" stroke="#000000" stroke-width="1" stroke-opacity="0"></use></g></g><g><use xlink:href="#b1hFc6TMc" opacity="1" fill="#000000" fill-opacity="0"></use><g><use xlink:href="#b1hFc6TMc" opacity="1" fill-opacity="0" stroke="#000000" stroke-width="3" stroke-opacity="1"></use></g></g><g><use xlink:href="#d4XVD6WKBg" opacity="1" fill="#000000" fill-opacity="0"></use><g><use xlink:href="#d4XVD6WKBg" opacity="1" fill-opacity="0" stroke="#000000" stroke-width="1" stroke-opacity="0"></use></g></g><g><use xlink:href="#i1i5XczBfc" opacity="1" fill="#000000" fill-opacity="0"></use><g><use xlink:href="#i1i5XczBfc" opacity="1" fill-opacity="0" stroke="#000000" stroke-width="3" stroke-opacity="1"></use></g></g><g><use xlink:href="#b18vp4qRCh" opacity="1" fill="#000000" fill-opacity="1"></use><g><use xlink:href="#b18vp4qRCh" opacity="1" fill-opacity="0" stroke="#000000" stroke-width="1" stroke-opacity="0"></use></g></g><g><use xlink:href="#c3s5YhBvhQ" opacity="1" fill="#000000" fill-opacity="0"></use><g><use xlink:href="#c3s5YhBvhQ" opacity="1" fill-opacity="0" stroke="#000000" stroke-width="1" stroke-opacity="0"></use></g></g><g><use xlink:href="#enyi1rMxT" opacity="1" fill="#000000" fill-opacity="0"></use><g><use xlink:href="#enyi1rMxT" opacity="1" fill-opacity="0" stroke="#000000" stroke-width="1" stroke-opacity="0"></use></g></g><g><use xlink:href="#b2cbCIFatC" opacity="1" fill="#000000" fill-opacity="0"></use><g><use xlink:href="#b2cbCIFatC" opacity="1" fill-opacity="0" stroke="#000000" stroke-width="0.5" stroke-opacity="1"></use></g></g><g><use xlink:href="#ak7uNi3UP" opacity="1" fill="#000000" fill-opacity="0"></use><g><use xlink:href="#ak7uNi3UP" opacity="1" fill-opacity="0" stroke="#000000" stroke-width="1" stroke-opacity="0"></use></g></g><g><use xlink:href="#b25WotMI6I" opacity="1" fill="#000000" fill-opacity="0"></use><g><use xlink:href="#b25WotMI6I" opacity="1" fill-opacity="0" stroke="#000000" stroke-width="3" stroke-opacity="1"></use></g></g></g></g></svg>