<?xml version="1.0" encoding="UTF-8" standalone="no"?>
<!DOCTYPE svg PUBLIC "-//W3C//DTD SVG 1.1//EN" "http://www.w3.org/Graphics/SVG/1.1/DTD/svg11.dtd">
<svg version="1.1" xmlns="http://www.w3.org/2000/svg" xmlns:xlink="http://www.w3.org/1999/xlink" preserveAspectRatio="xMidYMid meet" viewBox="0 0 32 32" width="32" height="32"><defs><path d="M9.43 16C9.43 12.37 12.37 9.43 16 9.43C19.63 9.43 22.57 12.37 22.57 16C22.57 19.63 19.63 22.57 16 22.57C12.37 22.57 9.43 19.63 9.43 16Z" id="e36u45HVGH"></path><path d="M14.1 26.38L9.86 22.14L5.62 17.9L5.15 22.61L4.69 27.31L9.39 26.85L14.1 26.38Z" id="c62pwKJjI"></path><path d="M8.4 25.72L16.88 17.24L14.76 15.12L6.28 23.6L8.4 25.72Z" id="h1FdQU7hBZ"></path><path d="M8.4 25.72L16.88 17.24L14.76 15.12L6.28 23.6L8.4 25.72Z" id="afPVZe6NL"></path></defs><g><g><g><use xlink:href="#e36u45HVGH" opacity="1" fill="#a70000" fill-opacity="1"></use><g><use xlink:href="#e36u45HVGH" opacity="1" fill-opacity="0" stroke="#000000" stroke-width="1" stroke-opacity="0"></use></g></g><g><use xlink:href="#c62pwKJjI" opacity="1" fill="#000000" fill-opacity="1"></use><g><use xlink:href="#c62pwKJjI" opacity="1" fill-opacity="0" stroke="#000000" stroke-width="1" stroke-opacity="0"></use></g></g><g><use xlink:href="#h1FdQU7hBZ" opacity="1" fill="#000000" fill-opacity="1"></use><g><use xlink:href="#h1FdQU7hBZ" opacity="1" fill-opacity="0" stroke="#000000" stroke-width="1" stroke-opacity="0"></use></g></g><g><use xlink:href="#afPVZe6NL" opacity="1" fill="#000000" fill-opacity="0"></use><g><use xlink:href="#afPVZe6NL" opacity="1" fill-opacity="0" stroke="#000000" stroke-width="0.5" stroke-opacity="1"></use></g></g></g></g></svg>