<?xml version="1.0" encoding="UTF-8" standalone="no"?>
<!DOCTYPE svg PUBLIC "-//W3C//DTD SVG 1.1//EN" "http://www.w3.org/Graphics/SVG/1.1/DTD/svg11.dtd">
<svg version="1.1" xmlns="http://www.w3.org/2000/svg" xmlns:xlink="http://www.w3.org/1999/xlink" preserveAspectRatio="xMidYMid meet" viewBox="0 0 32 32" width="32" height="32"><defs><path d="M9.54 9.34C13.17 9.34 16.11 12.28 16.11 15.92C16.11 19.54 13.17 22.49 9.54 22.49C5.9 22.49 2.97 19.54 2.97 15.92C2.97 12.28 5.9 9.34 9.54 9.34Z" id="czU2xsBkK"></path><path d="M17.04 17.58L23.04 17.58L29.04 17.58L26.04 13.92L23.04 10.26L20.04 13.92L17.04 17.58Z" id="emnbDyhdI"></path><path d="M23.54 15.42C23.54 15.95 23.54 16.27 23.54 16.4C23.54 23.6 17.72 29.42 10.52 29.42C10.31 29.42 9.74 29.42 8.82 29.42" id="dx1ThvVTn"></path><path d="M11.04 15.92L11.04 30.65L8.04 30.65L8.04 15.92L11.04 15.92Z" id="c1eun8EEXu"></path><path d="M11.04 15.92L11.04 30.65L8.04 30.65L8.04 15.92L11.04 15.92Z" id="a4citrFxGd"></path></defs><g><g><g><use xlink:href="#czU2xsBkK" opacity="1" fill="#a70000" fill-opacity="1"></use><g><use xlink:href="#czU2xsBkK" opacity="1" fill-opacity="0" stroke="#000000" stroke-width="1" stroke-opacity="0"></use></g></g><g><use xlink:href="#emnbDyhdI" opacity="1" fill="#000000" fill-opacity="1"></use><g><use xlink:href="#emnbDyhdI" opacity="1" fill-opacity="0" stroke="#000000" stroke-width="1" stroke-opacity="0"></use></g></g><g><use xlink:href="#dx1ThvVTn" opacity="1" fill="#000000" fill-opacity="0"></use><g><use xlink:href="#dx1ThvVTn" opacity="1" fill-opacity="0" stroke="#000000" stroke-width="3" stroke-opacity="1"></use></g></g><g><use xlink:href="#c1eun8EEXu" opacity="1" fill="#000000" fill-opacity="1"></use><g><use xlink:href="#c1eun8EEXu" opacity="1" fill-opacity="0" stroke="#000000" stroke-width="1" stroke-opacity="0"></use></g></g><g><use xlink:href="#a4citrFxGd" opacity="1" fill="#000000" fill-opacity="0"></use><g><use xlink:href="#a4citrFxGd" opacity="1" fill-opacity="0" stroke="#000000" stroke-width="0.5" stroke-opacity="1"></use></g></g></g></g></svg>