<?xml version="1.0" encoding="UTF-8" standalone="no"?>
<!DOCTYPE svg PUBLIC "-//W3C//DTD SVG 1.1//EN" "http://www.w3.org/Graphics/SVG/1.1/DTD/svg11.dtd">
<svg version="1.1" xmlns="http://www.w3.org/2000/svg" xmlns:xlink="http://www.w3.org/1999/xlink" preserveAspectRatio="xMidYMid meet" viewBox="0 0 32 32" width="32" height="32"><defs><path d="M9.43 16C9.43 12.37 12.37 9.43 16 9.43C19.63 9.43 22.57 12.37 22.57 16C22.57 19.63 19.63 22.57 16 22.57C12.37 22.57 9.43 19.63 9.43 16Z" id="aEWBcYY2q"></path><path d="M22 7.32L16 7.32L10 7.32L13 3.66L16 0L19 3.66L22 7.32Z" id="b1xyrvgo6W"></path><path d="M17.5 3.75L17.5 15.75L14.5 15.75L14.5 3.75L17.5 3.75Z" id="b1pxPen3Sd"></path><path d="M17.5 3.75L17.5 15.75L14.5 15.75L14.5 3.75L17.5 3.75Z" id="b2TLEOzbY"></path></defs><g><g><g><use xlink:href="#aEWBcYY2q" opacity="1" fill="#a70000" fill-opacity="1"></use><g><use xlink:href="#aEWBcYY2q" opacity="1" fill-opacity="0" stroke="#000000" stroke-width="1" stroke-opacity="0"></use></g></g><g><use xlink:href="#b1xyrvgo6W" opacity="1" fill="#000000" fill-opacity="1"></use><g><use xlink:href="#b1xyrvgo6W" opacity="1" fill-opacity="0" stroke="#000000" stroke-width="1" stroke-opacity="0"></use></g></g><g><use xlink:href="#b1pxPen3Sd" opacity="1" fill="#000000" fill-opacity="1"></use><g><use xlink:href="#b1pxPen3Sd" opacity="1" fill-opacity="0" stroke="#000000" stroke-width="1" stroke-opacity="0"></use></g></g><g><use xlink:href="#b2TLEOzbY" opacity="1" fill="#000000" fill-opacity="0"></use><g><use xlink:href="#b2TLEOzbY" opacity="1" fill-opacity="0" stroke="#000000" stroke-width="0.5" stroke-opacity="1"></use></g></g></g></g></svg>