<?xml version="1.0" encoding="UTF-8" standalone="no"?>
<!DOCTYPE svg PUBLIC "-//W3C//DTD SVG 1.1//EN" "http://www.w3.org/Graphics/SVG/1.1/DTD/svg11.dtd">
<svg version="1.1" xmlns="http://www.w3.org/2000/svg" xmlns:xlink="http://www.w3.org/1999/xlink" preserveAspectRatio="xMidYMid meet" viewBox="0 0 32 32" width="32" height="32"><defs><path d="M16 11.43L20.16 4L31.25 4L30.78 10.37L28.48 11.43L17.39 30L14.61 30" id="aql16dalt"></path><path d="M16 11.43L11.84 4L0.75 4L1.22 10.37L3.52 11.43L14.61 30L17.39 30" id="a41Oe9DmTs"></path><path d="M16 15.14L10.74 5.86L3.52 5.86L3.52 8.73L6.3 10.96L16 27.82" id="c7ch7rC7s"></path><path d="M16 15.3L21.26 6.02L28.48 6.02L28.48 8.89L25.7 11.12L16 27.98" id="a1v8ZIYJwU"></path><path d="M20 14L20 18L22.54 18L22.54 26L20 26L20 30L31.21 30L31.21 26L28.72 26L28.72 18L31.21 18L31.21 14L26.23 14L20 14Z" id="c8tzvXAgpn"></path><mask id="maskaN3LetrQI" x="18" y="12" width="15.21" height="20" maskUnits="userSpaceOnUse"><rect x="18" y="12" width="15.21" height="20" fill="white"></rect><use xlink:href="#c8tzvXAgpn" opacity="1" fill="black"></use></mask><path d="M25.6 18L25.6 26" id="e167oiytW"></path></defs><g><g><g><use xlink:href="#aql16dalt" opacity="1" fill="#e0555f" fill-opacity="1"></use><g><use xlink:href="#aql16dalt" opacity="1" fill-opacity="0" stroke="#e0555f" stroke-width="1" stroke-opacity="1"></use></g></g><g><use xlink:href="#a41Oe9DmTs" opacity="1" fill="#e0555f" fill-opacity="1"></use><g><use xlink:href="#a41Oe9DmTs" opacity="1" fill-opacity="0" stroke="#e0555f" stroke-width="1" stroke-opacity="1"></use></g></g><g><use xlink:href="#c7ch7rC7s" opacity="1" fill="#ed0202" fill-opacity="1"></use><g><use xlink:href="#c7ch7rC7s" opacity="1" fill-opacity="0" stroke="#ed0202" stroke-width="1" stroke-opacity="1"></use></g></g><g><use xlink:href="#a1v8ZIYJwU" opacity="1" fill="#ed0202" fill-opacity="1"></use><g><use xlink:href="#a1v8ZIYJwU" opacity="1" fill-opacity="0" stroke="#ed0202" stroke-width="1" stroke-opacity="1"></use></g></g><g><g><use xlink:href="#c8tzvXAgpn" opacity="1" fill="#ffffff" fill-opacity="1"></use><g mask="url(#maskaN3LetrQI)"><use xlink:href="#c8tzvXAgpn" opacity="1" fill-opacity="0" stroke="#ed0202" stroke-width="2" stroke-opacity="1"></use></g></g><g><g><use xlink:href="#e167oiytW" opacity="1" fill-opacity="0" stroke="#ed0202" stroke-width="1" stroke-opacity="1"></use></g></g></g></g></g></svg>