<?xml version="1.0" encoding="UTF-8" standalone="no"?>
<!DOCTYPE svg PUBLIC "-//W3C//DTD SVG 1.1//EN" "http://www.w3.org/Graphics/SVG/1.1/DTD/svg11.dtd">
<svg version="1.1" xmlns="http://www.w3.org/2000/svg" xmlns:xlink="http://www.w3.org/1999/xlink" preserveAspectRatio="xMidYMid meet" viewBox="0 0 32 32" width="32" height="32"><defs><path d="M16 30.85C7.81 30.85 1.16 24.19 1.16 16C1.16 7.81 7.81 1.16 16 1.16C24.19 1.16 30.85 7.81 30.85 16C30.85 24.19 24.19 30.85 16 30.85Z" id="b2MmfMfqA2"></path><mask id="maskawwxWwpCo" x="-0.84" y="-0.84" width="33.69" height="33.69" maskUnits="userSpaceOnUse"><rect x="-0.84" y="-0.84" width="33.69" height="33.69" fill="white"></rect><use xlink:href="#b2MmfMfqA2" opacity="1" fill="black"></use></mask><path d="M16 30.05C8.25 30.05 1.95 23.75 1.95 16C1.95 8.25 8.25 1.95 16 1.95C23.75 1.95 30.05 8.25 30.05 16C30.05 23.75 23.75 30.05 16 30.05Z" id="fCDvt3jal"></path><path d="M8.1 11.97C9.16 13.63 11.91 17.92 13.01 19.65C13.22 19.98 13.12 20.42 12.79 20.64C12.04 21.11 11.01 21.76 10.4 22.14C9.63 22.63 8.6 22.45 8.05 21.71C6.88 20.18 4.18 16.6 2.97 15C2.59 14.5 2.74 13.78 3.28 13.46C4.12 12.98 5.67 12.08 6.52 11.59C7.06 11.28 7.76 11.45 8.1 11.97Z" id="a3W7GdAQjY"></path><path d="M11.98 8.18C13.3 10.2 16.03 14.34 17.15 16.04C17.91 17.19 17.45 18.77 16.18 19.33C15.72 19.53 14.98 19.85 14.07 20.25C13.95 20.3 13.8 20.26 13.73 20.15C12.5 18.3 9.31 13.47 8.18 11.74C7.85 11.26 7.95 10.61 8.39 10.23C9.03 9.7 10.3 8.61 10.98 8.04C11.29 7.77 11.76 7.84 11.98 8.18Z" id="cWYLkaBbW"></path><path d="M17.22 5.88C18.14 7.32 20.19 10.54 21.11 11.96C21.51 12.59 21.32 13.43 20.69 13.82C20.26 14.09 19.2 14.75 17.51 15.82C14.8 11.89 13.1 9.42 12.42 8.44C12.07 7.94 12.23 7.25 12.76 6.94C13.52 6.52 14.69 5.84 15.41 5.44C16.04 5.08 16.83 5.27 17.22 5.88Z" id="aNiy6gO9h"></path><path d="M24.97 21.38C26.13 22.76 26.77 23.53 26.9 23.68C26.78 23.83 26.72 23.92 26.68 23.97C24.76 26.53 22.02 28.37 18.9 29.15C18.85 29.17 18.73 29.2 18.53 29.25C18.41 28.98 17.83 27.65 16.77 25.26L12.55 27.54L10.43 24.64L23.9 17.27C23.9 16.77 23.9 16.49 23.9 16.44C21.56 17.41 20.1 18.02 19.52 18.26C19 18.48 18.4 18.18 18.27 17.63C18.2 17.34 18.14 17.1 18.04 16.7C17.95 16.38 18.11 16.04 18.39 15.87C20.19 14.85 24.15 12.59 25.71 11.69C26.44 11.28 27.35 11.8 27.35 12.64C27.35 13.61 27.35 15.99 27.35 19.83C27.04 20.03 26.24 20.55 24.97 21.38Z" id="agtdsgAbM"></path><path d="M21.46 4.13C22.19 5.48 23.3 7.49 23.91 8.6C24.59 9.85 24.13 11.42 22.87 12.09C22.62 12.23 23.04 12 22.52 12.29C22 12.56 21.35 12.38 21.05 11.88C20.24 10.49 18.18 7.01 17.33 5.56C17.13 5.22 17.26 4.77 17.63 4.59C18.28 4.29 19.22 3.85 19.79 3.58C20.4 3.29 21.13 3.53 21.46 4.13Z" id="a4UhXvCnss"></path><path d="M8.1 11.97C9.16 13.63 11.91 17.92 13.01 19.65C13.22 19.98 13.12 20.42 12.79 20.64C12.04 21.11 11.01 21.76 10.4 22.14C9.63 22.63 8.6 22.45 8.05 21.71C6.88 20.18 4.18 16.6 2.97 15C2.59 14.5 2.74 13.78 3.28 13.46C4.12 12.98 5.67 12.08 6.52 11.59C7.06 11.28 7.76 11.45 8.1 11.97Z" id="aY4yIjJc8"></path><path d="M11.98 8.18C13.3 10.2 16.03 14.34 17.15 16.04C17.91 17.19 17.45 18.77 16.18 19.33C15.72 19.53 14.98 19.85 14.07 20.25C13.95 20.3 13.8 20.26 13.73 20.15C12.5 18.3 9.31 13.47 8.18 11.74C7.85 11.26 7.95 10.61 8.39 10.23C9.03 9.7 10.3 8.61 10.98 8.04C11.29 7.77 11.76 7.84 11.98 8.18Z" id="a8pWirMrb"></path><path d="M17.22 5.88C18.14 7.32 20.19 10.54 21.11 11.96C21.51 12.59 21.32 13.43 20.69 13.82C20.26 14.09 19.2 14.75 17.51 15.82C14.8 11.89 13.1 9.42 12.42 8.44C12.07 7.94 12.23 7.25 12.76 6.94C13.52 6.52 14.69 5.84 15.41 5.44C16.04 5.08 16.83 5.27 17.22 5.88Z" id="f1xvVKCwz9"></path><path d="M21.46 4.13C22.19 5.48 23.3 7.49 23.91 8.6C24.59 9.85 24.13 11.42 22.87 12.09C22.62 12.23 23.04 12 22.52 12.29C22 12.56 21.35 12.38 21.05 11.88C20.24 10.49 18.18 7.01 17.33 5.56C17.13 5.22 17.26 4.77 17.63 4.59C18.28 4.29 19.22 3.85 19.79 3.58C20.4 3.29 21.13 3.53 21.46 4.13Z" id="j1Z0aAitLU"></path><path d="M24.97 21.38C26.13 22.76 26.77 23.53 26.9 23.68C26.78 23.83 26.72 23.92 26.68 23.97C24.76 26.53 22.02 28.37 18.9 29.15C18.85 29.17 18.73 29.2 18.53 29.25C18.41 28.98 17.83 27.65 16.77 25.26L12.55 27.54L10.43 24.64L23.9 17.27C23.9 16.77 23.9 16.49 23.9 16.44C21.56 17.41 20.1 18.02 19.52 18.26C19 18.48 18.4 18.18 18.27 17.63C18.2 17.34 18.14 17.1 18.04 16.7C17.95 16.38 18.11 16.04 18.39 15.87C20.19 14.85 24.15 12.59 25.71 11.69C26.44 11.28 27.35 11.8 27.35 12.64C27.35 13.61 27.35 15.99 27.35 19.83C27.04 20.03 26.24 20.55 24.97 21.38Z" id="cB8XFL1mG"></path></defs><g><g><g><use xlink:href="#b2MmfMfqA2" opacity="1" fill="#ffffff" fill-opacity="1"></use><g mask="url(#maskawwxWwpCo)"><use xlink:href="#b2MmfMfqA2" opacity="1" fill-opacity="0" stroke="#000000" stroke-width="2" stroke-opacity="1"></use></g></g><g><use xlink:href="#fCDvt3jal" opacity="1" fill="#3f3f3f" fill-opacity="1"></use></g><g><g><use xlink:href="#a3W7GdAQjY" opacity="1" fill="#ffffff" fill-opacity="1"></use><g><use xlink:href="#a3W7GdAQjY" opacity="1" fill-opacity="0" stroke="#000000" stroke-width="1" stroke-opacity="0"></use></g></g><g><use xlink:href="#cWYLkaBbW" opacity="1" fill="#ffffff" fill-opacity="1"></use><g><use xlink:href="#cWYLkaBbW" opacity="1" fill-opacity="0" stroke="#000000" stroke-width="1" stroke-opacity="0"></use></g></g><g><use xlink:href="#aNiy6gO9h" opacity="1" fill="#ffffff" fill-opacity="1"></use><g><use xlink:href="#aNiy6gO9h" opacity="1" fill-opacity="0" stroke="#000000" stroke-width="1" stroke-opacity="0"></use></g></g><g><use xlink:href="#agtdsgAbM" opacity="1" fill="#ffffff" fill-opacity="1"></use><g><use xlink:href="#agtdsgAbM" opacity="1" fill-opacity="0" stroke="#000000" stroke-width="1" stroke-opacity="0"></use></g></g><g><use xlink:href="#a4UhXvCnss" opacity="1" fill="#ffffff" fill-opacity="1"></use><g><use xlink:href="#a4UhXvCnss" opacity="1" fill-opacity="0" stroke="#000000" stroke-width="1" stroke-opacity="0"></use></g></g></g><g><g><use xlink:href="#aY4yIjJc8" opacity="1" fill="#000000" fill-opacity="0"></use><g><use xlink:href="#aY4yIjJc8" opacity="1" fill-opacity="0" stroke="#3f3f3f" stroke-width="0.5" stroke-opacity="1"></use></g></g><g><use xlink:href="#a8pWirMrb" opacity="1" fill="#000000" fill-opacity="0"></use><g><use xlink:href="#a8pWirMrb" opacity="1" fill-opacity="0" stroke="#3f3f3f" stroke-width="0.5" stroke-opacity="1"></use></g></g><g><use xlink:href="#f1xvVKCwz9" opacity="1" fill="#000000" fill-opacity="0"></use><g><use xlink:href="#f1xvVKCwz9" opacity="1" fill-opacity="0" stroke="#3f3f3f" stroke-width="0.5" stroke-opacity="1"></use></g></g><g><use xlink:href="#j1Z0aAitLU" opacity="1" fill="#000000" fill-opacity="0"></use><g><use xlink:href="#j1Z0aAitLU" opacity="1" fill-opacity="0" stroke="#3f3f3f" stroke-width="0.5" stroke-opacity="1"></use></g></g><g><use xlink:href="#cB8XFL1mG" opacity="1" fill="#000000" fill-opacity="0"></use><g><use xlink:href="#cB8XFL1mG" opacity="1" fill-opacity="0" stroke="#3f3f3f" stroke-width="0.5" stroke-opacity="1"></use></g></g></g></g></g></svg>