<?xml version="1.0" encoding="UTF-8" standalone="no"?>
<!DOCTYPE svg PUBLIC "-//W3C//DTD SVG 1.1//EN" "http://www.w3.org/Graphics/SVG/1.1/DTD/svg11.dtd">
<svg version="1.1" xmlns="http://www.w3.org/2000/svg" xmlns:xlink="http://www.w3.org/1999/xlink" preserveAspectRatio="xMidYMid meet" viewBox="0 0 32 32" width="32" height="32"><defs><path d="M1 19.31L31 19.31L31 23.88L1 23.88L1 19.31Z" id="aKVOtUGjd"></path><path d="M31 23.88C31 28.01 24.28 31.38 16 31.38C7.72 31.38 1 28.01 1 23.88C1 19.74 7.72 16.38 16 16.38C24.28 16.38 31 19.74 31 23.88Z" id="d33dcw9UEF"></path><path d="M16 25.82C8 25.82 1.5 22.46 1.5 18.32C1.5 14.18 8 10.82 16 10.82C24 10.82 30.5 14.18 30.5 18.32C30.5 22.46 24 25.82 16 25.82Z" id="i6yCX4nnA"></path><mask id="maska2L2WXMNCa" x="-0.5" y="8.82" width="33" height="19" maskUnits="userSpaceOnUse"><rect x="-0.5" y="8.82" width="33" height="19" fill="white"></rect><use xlink:href="#i6yCX4nnA" opacity="1" fill="black"></use></mask><path d="M16 25.42C8.43 25.42 2.28 22.24 2.28 18.32C2.28 14.41 8.43 11.23 16 11.23C23.57 11.23 29.72 14.41 29.72 18.32C29.72 22.24 23.57 25.42 16 25.42Z" id="aSqlYqxc"></path><path d="M8.28 16.29C9.32 17.13 12 19.3 13.07 20.17C13.28 20.34 13.19 20.56 12.87 20.67C12.13 20.91 11.12 21.23 10.53 21.43C9.78 21.68 8.77 21.58 8.23 21.21C7.1 20.43 4.46 18.63 3.27 17.82C2.9 17.57 3.04 17.2 3.58 17.04C4.4 16.8 5.91 16.35 6.74 16.1C7.27 15.94 7.95 16.02 8.28 16.29Z" id="a2dXfpBN"></path><path d="M12.07 14.37C13.37 15.39 16.03 17.48 17.13 18.34C17.87 18.93 17.42 19.72 16.18 20C15.72 20.11 15 20.27 14.11 20.47C14 20.5 13.86 20.48 13.78 20.42C12.58 19.49 9.46 17.05 8.36 16.17C8.04 15.93 8.13 15.6 8.57 15.41C9.19 15.14 10.43 14.59 11.1 14.3C11.4 14.17 11.85 14.2 12.07 14.37Z" id="c2wXkg2Mnw"></path><path d="M17.19 13.21C18.09 13.94 20.09 15.56 20.99 16.29C21.38 16.6 21.19 17.02 20.58 17.22C20.17 17.36 19.13 17.69 17.48 18.24C14.83 16.25 13.17 15 12.5 14.5C12.16 14.25 12.32 13.9 12.83 13.75C13.57 13.53 14.72 13.19 15.42 12.99C16.04 12.81 16.81 12.91 17.19 13.21Z" id="a1FjiX1rdU"></path><path d="M21.34 12.33C22.05 13.01 23.13 14.03 23.73 14.59C24.39 15.22 23.94 16.01 22.71 16.35C22.47 16.42 22.88 16.3 22.37 16.45C21.86 16.59 21.23 16.5 20.94 16.24C20.14 15.54 18.13 13.78 17.3 13.05C17.1 12.88 17.23 12.65 17.59 12.56C18.22 12.41 19.14 12.18 19.7 12.05C20.3 11.91 21.01 12.03 21.34 12.33Z" id="aacVvwef37"></path><path d="M24.77 21.04C25.9 21.74 26.52 22.13 26.65 22.2C26.53 22.28 26.47 22.33 26.43 22.35C24.56 23.65 21.88 24.57 18.83 24.97C18.79 24.98 18.66 25 18.47 25.02C18.36 24.88 17.78 24.21 16.75 23L12.63 24.15L10.56 22.69L23.72 18.97C23.72 18.71 23.72 18.57 23.72 18.54C21.44 19.04 20.01 19.34 19.43 19.47C18.93 19.58 18.35 19.43 18.21 19.15C18.15 19 18.09 18.88 17.99 18.68C17.91 18.51 18.06 18.34 18.34 18.26C20.09 17.74 23.96 16.6 25.49 16.15C26.2 15.94 27.09 16.2 27.09 16.63C27.09 17.11 27.09 18.32 27.09 20.26C26.78 20.36 26 20.62 24.77 21.04Z" id="b1XSCo2Q0q"></path><path d="M8.28 16.29C9.32 17.13 12 19.3 13.07 20.17C13.28 20.34 13.19 20.56 12.87 20.67C12.13 20.91 11.12 21.23 10.53 21.43C9.78 21.68 8.77 21.58 8.23 21.21C7.1 20.43 4.46 18.63 3.27 17.82C2.9 17.57 3.04 17.2 3.58 17.04C4.4 16.8 5.91 16.35 6.74 16.1C7.27 15.94 7.95 16.02 8.28 16.29Z" id="bRcHKHUKs"></path><path d="M12.07 14.37C13.37 15.39 16.03 17.48 17.13 18.34C17.87 18.93 17.42 19.72 16.18 20C15.72 20.11 15 20.27 14.11 20.47C14 20.5 13.86 20.48 13.78 20.42C12.58 19.49 9.46 17.05 8.36 16.17C8.04 15.93 8.13 15.6 8.57 15.41C9.19 15.14 10.43 14.59 11.1 14.3C11.4 14.17 11.85 14.2 12.07 14.37Z" id="bbyaGxbjX"></path><path d="M17.19 13.21C18.09 13.94 20.09 15.56 20.99 16.29C21.38 16.6 21.19 17.02 20.58 17.22C20.17 17.36 19.13 17.69 17.48 18.24C14.83 16.25 13.17 15 12.5 14.5C12.16 14.25 12.32 13.9 12.83 13.75C13.57 13.53 14.72 13.19 15.42 12.99C16.04 12.81 16.81 12.91 17.19 13.21Z" id="a26XIXqRkP"></path><path d="M21.34 12.33C22.05 13.01 23.13 14.03 23.73 14.59C24.39 15.22 23.94 16.01 22.71 16.35C22.47 16.42 22.88 16.3 22.37 16.45C21.86 16.59 21.23 16.5 20.94 16.24C20.14 15.54 18.13 13.78 17.3 13.05C17.1 12.88 17.23 12.65 17.59 12.56C18.22 12.41 19.14 12.18 19.7 12.05C20.3 11.91 21.01 12.03 21.34 12.33Z" id="a1ZUkd9APB"></path><path d="M24.77 21.04C25.9 21.74 26.52 22.13 26.65 22.2C26.53 22.28 26.47 22.33 26.43 22.35C24.56 23.65 21.88 24.57 18.83 24.97C18.79 24.98 18.66 25 18.47 25.02C18.36 24.88 17.78 24.21 16.75 23L12.63 24.15L10.56 22.69L23.72 18.97C23.72 18.71 23.72 18.57 23.72 18.54C21.44 19.04 20.01 19.34 19.43 19.47C18.93 19.58 18.35 19.43 18.21 19.15C18.15 19 18.09 18.88 17.99 18.68C17.91 18.51 18.06 18.34 18.34 18.26C20.09 17.74 23.96 16.6 25.49 16.15C26.2 15.94 27.09 16.2 27.09 16.63C27.09 17.11 27.09 18.32 27.09 20.26C26.78 20.36 26 20.62 24.77 21.04Z" id="a5xXcotT6i"></path><path d="" id="d6utyUNLe"></path><path d="M16 0L13.06 7.46L5.91 1.15L6.61 9.56L1 7.46L3.67 11.81" id="b39MxbrQb"></path><path d="M16 0L18.94 7.46L26.09 1.15L25.39 9.56L31 7.46L28.33 11.81" id="b1kTp4YFUQ"></path></defs><g><g><g><use xlink:href="#aKVOtUGjd" opacity="1" fill="#000000" fill-opacity="1"></use><g><use xlink:href="#aKVOtUGjd" opacity="1" fill-opacity="0" stroke="#000000" stroke-width="1" stroke-opacity="1"></use></g></g><g><use xlink:href="#d33dcw9UEF" opacity="1" fill="#000000" fill-opacity="1"></use><g><use xlink:href="#d33dcw9UEF" opacity="1" fill-opacity="0" stroke="#000000" stroke-width="1" stroke-opacity="1"></use></g></g><g><g><use xlink:href="#i6yCX4nnA" opacity="1" fill="#ffffff" fill-opacity="1"></use><g mask="url(#maska2L2WXMNCa)"><use xlink:href="#i6yCX4nnA" opacity="1" fill-opacity="0" stroke="#000000" stroke-width="2" stroke-opacity="1"></use></g></g><g><use xlink:href="#aSqlYqxc" opacity="1" fill="#3f3f3f" fill-opacity="1"></use></g><g><g><use xlink:href="#a2dXfpBN" opacity="1" fill="#ffffff" fill-opacity="1"></use><g><use xlink:href="#a2dXfpBN" opacity="1" fill-opacity="0" stroke="#000000" stroke-width="1" stroke-opacity="0"></use></g></g><g><use xlink:href="#c2wXkg2Mnw" opacity="1" fill="#ffffff" fill-opacity="1"></use><g><use xlink:href="#c2wXkg2Mnw" opacity="1" fill-opacity="0" stroke="#000000" stroke-width="1" stroke-opacity="0"></use></g></g><g><use xlink:href="#a1FjiX1rdU" opacity="1" fill="#ffffff" fill-opacity="1"></use><g><use xlink:href="#a1FjiX1rdU" opacity="1" fill-opacity="0" stroke="#000000" stroke-width="1" stroke-opacity="0"></use></g></g><g><use xlink:href="#aacVvwef37" opacity="1" fill="#ffffff" fill-opacity="1"></use><g><use xlink:href="#aacVvwef37" opacity="1" fill-opacity="0" stroke="#000000" stroke-width="1" stroke-opacity="0"></use></g></g><g><use xlink:href="#b1XSCo2Q0q" opacity="1" fill="#ffffff" fill-opacity="1"></use><g><use xlink:href="#b1XSCo2Q0q" opacity="1" fill-opacity="0" stroke="#000000" stroke-width="1" stroke-opacity="0"></use></g></g></g><g><g><use xlink:href="#bRcHKHUKs" opacity="1" fill="#000000" fill-opacity="0"></use><g><use xlink:href="#bRcHKHUKs" opacity="1" fill-opacity="0" stroke="#3f3f3f" stroke-width="0.5" stroke-opacity="1"></use></g></g><g><use xlink:href="#bbyaGxbjX" opacity="1" fill="#000000" fill-opacity="0"></use><g><use xlink:href="#bbyaGxbjX" opacity="1" fill-opacity="0" stroke="#3f3f3f" stroke-width="0.5" stroke-opacity="1"></use></g></g><g><use xlink:href="#a26XIXqRkP" opacity="1" fill="#000000" fill-opacity="0"></use><g><use xlink:href="#a26XIXqRkP" opacity="1" fill-opacity="0" stroke="#3f3f3f" stroke-width="0.5" stroke-opacity="1"></use></g></g><g><use xlink:href="#a1ZUkd9APB" opacity="1" fill="#000000" fill-opacity="0"></use><g><use xlink:href="#a1ZUkd9APB" opacity="1" fill-opacity="0" stroke="#3f3f3f" stroke-width="0.5" stroke-opacity="1"></use></g></g><g><use xlink:href="#a5xXcotT6i" opacity="1" fill="#000000" fill-opacity="0"></use><g><use xlink:href="#a5xXcotT6i" opacity="1" fill-opacity="0" stroke="#3f3f3f" stroke-width="0.5" stroke-opacity="1"></use></g></g></g></g><g><g><use xlink:href="#d6utyUNLe" opacity="1" fill-opacity="0" stroke="#696969" stroke-width="1" stroke-opacity="1"></use></g></g><g><g><use xlink:href="#b39MxbrQb" opacity="1" fill-opacity="0" stroke="#000000" stroke-width="1" stroke-opacity="1"></use></g></g><g><g><use xlink:href="#b1kTp4YFUQ" opacity="1" fill-opacity="0" stroke="#000000" stroke-width="1" stroke-opacity="1"></use></g></g></g></g></svg>