<?xml version="1.0" encoding="UTF-8" standalone="no"?>
<!DOCTYPE svg PUBLIC "-//W3C//DTD SVG 1.1//EN" "http://www.w3.org/Graphics/SVG/1.1/DTD/svg11.dtd">
<svg version="1.1" xmlns="http://www.w3.org/2000/svg" xmlns:xlink="http://www.w3.org/1999/xlink" preserveAspectRatio="xMidYMid meet" viewBox="0 0 32 32" width="32" height="32"><defs><path d="M31.69 16C31.69 24.66 24.66 31.69 16 31.69C7.34 31.69 0.31 24.66 0.31 16C0.31 7.34 7.34 0.31 16 0.31C24.66 0.31 31.69 7.34 31.69 16Z" id="a3esiawSD4"></path><path d="M4.74 10.3C5.38 9.93 6.2 10.13 6.6 10.75C7.85 12.7 11.08 17.75 12.37 19.78C12.62 20.17 12.51 20.69 12.12 20.94C11.23 21.5 10.02 22.26 9.31 22.71C8.4 23.29 7.19 23.07 6.54 22.2C5.17 20.4 1.99 16.19 0.56 14.31C0.12 13.72 0.29 12.87 0.93 12.5C1.92 11.93 3.74 10.88 4.74 10.3Z" id="e1CJ0RmsPx"></path><path d="M9.99 6.12C10.35 5.81 10.9 5.89 11.16 6.29C12.72 8.66 15.93 13.53 17.25 15.53C18.14 16.89 17.6 18.74 16.11 19.4C15.56 19.64 14.69 20.02 13.62 20.49C13.48 20.55 13.31 20.5 13.22 20.37C11.78 18.19 8.02 12.51 6.69 10.48C6.31 9.91 6.42 9.15 6.94 8.7C7.69 8.07 9.19 6.79 9.99 6.12Z" id="fqWY3ch79"></path><path d="M15.2 3.06C15.94 2.64 16.87 2.87 17.33 3.58C18.41 5.28 20.82 9.06 21.9 10.74C22.37 11.48 22.15 12.46 21.41 12.92C20.91 13.24 19.66 14.02 17.67 15.28C14.48 10.65 12.48 7.75 11.68 6.59C11.27 6 11.46 5.19 12.08 4.83C12.97 4.33 14.35 3.54 15.2 3.06Z" id="e1640JaAG"></path><path d="M20.35 0.88C21.07 0.54 21.93 0.82 22.32 1.52C23.18 3.11 24.48 5.48 25.2 6.78C26 8.25 25.46 10.1 23.98 10.89C23.68 11.05 24.18 10.78 23.56 11.12C22.95 11.44 22.19 11.23 21.84 10.64C20.88 9 18.46 4.91 17.46 3.21C17.22 2.8 17.38 2.28 17.81 2.07C18.57 1.71 19.68 1.19 20.35 0.88Z" id="d9UKnc95E"></path><path d="M29.25 19.99L26.45 21.82L28.72 24.52C28.58 24.7 28.5 24.81 28.46 24.86C26.2 27.88 22.97 30.04 19.3 30.96C19.25 30.98 19.1 31.02 18.87 31.07L16.8 26.38L11.84 29.06L9.34 25.65L25.19 16.98L25.19 16C22.44 17.15 20.72 17.86 20.03 18.15C19.42 18.4 18.72 18.05 18.56 17.41C18.48 17.06 18.41 16.78 18.29 16.31C18.19 15.93 18.37 15.53 18.71 15.33C20.82 14.13 25.48 11.47 27.32 10.42C28.18 9.93 29.25 10.55 29.25 11.54C29.25 12.67 29.25 15.48 29.25 19.99Z" id="bK5nKwRM"></path></defs><g><g><g><use xlink:href="#a3esiawSD4" opacity="1" fill="#000000" fill-opacity="1"></use></g><g><use xlink:href="#e1CJ0RmsPx" opacity="1" fill="#ffffff" fill-opacity="1"></use><g><use xlink:href="#e1CJ0RmsPx" opacity="1" fill-opacity="0" stroke="#000000" stroke-width="0.5" stroke-opacity="1"></use></g></g><g><use xlink:href="#fqWY3ch79" opacity="1" fill="#ffffff" fill-opacity="1"></use><g><use xlink:href="#fqWY3ch79" opacity="1" fill-opacity="0" stroke="#000000" stroke-width="0.5" stroke-opacity="1"></use></g></g><g><use xlink:href="#e1640JaAG" opacity="1" fill="#ffffff" fill-opacity="1"></use><g><use xlink:href="#e1640JaAG" opacity="1" fill-opacity="0" stroke="#000000" stroke-width="0.5" stroke-opacity="1"></use></g></g><g><use xlink:href="#d9UKnc95E" opacity="1" fill="#ffffff" fill-opacity="1"></use><g><use xlink:href="#d9UKnc95E" opacity="1" fill-opacity="0" stroke="#000000" stroke-width="0.5" stroke-opacity="1"></use></g></g><g><use xlink:href="#bK5nKwRM" opacity="1" fill="#ffffff" fill-opacity="1"></use><g><use xlink:href="#bK5nKwRM" opacity="1" fill-opacity="0" stroke="#000000" stroke-width="0.5" stroke-opacity="1"></use></g></g></g></g></svg>