<?xml version="1.0" encoding="UTF-8"?>
<svg width="30px" height="30px" viewBox="0 0 30 30" version="1.1" xmlns="http://www.w3.org/2000/svg" xmlns:xlink="http://www.w3.org/1999/xlink">
    <!-- Generator: Sketch 55 (78076) - https://sketchapp.com -->
    <title>C</title>
    <desc>Created with Sketch.</desc>
    <g id="Page-1" stroke="none" stroke-width="1" fill="none" fill-rule="evenodd">
        <g id="C">
            <g id="Group-3">
                <circle id="Oval" fill="#FFFFFF" cx="15" cy="15" r="15"></circle>
                <circle id="Oval" fill="#5AA67F" cx="15" cy="15" r="13"></circle>
            </g>
            <path d="M24.8369571,17.0485617 C24.2493595,18.9821963 23.1056265,20.800313 21.4304933,22.2463497 C16.8955734,26.1610597 10.183341,25.8664003 6.43830251,21.5882095 C2.69326406,17.3100187 3.3335895,10.6683603 7.86850941,6.7536503 C12.4034293,2.83894027 19.1156618,3.13359966 22.8607002,7.41179046 C23.5687349,8.22062262 24.2818349,9.58524841 25,11.5056678 L19.1810046,11.5571849 C17.8418382,9.36998268 16.5965235,8.20618261 15.4450604,8.06578468 C12.7612429,7.73854672 10.229395,10.3539643 9.7900199,13.9074833 C9.35064476,17.4610023 11.1701248,20.6069774 13.8539423,20.9342153 C15.9958487,21.195378 18.0409603,19.5822609 19.0028686,17.1138314 L24.8369571,17.0485617 Z" id="Path" fill="#FFFFFF"></path>
        </g>
    </g>
</svg>