<?xml version="1.0" encoding="UTF-8" standalone="no"?>
<!DOCTYPE svg PUBLIC "-//W3C//DTD SVG 1.1//EN" "http://www.w3.org/Graphics/SVG/1.1/DTD/svg11.dtd">
<svg version="1.1" xmlns="http://www.w3.org/2000/svg" xmlns:xlink="http://www.w3.org/1999/xlink" preserveAspectRatio="xMidYMid meet" viewBox="0 0 48 32" width="48" height="32"><defs><path d="M29.05 15.62C29.05 22.94 23.11 28.87 15.8 28.87C8.49 28.87 2.55 22.94 2.55 15.62C2.55 8.31 8.49 2.37 15.8 2.37C23.11 2.37 29.05 8.31 29.05 15.62Z" id="a2AMCfmcsG"></path><path d="M12.76 18.82C9.34 14.18 7.2 11.28 6.34 10.12C6.16 9.87 5.8 9.8 5.53 9.97C4.69 10.5 3.02 11.55 2.28 12.02C1.76 12.35 1.64 13.04 2.01 13.52C3.27 15.13 6.35 19.08 7.6 20.69C8 21.2 8.71 21.33 9.26 20.99C9.72 20.7 10.89 19.98 12.76 18.82Z" id="bpkgaq2Kv"></path><path d="M12.38 18.82L16.47 16.53C13.72 11.53 12 8.39 11.31 7.14C11.16 6.88 10.83 6.79 10.57 6.95C9.67 7.49 7.46 8.84 6.57 9.38C6.3 9.54 6.23 9.88 6.4 10.13C7.2 11.29 9.19 14.19 12.38 18.82Z" id="bAGfSzceZ"></path><path d="M14.47 12.57L19.24 9.9C17.78 7.01 16.87 5.21 16.51 4.49C16.28 4.05 15.73 3.89 15.32 4.16C14.5 4.67 12.71 5.79 11.86 6.32C11.51 6.54 11.39 7 11.59 7.36C11.97 8.06 12.94 9.79 14.47 12.57Z" id="a1HhDnUnpx"></path><path d="M19.24 9.67C21.1 8.52 22.26 7.8 22.73 7.51C23.08 7.29 23.24 6.85 23.11 6.46C22.73 5.35 22.07 3.37 21.75 2.42C21.49 1.64 20.57 1.29 19.85 1.71C19.14 2.12 17.91 2.83 17.07 3.31C16.63 3.56 16.46 4.12 16.69 4.58C17.03 5.26 17.88 6.96 19.24 9.67Z" id="f1pqgXY2JW"></path><path d="M20.38 14.95C14.5 18.35 10.82 20.48 9.34 21.33C8.74 21.68 8.59 22.5 9.04 23.03C9.25 23.29 9.32 23.37 9.61 23.71C9.91 24.08 10.36 24.3 10.84 24.33C11.39 24.36 12.76 24.43 14.95 24.54C15.76 26.16 16.27 27.18 16.47 27.58C16.98 28.61 18.27 28.96 19.23 28.35C20.8 27.36 24.26 25.16 25.97 24.08C26.58 23.69 26.8 22.9 26.48 22.25C26.14 21.56 25.56 20.42 25.19 19.67C24.92 19.13 24.9 18.5 25.13 17.94C25.44 17.2 25.82 16.29 26.09 15.65C26.46 14.76 26.45 13.74 26.05 12.85C25.57 11.76 24.35 9.02 23.77 7.72C23.69 7.54 23.48 7.47 23.31 7.57C22.16 8.23 19.27 9.9 14.66 12.57L16.57 17.11L20.38 14.95Z" id="bgM9qIg5a"></path><path d="" id="dgasz7JEW"></path><path d="M0.95 30.47L8.66 30.47L8.66 27.53L3.61 27.53L3.61 18.98L0.95 18.98L0.95 30.47Z" id="a3b4DjSgN"></path><path d="M47.05 15.62C47.05 22.94 41.11 28.87 33.8 28.87C26.49 28.87 20.55 22.94 20.55 15.62C20.55 8.31 26.49 2.37 33.8 2.37C41.11 2.37 47.05 8.31 47.05 15.62Z" id="cbpjjVlpV"></path><path d="M30.76 18.82C27.34 14.18 25.2 11.28 24.34 10.12C24.16 9.87 23.8 9.8 23.53 9.97C22.69 10.5 21.02 11.55 20.28 12.02C19.76 12.35 19.64 13.04 20.01 13.52C21.27 15.13 24.35 19.08 25.6 20.69C26 21.2 26.71 21.33 27.26 20.99C27.72 20.7 28.89 19.98 30.76 18.82Z" id="bt4gYrP4m"></path><path d="M30.38 18.82L34.47 16.53C31.72 11.53 30 8.39 29.31 7.14C29.16 6.88 28.83 6.79 28.57 6.95C27.67 7.49 25.46 8.84 24.57 9.38C24.3 9.54 24.23 9.88 24.4 10.13C25.2 11.29 27.19 14.19 30.38 18.82Z" id="c1wtxkuGCl"></path><path d="M32.47 12.57L37.24 9.9C35.78 7.01 34.87 5.21 34.51 4.49C34.28 4.05 33.73 3.89 33.32 4.16C32.5 4.67 30.71 5.79 29.86 6.32C29.51 6.54 29.39 7 29.59 7.36C29.97 8.06 30.94 9.79 32.47 12.57Z" id="f1nIe43VkJ"></path><path d="M37.24 9.67C39.1 8.52 40.26 7.8 40.73 7.51C41.08 7.29 41.24 6.85 41.11 6.46C40.73 5.35 40.07 3.37 39.75 2.42C39.49 1.64 38.57 1.29 37.85 1.71C37.14 2.12 35.91 2.83 35.07 3.31C34.63 3.56 34.46 4.12 34.69 4.58C35.03 5.26 35.88 6.96 37.24 9.67Z" id="fRuZ32VLw"></path><path d="M38.38 14.95C32.5 18.35 28.82 20.48 27.34 21.33C26.74 21.68 26.59 22.5 27.04 23.03C27.25 23.29 27.32 23.37 27.61 23.71C27.91 24.08 28.36 24.3 28.84 24.33C29.39 24.36 30.76 24.43 32.95 24.54C33.76 26.16 34.27 27.18 34.47 27.58C34.98 28.61 36.27 28.96 37.23 28.35C38.8 27.36 42.26 25.16 43.97 24.08C44.58 23.69 44.8 22.9 44.48 22.25C44.14 21.56 43.56 20.42 43.19 19.67C42.92 19.13 42.9 18.5 43.13 17.94C43.44 17.2 43.82 16.29 44.09 15.65C44.46 14.76 44.45 13.74 44.05 12.85C43.57 11.76 42.35 9.02 41.77 7.72C41.69 7.54 41.48 7.47 41.31 7.57C40.16 8.23 37.27 9.9 32.66 12.57L34.57 17.11L38.38 14.95Z" id="aQlYwcROK"></path><path d="" id="edBfBmjIg"></path><path d="" id="a2j2KQTwRy"></path><path d="M23.42 23.45L21.76 23.45L21.76 18.98L18.95 18.98L18.95 30.47L21.76 30.47L21.76 26.13L23.42 26.13" id="d3D2lO4vvd"></path><path d="M22.83 23.45L24.49 23.45L24.49 18.98L27.3 18.98L27.3 30.47L24.49 30.47L24.49 26.13L22.83 26.13" id="c1b1ooAFxR"></path></defs><g><g><g><g><use xlink:href="#a2AMCfmcsG" opacity="1" fill="#000000" fill-opacity="1"></use><g><use xlink:href="#a2AMCfmcsG" opacity="1" fill-opacity="0" stroke="#b38555" stroke-width="1" stroke-opacity="1"></use></g></g><g><g><use xlink:href="#bpkgaq2Kv" opacity="1" fill="#b38555" fill-opacity="1"></use><g><use xlink:href="#bpkgaq2Kv" opacity="1" fill-opacity="0" stroke="#ffe4a0" stroke-width="1" stroke-opacity="1"></use></g></g><g><use xlink:href="#bAGfSzceZ" opacity="1" fill="#b38555" fill-opacity="1"></use><g><use xlink:href="#bAGfSzceZ" opacity="1" fill-opacity="0" stroke="#ffe4a0" stroke-width="1" stroke-opacity="1"></use></g></g><g><use xlink:href="#a1HhDnUnpx" opacity="1" fill="#b38555" fill-opacity="1"></use><g><use xlink:href="#a1HhDnUnpx" opacity="1" fill-opacity="0" stroke="#ffe4a0" stroke-width="1" stroke-opacity="1"></use></g></g><g><use xlink:href="#f1pqgXY2JW" opacity="1" fill="#b38555" fill-opacity="1"></use><g><use xlink:href="#f1pqgXY2JW" opacity="1" fill-opacity="0" stroke="#ffe4a0" stroke-width="1" stroke-opacity="1"></use></g></g><g><use xlink:href="#bgM9qIg5a" opacity="1" fill="#b38555" fill-opacity="1"></use><g><use xlink:href="#bgM9qIg5a" opacity="1" fill-opacity="0" stroke="#ffe4a0" stroke-width="1" stroke-opacity="1"></use></g></g></g><g><g><use xlink:href="#dgasz7JEW" opacity="1" fill-opacity="0" stroke="#5a5a5a" stroke-width="1" stroke-opacity="1"></use></g></g><g><use xlink:href="#a3b4DjSgN" opacity="1" fill="#ffffff" fill-opacity="1"></use><g><use xlink:href="#a3b4DjSgN" opacity="1" fill-opacity="0" stroke="#4a272e" stroke-width="1" stroke-opacity="1"></use></g></g></g><g><g><use xlink:href="#cbpjjVlpV" opacity="1" fill="#000000" fill-opacity="1"></use><g><use xlink:href="#cbpjjVlpV" opacity="1" fill-opacity="0" stroke="#bf6c45" stroke-width="1" stroke-opacity="1"></use></g></g><g><g><use xlink:href="#bt4gYrP4m" opacity="1" fill="#bf6c45" fill-opacity="1"></use><g><use xlink:href="#bt4gYrP4m" opacity="1" fill-opacity="0" stroke="#ffb36a" stroke-width="1" stroke-opacity="1"></use></g></g><g><use xlink:href="#c1wtxkuGCl" opacity="1" fill="#bf6c45" fill-opacity="1"></use><g><use xlink:href="#c1wtxkuGCl" opacity="1" fill-opacity="0" stroke="#ffb36a" stroke-width="1" stroke-opacity="1"></use></g></g><g><use xlink:href="#f1nIe43VkJ" opacity="1" fill="#bf6c45" fill-opacity="1"></use><g><use xlink:href="#f1nIe43VkJ" opacity="1" fill-opacity="0" stroke="#ffb36a" stroke-width="1" stroke-opacity="1"></use></g></g><g><use xlink:href="#fRuZ32VLw" opacity="1" fill="#bf6c45" fill-opacity="1"></use><g><use xlink:href="#fRuZ32VLw" opacity="1" fill-opacity="0" stroke="#ffb36a" stroke-width="1" stroke-opacity="1"></use></g></g><g><use xlink:href="#aQlYwcROK" opacity="1" fill="#bf6c45" fill-opacity="1"></use><g><use xlink:href="#aQlYwcROK" opacity="1" fill-opacity="0" stroke="#ffb36a" stroke-width="1" stroke-opacity="1"></use></g></g></g><g><g><use xlink:href="#edBfBmjIg" opacity="1" fill-opacity="0" stroke="#5a5a5a" stroke-width="1" stroke-opacity="1"></use></g></g><g><g><use xlink:href="#a2j2KQTwRy" opacity="1" fill-opacity="0" stroke="#bf6c45" stroke-width="1" stroke-opacity="1"></use></g></g><g><g><use xlink:href="#d3D2lO4vvd" opacity="1" fill="#ffffff" fill-opacity="1"></use><g><use xlink:href="#d3D2lO4vvd" opacity="1" fill-opacity="0" stroke="#4a272e" stroke-width="1" stroke-opacity="1"></use></g></g><g><use xlink:href="#c1b1ooAFxR" opacity="1" fill="#ffffff" fill-opacity="1"></use><g><use xlink:href="#c1b1ooAFxR" opacity="1" fill-opacity="0" stroke="#4a272e" stroke-width="1" stroke-opacity="1"></use></g></g></g></g></g></g></svg>