<?xml version="1.0" encoding="UTF-8" standalone="no"?>
<!DOCTYPE svg PUBLIC "-//W3C//DTD SVG 1.1//EN" "http://www.w3.org/Graphics/SVG/1.1/DTD/svg11.dtd">
<svg version="1.1" xmlns="http://www.w3.org/2000/svg" xmlns:xlink="http://www.w3.org/1999/xlink" preserveAspectRatio="xMidYMid meet" viewBox="0 0 32 32" width="32" height="32"><defs><path d="M29.25 16C29.25 23.31 23.31 29.25 16 29.25C8.69 29.25 2.75 23.31 2.75 16C2.75 8.69 8.69 2.75 16 2.75C23.31 2.75 29.25 8.69 29.25 16Z" id="a3SmTj9qN0"></path><path d="M13.33 21.25L15.17 22.33C15.09 22.96 15.04 23.36 15.02 23.52C15.01 23.61 15.05 23.7 15.13 23.75C15.82 24.2 16.98 24.95 17.47 25.28C18.12 25.7 18.97 25.59 19.5 25.04C21.73 22.68 27.24 16.86 29.41 14.58C30.09 13.86 30.01 12.72 29.24 12.1C27.79 10.93 24.33 8.13 22.74 6.85C22.35 6.54 21.78 6.65 21.53 7.08C20.91 8.18 19.59 10.52 18.98 11.58C18.63 12.21 17.99 12.62 17.27 12.67C16.42 12.74 14.88 12.86 13.99 12.92C13.34 12.97 12.67 12.92 12.03 12.76C11.82 12.71 11.3 12.58 10.47 12.37C8.51 11.88 7.28 11.57 6.79 11.45C6.29 11.32 5.77 11.44 5.37 11.76C4.5 12.48 3.02 13.68 2.28 14.29C1.65 14.8 1.72 15.77 2.41 16.19C4.33 17.35 9.57 20.53 11.72 21.83C11.89 21.93 12.11 21.94 12.29 21.84C12.43 21.76 12.78 21.56 13.33 21.25Z" id="d5O8lSiSuH"></path><path d="M21 23.33C19.71 22.48 18.9 21.95 18.57 21.74C18.42 21.64 18.33 21.48 18.31 21.3C18.3 21.19 18.28 20.93 18.25 20.5L14.17 18C13.57 18.28 13.2 18.45 13.05 18.52C12.86 18.61 12.64 18.6 12.46 18.5C11.29 17.81 8.36 16.09 3.67 13.33" id="gOUNIiyfh"></path></defs><g><g><g><use xlink:href="#a3SmTj9qN0" opacity="1" fill="#000000" fill-opacity="1"></use><g><use xlink:href="#a3SmTj9qN0" opacity="1" fill-opacity="0" stroke="#5a5a5a" stroke-width="1" stroke-opacity="1"></use></g></g><g><g><use xlink:href="#d5O8lSiSuH" opacity="1" fill="#ffffff" fill-opacity="1"></use><g><use xlink:href="#d5O8lSiSuH" opacity="1" fill-opacity="0" stroke="#5a5a5a" stroke-width="1" stroke-opacity="1"></use></g></g><g><g><use xlink:href="#gOUNIiyfh" opacity="1" fill-opacity="0" stroke="#5a5a5a" stroke-width="1" stroke-opacity="1"></use></g></g></g></g></g></svg>