<?xml version="1.0" encoding="UTF-8" standalone="no"?>
<!DOCTYPE svg PUBLIC "-//W3C//DTD SVG 1.1//EN" "http://www.w3.org/Graphics/SVG/1.1/DTD/svg11.dtd">
<svg version="1.1" xmlns="http://www.w3.org/2000/svg" xmlns:xlink="http://www.w3.org/1999/xlink" preserveAspectRatio="xMidYMid meet" viewBox="0 0 32 32" width="32" height="32"><defs><path d="M29.25 16C29.25 23.31 23.31 29.25 16 29.25C8.69 29.25 2.75 23.31 2.75 16C2.75 8.69 8.69 2.75 16 2.75C23.31 2.75 29.25 8.69 29.25 16Z" id="d307sG3ekt"></path><path d="M12.96 19.2C9.54 14.56 7.4 11.66 6.54 10.5C6.36 10.25 6 10.18 5.74 10.35C4.89 10.88 3.22 11.93 2.48 12.4C1.97 12.72 1.84 13.42 2.22 13.89C3.47 15.51 6.55 19.46 7.8 21.07C8.2 21.58 8.91 21.71 9.46 21.37C9.93 21.08 11.09 20.35 12.96 19.2Z" id="h1oCC5BoK"></path><path d="M12.58 19.2L16.67 16.91C13.92 11.9 12.2 8.77 11.51 7.52C11.36 7.26 11.03 7.17 10.77 7.32C9.87 7.87 7.66 9.21 6.77 9.76C6.51 9.92 6.43 10.26 6.6 10.51C7.4 11.67 9.39 14.56 12.58 19.2Z" id="a4OTz4X7g7"></path><path d="M14.67 12.95L19.44 10.28C17.98 7.39 17.07 5.59 16.71 4.86C16.49 4.42 15.93 4.27 15.52 4.53C14.7 5.05 12.91 6.17 12.06 6.7C11.71 6.92 11.59 7.38 11.79 7.74C12.18 8.43 13.14 10.17 14.67 12.95Z" id="h3Czpd9DO3"></path><path d="M19.44 10.05C21.3 8.9 22.46 8.18 22.93 7.89C23.28 7.67 23.44 7.23 23.31 6.83C22.93 5.72 22.27 3.74 21.95 2.8C21.69 2.02 20.77 1.67 20.05 2.08C19.34 2.49 18.11 3.2 17.28 3.68C16.83 3.94 16.66 4.5 16.89 4.96C17.23 5.64 18.08 7.33 19.44 10.05Z" id="ayvz5ypZw"></path><path d="M20.58 15.33C14.7 18.73 11.02 20.86 9.55 21.71C8.94 22.06 8.79 22.87 9.24 23.41C9.45 23.66 9.52 23.75 9.81 24.09C10.11 24.46 10.56 24.68 11.04 24.71C11.59 24.73 12.96 24.8 15.15 24.92C15.96 26.54 16.47 27.56 16.67 27.96C17.18 28.98 18.47 29.34 19.43 28.73C21 27.74 24.46 25.54 26.17 24.46C26.79 24.07 27.01 23.28 26.68 22.62C26.34 21.94 25.76 20.79 25.39 20.05C25.12 19.51 25.1 18.88 25.33 18.32C25.64 17.58 26.02 16.66 26.29 16.03C26.66 15.13 26.65 14.12 26.25 13.23C25.77 12.14 24.55 9.4 23.97 8.09C23.89 7.92 23.68 7.85 23.51 7.94C22.36 8.61 19.47 10.28 14.86 12.95L16.77 17.48L20.58 15.33Z" id="aeGjY2DYZ"></path></defs><g><g><g><use xlink:href="#d307sG3ekt" opacity="1" fill="#000000" fill-opacity="1"></use><g><use xlink:href="#d307sG3ekt" opacity="1" fill-opacity="0" stroke="#5a5a5a" stroke-width="1" stroke-opacity="1"></use></g></g><g><g><use xlink:href="#h1oCC5BoK" opacity="1" fill="#ffffff" fill-opacity="1"></use><g><use xlink:href="#h1oCC5BoK" opacity="1" fill-opacity="0" stroke="#5a5a5a" stroke-width="1" stroke-opacity="1"></use></g></g><g><use xlink:href="#a4OTz4X7g7" opacity="1" fill="#ffffff" fill-opacity="1"></use><g><use xlink:href="#a4OTz4X7g7" opacity="1" fill-opacity="0" stroke="#5a5a5a" stroke-width="1" stroke-opacity="1"></use></g></g><g><use xlink:href="#h3Czpd9DO3" opacity="1" fill="#ffffff" fill-opacity="1"></use><g><use xlink:href="#h3Czpd9DO3" opacity="1" fill-opacity="0" stroke="#5a5a5a" stroke-width="1" stroke-opacity="1"></use></g></g><g><use xlink:href="#ayvz5ypZw" opacity="1" fill="#ffffff" fill-opacity="1"></use><g><use xlink:href="#ayvz5ypZw" opacity="1" fill-opacity="0" stroke="#5a5a5a" stroke-width="1" stroke-opacity="1"></use></g></g><g><use xlink:href="#aeGjY2DYZ" opacity="1" fill="#ffffff" fill-opacity="1"></use><g><use xlink:href="#aeGjY2DYZ" opacity="1" fill-opacity="0" stroke="#5a5a5a" stroke-width="1" stroke-opacity="1"></use></g></g></g></g></g></svg>